<svg width="24" height="23" viewBox="0 0 24 23" fill="none" xmlns="http://www.w3.org/2000/svg">
<path d="M23.2029 11.4955C23.2029 11.6889 23.1729 11.8702 23.1129 12.0395C23.053 12.2087 22.95 12.3658 22.804 12.5109L13.2305 22.0843C12.9404 22.3744 12.5962 22.5195 12.1978 22.5195C11.7994 22.5195 11.4546 22.3744 11.1635 22.0843C10.8734 21.7942 10.7284 21.4558 10.7284 21.0689C10.7284 20.6821 10.8734 20.3437 11.1635 20.0536L18.2711 12.946H2.02526C1.61428 12.946 1.27583 12.8068 1.0099 12.5283C0.743972 12.2498 0.611008 11.9055 0.611008 11.4955C0.611008 11.0845 0.750257 10.7398 1.02876 10.4613C1.30726 10.1828 1.65151 10.044 2.06153 10.045H18.2711L11.1635 2.93744C10.8734 2.64734 10.7284 2.30888 10.7284 1.92208C10.7284 1.53527 10.8734 1.19682 11.1635 0.906715C11.4536 0.616612 11.7984 0.471558 12.1978 0.471558C12.5971 0.471558 12.9414 0.616611 13.2305 0.906715L22.804 10.4801C22.949 10.6252 23.052 10.7823 23.1129 10.9516C23.1738 11.1208 23.2038 11.3021 23.2029 11.4955Z" class="arrow-fill-color"/>
</svg>
