<svg width="24" height="23" viewBox="0 0 24 23" fill="none" xmlns="http://www.w3.org/2000/svg">
<path d="M0.610985 11.4955C0.610985 11.6889 0.640962 11.8702 0.700916 12.0395C0.760872 12.2087 0.863861 12.3658 1.00988 12.5109L10.5833 22.0843C10.8734 22.3744 11.2177 22.5195 11.6161 22.5195C12.0145 22.5195 12.3592 22.3744 12.6503 22.0843C12.9404 21.7942 13.0855 21.4558 13.0855 21.0689C13.0855 20.6821 12.9404 20.3437 12.6503 20.0536L5.54275 12.946H21.7886C22.1996 12.946 22.538 12.8068 22.8039 12.5283C23.0699 12.2498 23.2028 11.9055 23.2028 11.4955C23.2028 11.0845 23.0636 10.7398 22.7851 10.4613C22.5066 10.1828 22.1623 10.044 21.7523 10.045H5.54276L12.6503 2.93744C12.9404 2.64734 13.0855 2.30888 13.0855 1.92208C13.0855 1.53527 12.9404 1.19682 12.6503 0.906715C12.3602 0.616612 12.0155 0.471558 11.6161 0.471558C11.2167 0.471558 10.8724 0.616611 10.5833 0.906715L1.00988 10.4801C0.864828 10.6252 0.761839 10.7823 0.700916 10.9516C0.639995 11.1208 0.610018 11.3021 0.610985 11.4955Z" class="arrow-fill-color"/>
</svg>
