<svg width="680" height="280" viewBox="0 0 680 280" fill="none" xmlns="http://www.w3.org/2000/svg">
<path d="M187.012 18.8736C175.868 20.4092 167.075 27.6798 165.218 36.8933C165.142 37.238 164.574 37.238 164.497 36.8933C162.64 27.6798 153.847 20.4092 142.704 18.8736C142.287 18.811 142.287 18.3408 142.704 18.2782C153.847 16.7426 162.64 9.47204 164.497 0.258543C164.574 -0.0861809 165.142 -0.0861809 165.218 0.258543C167.075 9.47204 175.868 16.7426 187.012 18.2782C187.428 18.3408 187.428 18.811 187.012 18.8736Z" fill="white"/>
<path d="M603.892 261.721C592.749 263.257 583.956 270.528 582.099 279.742C582.023 280.086 581.455 280.086 581.379 279.742C579.521 270.528 570.728 263.257 559.585 261.721C559.168 261.659 559.168 261.189 559.585 261.126C570.728 259.591 579.521 252.32 581.379 243.107C581.455 242.762 582.023 242.762 582.099 243.107C583.956 252.32 592.749 259.591 603.892 261.126C604.31 261.189 604.31 261.659 603.892 261.721Z" fill="white"/>
<path d="M679.688 18.8736C668.545 20.4092 659.751 27.6798 657.894 36.8933C657.818 37.238 657.25 37.238 657.174 36.8933C655.317 27.6798 646.524 20.4092 635.381 18.8736C634.963 18.811 634.963 18.3408 635.381 18.2782C646.524 16.7426 655.317 9.47204 657.174 0.258543C657.25 -0.0861809 657.818 -0.0861809 657.894 0.258543C659.751 9.47204 668.545 16.7426 679.688 18.2782C680.105 18.3408 680.105 18.811 679.688 18.8736Z" fill="white"/>
<path d="M164.859 275.526C174.279 275.526 181.915 269.212 181.915 261.423C181.915 253.635 174.279 247.321 164.859 247.321C155.439 247.321 147.803 253.635 147.803 261.423C147.803 269.212 155.439 275.526 164.859 275.526Z" fill="white"/>
<path d="M7.58046 147.05C11.767 147.05 15.1608 144.244 15.1608 140.782C15.1608 137.32 11.767 134.514 7.58046 134.514C3.39387 134.514 0 137.32 0 140.782C0 144.244 3.39387 147.05 7.58046 147.05Z" fill="white"/>
<path d="M252.021 147.05C256.208 147.05 259.602 144.244 259.602 140.782C259.602 137.32 256.208 134.514 252.021 134.514C247.835 134.514 244.44 137.32 244.44 140.782C244.44 144.244 247.835 147.05 252.021 147.05Z" fill="white"/>
<path d="M380.876 201.886C385.063 201.886 388.457 199.08 388.457 195.619C388.457 192.157 385.063 189.351 380.876 189.351C376.69 189.351 373.296 192.157 373.296 195.619C373.296 199.08 376.69 201.886 380.876 201.886Z" fill="white"/>
<path d="M380.876 27.976C385.063 27.976 388.457 25.1698 388.457 21.7083C388.457 18.2467 385.063 15.4406 380.876 15.4406C376.69 15.4406 373.296 18.2467 373.296 21.7083C373.296 25.1698 376.69 27.976 380.876 27.976Z" fill="white"/>
<path d="M642.374 147.05C646.561 147.05 649.955 144.244 649.955 140.782C649.955 137.32 646.561 134.514 642.374 134.514C638.188 134.514 634.794 137.32 634.794 140.782C634.794 144.244 638.188 147.05 642.374 147.05Z" fill="white"/>
<path d="M504.046 98.4816C512.419 98.4816 519.207 92.8692 519.207 85.9463C519.207 79.0234 512.419 73.411 504.046 73.411C495.674 73.411 488.886 79.0234 488.886 85.9463C488.886 92.8692 495.674 98.4816 504.046 98.4816Z" fill="white"/>
</svg>
