<?xml version="1.0" encoding="utf-8"?>
<!-- Generator: Adobe Illustrator 27.5.0, SVG Export Plug-In . SVG Version: 6.00 Build 0)  -->
<svg version="1.1" id="Layer_1" xmlns="http://www.w3.org/2000/svg" xmlns:xlink="http://www.w3.org/1999/xlink" x="0px" y="0px"
	 viewBox="0 0 432.595 247.262" style="enable-background:new 0 0 432.595 247.262;" xml:space="preserve">
<g>
	<g>
		<g>
			<g>
				<g>
					<path style="fill:#818F98;" d="M125.332,3.78v230.536h92.888V3.78H125.332z M214.744,230.005h-85.935V8.091h85.935V230.005z"/>
					<rect x="128.809" y="8.091" style="fill:#D9E7EF;" width="85.935" height="221.914"/>
				</g>
				<g>
					<path style="fill:#818F98;" d="M35.713,3.78v230.536h92.888V3.78H35.713z M125.125,230.005H39.189V8.091h85.936V230.005z"/>
					<rect x="39.189" y="8.091" style="fill:#D9E7EF;" width="85.936" height="221.914"/>
					<rect x="39.189" y="8.091" style="fill:#D9E7EF;" width="85.936" height="221.914"/>
				</g>
			</g>
			<g>
				<path style="fill:#D9E7EF;" d="M161.524,143.822c17.621-14.726,35.415-29.125,53.22-43.504V22.7
					c-0.536,0.427-1.071,0.857-1.608,1.283c-17.788,14.12-35.778,27.842-53.557,41.979c-10.372,8.248-20.614,16.729-30.77,25.366
					v80.168C139.674,162.201,150.577,152.97,161.524,143.822z"/>
				<path style="fill:#D9E7EF;" d="M214.744,224.586v-14.886c-5.315,4.303-10.623,8.621-15.919,12.96
					c-2.979,2.441-5.954,4.89-8.925,7.345h17.842C210.07,228.187,212.404,226.381,214.744,224.586z"/>
				<path style="fill:#D9E7EF;" d="M43.26,71.743c8.187-6.858,16.348-13.76,24.49-20.7c8.147-6.943,16.273-13.923,24.384-20.93
					c8.107-7.003,16.198-14.034,24.279-21.083c0.358-0.312,0.715-0.627,1.073-0.939h-12.261c-2.011,1.646-4.024,3.288-6.042,4.92
					C88.396,21.74,77.526,30.309,66.751,39.06c-5.363,4.356-10.758,8.685-16.002,13.26c-3.882,3.387-7.731,6.835-11.559,10.315v12.5
					C40.546,74.004,41.905,72.878,43.26,71.743z"/>
				<path style="fill:#D9E7EF;" d="M70.71,222.199c9.92-8.995,20.005-17.724,30.057-26.489c8.096-7.059,16.219-14.069,24.358-21.05
					V94.466c-6.384,5.464-12.737,10.986-19.065,16.555c-17.891,15.743-35.583,31.833-53.105,48.202
					c-4.6,4.298-9.188,8.617-13.765,12.952v57.83h22.876C64.955,227.416,67.833,224.807,70.71,222.199z"/>
			</g>
		</g>
		<g>
			<g>
				<path style="fill:#E3E2D7;" d="M55.78,190.322c-1.522-5.938,3.079-8.68,3.079-8.68s-8.18-0.04-12.537-0.061l0-0.012
					c-0.046,0-0.546,0.002-1.329,0.006c-0.783-0.004-1.283-0.006-1.329-0.006l0,0.012c-4.357,0.021-12.537,0.061-12.537,0.061
					s4.601,2.742,3.079,8.68c-1.522,5.939-8.015,8.182-6.748,22.963c1.267,14.78,10.109,20.719,10.109,20.719h0.039
					c0,0.243,3.109,0.44,6.944,0.44c0.149,0,0.295-0.001,0.442-0.002c0.147,0.001,0.293,0.002,0.442,0.002
					c3.835,0,6.944-0.197,6.944-0.44h0.039c0,0,8.842-5.939,10.109-20.719C63.795,198.504,57.302,196.261,55.78,190.322z"/>
				<path style="fill:#B2B6B6;" d="M58.903,181.568c0,0.486-6.218,0.88-13.888,0.88c-7.67,0-13.888-0.394-13.888-0.88
					c0-0.486,6.218-0.88,13.888-0.88C52.686,180.688,58.903,181.082,58.903,181.568z"/>
				<g>
					<polygon style="fill:#B29E7A;" points="37.727,224.387 36.575,224.387 36.815,223.451 37.376,223.385 					"/>
					<polygon style="fill:#AFA0AB;" points="41.431,228.398 41.285,228.042 41.605,227.997 41.697,228.162 					"/>
					<polygon style="fill:#C1A280;" points="34.345,228.599 34.128,228.071 34.602,228.004 34.738,228.249 					"/>
					<polygon style="fill:#ADC1BD;" points="42.289,222.426 41.984,221.685 42.65,221.591 42.841,221.935 					"/>
					<polygon style="fill:#EBE9A2;" points="38.176,231.91 37.871,231.168 38.537,231.074 38.728,231.418 					"/>
				</g>
				<g>
					<polygon style="fill:#B29E7A;" points="50.854,228.072 51.733,227.327 52.155,228.197 51.77,228.61 					"/>
					<polygon style="fill:#AFA0AB;" points="45.435,227.404 45.778,227.582 45.562,227.823 45.386,227.756 					"/>
					<polygon style="fill:#C1A280;" points="50.714,222.672 51.221,222.935 50.902,223.292 50.64,223.194 					"/>
					<polygon style="fill:#ADC1BD;" points="48.639,232.516 49.352,232.885 48.903,233.387 48.536,233.248 					"/>
					<polygon style="fill:#EBE9A2;" points="45.651,222.621 46.363,222.99 45.915,223.492 45.547,223.353 					"/>
				</g>
				<g>
					<polygon style="fill:#ADC1BD;" points="59.001,219.39 59.881,218.645 60.302,219.515 59.917,219.928 					"/>
					<polygon style="fill:#AFA0AB;" points="53.582,218.722 53.925,218.9 53.709,219.141 53.533,219.074 					"/>
					<polygon style="fill:#C1A280;" points="58.861,213.99 59.368,214.253 59.049,214.61 58.787,214.512 					"/>
					<polygon style="fill:#DBCA74;" points="56.786,223.834 57.499,224.203 57.05,224.705 56.683,224.566 					"/>
					<polygon style="fill:#EBE9A2;" points="53.798,213.939 54.51,214.308 54.062,214.81 53.694,214.671 					"/>
				</g>
				<g>
					<polygon style="fill:#ADC1BD;" points="35.273,216.276 36.153,215.532 36.575,216.402 36.189,216.814 					"/>
					<polygon style="fill:#AFA0AB;" points="29.855,215.609 30.197,215.786 29.982,216.027 29.805,215.961 					"/>
					<polygon style="fill:#C1A280;" points="35.133,210.877 35.641,211.139 35.321,211.497 35.06,211.398 					"/>
					<polygon style="fill:#DBCA74;" points="33.059,220.721 33.771,221.089 33.323,221.591 32.955,221.452 					"/>
					<polygon style="fill:#EBE9A2;" points="30.07,210.825 30.782,211.194 30.334,211.696 29.966,211.557 					"/>
				</g>
				<g>
					<polygon style="fill:#84B5BC;" points="35.847,201.306 36.998,201.247 36.806,202.195 36.249,202.289 					"/>
					<polygon style="fill:#AFA0AB;" points="31.943,197.489 32.108,197.838 31.79,197.899 31.69,197.739 					"/>
					<polygon style="fill:#C1A280;" points="39.01,196.927 39.254,197.444 38.784,197.535 38.635,197.297 					"/>
					<polygon style="fill:#DBCA74;" points="31.391,203.497 31.734,204.222 31.073,204.349 30.865,204.016 					"/>
					<polygon style="fill:#EBE9A2;" points="35.015,193.816 35.358,194.541 34.697,194.669 34.489,194.335 					"/>
				</g>
				<g>
					<polygon style="fill:#84B5BC;" points="49.618,195.818 48.761,196.589 48.313,195.732 48.686,195.308 					"/>
					<polygon style="fill:#AFA0AB;" points="55.054,196.321 54.706,196.154 54.914,195.906 55.093,195.968 					"/>
					<polygon style="fill:#C1A280;" points="49.921,201.211 49.406,200.964 49.714,200.597 49.979,200.688 					"/>
					<polygon style="fill:#DBCA74;" points="51.697,191.309 50.973,190.962 51.406,190.446 51.778,190.574 					"/>
					<polygon style="fill:#EBE9A2;" points="54.984,201.109 54.261,200.762 54.693,200.246 55.065,200.374 					"/>
				</g>
				<g>
					<polygon style="fill:#84B5BC;" points="44.923,190.319 45.726,189.493 46.23,190.318 45.886,190.766 					"/>
					<polygon style="fill:#AFA0AB;" points="39.465,190.177 39.823,190.321 39.632,190.582 39.45,190.532 					"/>
					<polygon style="fill:#C1A280;" points="44.262,184.958 44.792,185.17 44.509,185.557 44.239,185.484 					"/>
					<polygon style="fill:#DBCA74;" points="43.147,194.956 43.892,195.254 43.494,195.797 43.115,195.695 					"/>
					<polygon style="fill:#EBE9A2;" points="39.217,185.395 39.962,185.694 39.565,186.237 39.185,186.134 					"/>
				</g>
				<g>
					<polygon style="fill:#84B5BC;" points="46.173,213.403 47.324,213.344 47.132,214.292 46.575,214.386 					"/>
					<polygon style="fill:#AFA0AB;" points="42.269,209.587 42.434,209.935 42.117,209.997 42.016,209.836 					"/>
					<polygon style="fill:#C1A280;" points="49.336,209.025 49.58,209.541 49.11,209.632 48.961,209.395 					"/>
					<polygon style="fill:#DBCA74;" points="41.717,215.594 42.06,216.319 41.399,216.447 41.191,216.113 					"/>
					<polygon style="fill:#EBE9A2;" points="45.341,205.914 45.684,206.639 45.023,206.766 44.815,206.433 					"/>
				</g>
				<g>
					<polygon style="fill:#ADC1BD;" points="54.381,209.008 54.455,210.158 53.505,209.978 53.403,209.423 					"/>
					<polygon style="fill:#AFA0AB;" points="58.146,205.054 57.799,205.224 57.734,204.907 57.893,204.805 					"/>
					<polygon style="fill:#C1A280;" points="58.8,212.113 58.287,212.364 58.19,211.895 58.426,211.743 					"/>
					<polygon style="fill:#DBCA74;" points="52.131,204.581 51.411,204.933 51.275,204.274 51.605,204.062 					"/>
					<polygon style="fill:#EBE9A2;" points="61.859,208.077 61.138,208.43 61.002,207.771 61.333,207.558 					"/>
				</g>
			</g>
			<polygon style="fill:#436A46;" points="47.324,136.873 47.324,182.436 48.536,182.448 49.406,144.999 			"/>
			<polygon style="fill:#436A46;" points="42.62,156.072 44.303,182.461 45.513,182.391 44.998,160.645 			"/>
			<g>
				<path style="fill:#8AB676;" d="M52.766,153.779c-0.42-2.525-2.019-5.123-4.765-5.453c-1.372-0.165-2.735,0.325-3.92,0.977
					c-1.311,0.722-2.485,1.656-3.495,2.759c-1.07,1.167-1.891,2.489-2.737,3.818c-0.084,0.132-0.168,0.262-0.253,0.394
					c0.082-1.016,0.167-2.051,0.079-3.071c0.067-0.792,0.044-1.591-0.085-2.393c-0.432-2.687-2.096-5.38-4.671-6.477
					c-4.157-1.771-7.525,2.811-9.213,5.953c-1.239,2.306-2.065,4.784-2.578,7.35c-0.15,0.751-0.269,1.508-0.367,2.268
					c-0.014,0.186-0.029,0.373-0.04,0.559c-0.123,2.073-0.046,4.166,0.295,6.216c0.177,1.062,0.424,2.11,0.577,3.177
					c0.144,1.007,0.233,2.024,0.238,3.042c0.006,1.031-0.077,2.061-0.236,3.08c-0.174,1.121-0.463,2.21-0.725,3.311
					c-0.497,2.092-0.728,4.23-0.609,6.379c0.061,1.096,0.207,2.185,0.401,3.265c0.217,1.205,0.499,2.393,0.649,3.61
					c0.367,2.962,0.55,5.942,0.914,8.907c0.129,1.053,0.75,1.96,1.924,1.956c0.208-0.001,0.419-0.034,0.607-0.123
					c2.043-0.966,3.904-2.847,5.46-4.459c1.143-1.185,2.117-2.518,3.191-3.763c1.947-2.258,4.086-4.367,5.508-7.019
					c0.801-1.494,1.349-3.118,1.934-4.705c0.576-1.562,1.161-3.125,1.913-4.613c0.735-1.455,1.686-2.772,2.6-4.117
					c0.865-1.271,1.72-2.549,2.533-3.854c1.608-2.581,3.079-5.285,4.032-8.182C52.86,159.741,53.258,156.733,52.766,153.779z"/>
				<path style="fill:#5B895D;" d="M52.766,153.779c-0.42-2.525-2.019-5.123-4.765-5.453c-1.372-0.165-2.735,0.325-3.92,0.977
					c-1.311,0.722-2.485,1.656-3.495,2.759c-1.059,1.155-1.875,2.462-2.712,3.778c-0.143,0.422-0.3,0.84-0.469,1.254
					c-0.711,1.734-1.625,3.384-2.246,5.154c-1.325,3.782-1.753,7.788-2.375,11.725c-0.307,1.94-0.667,3.871-1.183,5.766
					c-0.53,1.946-1.247,3.835-2.014,5.699c-0.774,1.878-1.6,3.734-2.346,5.623c-0.742,1.881-1.364,3.791-1.865,5.75
					c-0.556,2.173-0.988,4.373-1.303,6.59c0.026,0.001,0.05,0.004,0.077,0.004c0.208-0.001,0.419-0.034,0.607-0.123
					c2.043-0.966,3.904-2.847,5.46-4.459c1.143-1.185,2.117-2.518,3.191-3.763c1.947-2.258,4.086-4.367,5.508-7.019
					c0.801-1.494,1.349-3.118,1.934-4.705c0.576-1.562,1.161-3.125,1.913-4.613c0.735-1.455,1.686-2.772,2.6-4.117
					c0.865-1.271,1.72-2.549,2.533-3.854c1.608-2.581,3.079-5.285,4.032-8.182C52.86,159.741,53.258,156.733,52.766,153.779z"/>
				<path style="fill:#5B895D;" d="M42.34,154.03c0.782,1.174,1.361,2.468,1.923,3.757c0.298,0.684,0.568,1.38,0.914,2.041
					c0.348,0.666,0.75,1.302,1.186,1.913c1.195,1.675,2.624,3.162,3.942,4.738c0.627-1.267,1.183-2.567,1.625-3.911
					c0.93-2.828,1.329-5.836,0.837-8.79c-0.42-2.525-2.019-5.123-4.765-5.453c-1.372-0.165-2.735,0.325-3.92,0.977
					c-1.302,0.717-2.467,1.644-3.473,2.737C41.268,152.619,41.847,153.289,42.34,154.03z"/>
				<path style="fill:#8AB676;" d="M32.805,132.98c0.096-2.558,1.352-5.338,4.034-6.014c1.34-0.338,2.754-0.025,4.012,0.472
					c1.392,0.549,2.675,1.328,3.817,2.293c1.209,1.022,2.192,2.228,3.2,3.44c0.1,0.12,0.201,0.239,0.301,0.358
					c-0.21-0.997-0.426-2.014-0.468-3.036c-0.167-0.777-0.246-1.572-0.22-2.385c0.088-2.721,1.396-5.603,3.811-7.018
					c3.899-2.284,7.821,1.833,9.895,4.735c1.522,2.13,2.656,4.484,3.49,6.963c0.244,0.726,0.458,1.462,0.652,2.204
					c0.038,0.183,0.076,0.366,0.11,0.549c0.385,2.041,0.574,4.126,0.496,6.203c-0.04,1.076-0.153,2.147-0.169,3.224
					c-0.015,1.018,0.026,2.037,0.15,3.047c0.125,1.024,0.338,2.035,0.625,3.025c0.315,1.09,0.74,2.133,1.139,3.193
					c0.758,2.012,1.259,4.103,1.414,6.25c0.079,1.094,0.072,2.194,0.017,3.289c-0.062,1.223-0.191,2.436-0.186,3.663
					c0.013,2.985,0.209,5.964,0.225,8.951c0.005,1.061-0.495,2.04-1.66,2.184c-0.207,0.025-0.42,0.019-0.618-0.045
					c-2.149-0.699-4.234-2.328-5.982-3.73c-1.285-1.03-2.42-2.229-3.643-3.327c-2.218-1.993-4.607-3.813-6.354-6.263
					c-0.984-1.38-1.735-2.922-2.516-4.421c-0.77-1.476-1.549-2.952-2.483-4.333c-0.914-1.35-2.024-2.536-3.102-3.753
					c-1.019-1.151-2.029-2.31-3.002-3.502c-1.922-2.356-3.725-4.851-5.039-7.604C33.469,138.906,32.692,135.972,32.805,132.98z"/>
				<path style="fill:#5B895D;" d="M32.805,132.98c0.096-2.558,1.352-5.338,4.034-6.014c1.34-0.338,2.754-0.025,4.012,0.472
					c1.392,0.549,2.675,1.328,3.817,2.293c1.197,1.011,2.172,2.204,3.169,3.403c0.195,0.4,0.404,0.795,0.625,1.184
					c0.925,1.63,2.042,3.15,2.882,4.827c1.794,3.583,2.727,7.502,3.845,11.328c0.55,1.885,1.153,3.755,1.906,5.57
					c0.773,1.863,1.723,3.646,2.721,5.397c1.006,1.764,2.061,3.5,3.041,5.279c0.975,1.771,1.835,3.588,2.58,5.467
					c0.827,2.085,1.535,4.212,2.129,6.372c-0.025,0.004-0.049,0.01-0.076,0.013c-0.207,0.025-0.42,0.019-0.618-0.045
					c-2.149-0.699-4.234-2.328-5.982-3.729c-1.285-1.03-2.42-2.229-3.643-3.327c-2.218-1.993-4.607-3.813-6.354-6.263
					c-0.984-1.38-1.735-2.922-2.516-4.421c-0.77-1.476-1.549-2.952-2.483-4.333c-0.914-1.35-2.024-2.536-3.102-3.753
					c-1.019-1.151-2.029-2.31-3.002-3.502c-1.922-2.356-3.725-4.851-5.039-7.604C33.469,138.906,32.692,135.972,32.805,132.98z"/>
			</g>
		</g>
		<g>
			<g>
				<g>
					<path style="fill:#ABAC98;" d="M212.797,130.014h-13.053l2.46,30.915c0,0.529,4.743,0.958,10.593,0.958
						c5.85,0,10.593-0.429,10.593-0.958l2.46-30.915H212.797z"/>
					<path style="opacity:0.5;fill:#ABAC98;" d="M218.727,130.014c-0.01,0.616-0.02,1.232-0.026,1.848
						c-0.063,6.176,0.021,12.353-0.103,18.528c-0.076,3.794-0.234,7.59-0.554,11.371c3.193-0.165,5.347-0.476,5.347-0.832
						l2.46-30.915H218.727z"/>
					<path style="fill:#54564C;" d="M225.85,130.014c0,0.508-5.844,0.919-13.053,0.919s-13.053-0.411-13.053-0.919
						s5.844-0.919,13.053-0.919S225.85,129.506,225.85,130.014z"/>
				</g>
				<g>
					<path style="fill:#8AB676;" d="M187.133,141.357c0.014-0.011,0.027-0.025,0.041-0.036c0.499-0.383,1.131-0.794,1.416-1.377
						c0.116-0.237,0.14-0.508-0.039-0.721c-0.146-0.174-0.357-0.239-0.578-0.2c-0.297,0.052-0.57,0.231-0.814,0.445
						c0.001-0.021,0-0.042,0.001-0.062c0.015-0.666,0.042-1.331,0.074-1.995c0.389-0.544,0.85-1.031,1.385-1.42
						c0.466-0.339,0.941-0.663,1.389-1.026c0.394-0.319,0.874-0.703,1.056-1.195c0.144-0.39-0.086-0.785-0.421-0.996
						c-0.329-0.207-0.719-0.142-1.052,0.015c-0.433,0.204-0.802,0.551-1.13,0.893c-0.386,0.402-0.732,0.843-1.061,1.293
						c0.062-0.71,0.132-1.419,0.221-2.127c0.287-0.536,0.626-1.048,1.041-1.525c0.587-0.673,1.272-1.251,1.987-1.783
						c0.313-0.233,0.627-0.471,0.958-0.679c0.277-0.175,0.561-0.339,0.827-0.531c0.491-0.355,0.884-0.785,0.893-1.423
						c0.005-0.4-0.227-0.702-0.627-0.76c-0.446-0.065-0.918,0.092-1.328,0.251c-0.425,0.165-0.835,0.367-1.226,0.603
						c-0.664,0.4-1.28,0.897-1.799,1.476c0.137-0.66,0.282-1.318,0.445-1.972c0.457-0.702,1.001-1.351,1.622-1.928
						c0.72-0.669,1.521-1.228,2.376-1.711c0.467-0.264,0.945-0.507,1.424-0.747c0.314-0.157,0.648-0.247,0.974-0.374
						c0.593-0.23,1.204-0.567,1.311-1.252c0.068-0.433-0.162-0.766-0.574-0.896c-0.47-0.149-1.011-0.074-1.486,0.01
						c-0.442,0.078-0.888,0.191-1.305,0.361c-0.944,0.385-1.873,0.863-2.704,1.468c0.302-0.736,0.63-1.461,0.992-2.168
						c0.672-0.713,1.432-1.344,2.298-1.857c0.522-0.309,1.068-0.578,1.629-0.808c0.383-0.157,0.757-0.3,1.166-0.369
						c0.851-0.143,1.709-0.233,2.554-0.408c0.42-0.087,0.841-0.188,1.241-0.344c0.304-0.119,0.626-0.267,0.842-0.521
						c0.373-0.44,0.248-1.18-0.249-1.47c-0.588-0.343-1.409-0.21-2.041-0.096c-0.788,0.142-1.559,0.378-2.312,0.647
						c-0.963,0.345-1.844,0.841-2.682,1.407c2.165-2.671,5.111-4.785,8.477-5.606c1.909-0.466,4.08-0.42,5.802,0.618
						c0.91,0.549,1.661,1.397,2.16,2.331c0.264,0.494,0.438,1.024,0.447,1.588c0.007,0.419-0.127,0.812-0.22,1.213
						c1.786-1.062,3.805-1.842,5.896-1.892c2.093-0.05,4.316,0.709,5.724,2.307c1.227,1.392,1.755,3.263,1.933,5.076
						c0.021,0.208,0.035,0.417,0.047,0.626c-0.049,1.046-0.206,2.085-0.455,3.103c-0.438-1.976-1.6-3.767-3.433-4.71
						c-0.846-0.436-1.761-0.789-2.697-0.968c-0.76-0.146-1.714-0.225-2.35,0.31c-0.248,0.208-0.477,0.554-0.443,0.89
						c0.033,0.335,0.322,0.563,0.602,0.706c0.722,0.37,1.55,0.441,2.325,0.64c0.426,0.11,0.848,0.36,1.233,0.608
						c0.469,0.303,0.897,0.666,1.275,1.078c0.734,0.8,1.254,1.779,1.552,2.82c0.266,0.931,0.349,1.902,0.283,2.863
						c-0.464,0.852-1,1.664-1.586,2.44c0.02-1.022-0.23-2.082-0.554-2.969c-0.593-1.627-1.607-3.276-3.102-4.216
						c-0.675-0.425-1.459-0.663-2.26-0.58c-0.322,0.033-0.716,0.116-0.869,0.439c-0.136,0.288,0.01,0.617,0.167,0.864
						c0.462,0.726,1.195,1.234,1.76,1.872c0.766,0.863,1.358,1.888,1.713,2.987c0.549,1.702,0.486,3.529-0.214,5.131
						c-0.279,0.234-0.564,0.46-0.854,0.679c-0.839,0.633-1.727,1.188-2.652,1.676c0.35-0.749,0.523-1.577,0.573-2.405
						c0.053-0.879-0.001-1.784-0.237-2.634c-0.17-0.613-0.374-1.222-0.647-1.797c-0.238-0.5-0.567-1.094-1.101-1.325
						c-0.475-0.206-1.074,0.01-1.281,0.492c-0.251,0.587-0.055,1.34,0.092,1.928c0.171,0.683,0.427,1.348,0.569,2.038
						c0.078,0.38,0.046,0.792,0.015,1.177c-0.039,0.485-0.128,0.965-0.263,1.432c-0.292,1.01-0.811,1.92-1.495,2.686
						c-0.968,0.321-1.955,0.587-2.947,0.816c0.601-1.144,0.878-2.477,0.955-3.743c0.029-0.471-0.011-0.943-0.104-1.406
						c-0.082-0.41-0.22-0.947-0.602-1.185c-0.4-0.249-0.91,0.009-1.15,0.364c-0.319,0.473-0.355,1.139-0.393,1.69
						c-0.042,0.615-0.021,1.236-0.091,1.849c-0.038,0.335-0.174,0.66-0.306,0.968c-0.162,0.38-0.358,0.747-0.58,1.095
						c-0.211,0.331-0.449,0.643-0.706,0.935c-1.056,0.16-2.117,0.273-3.179,0.375c0.096-0.158,0.191-0.317,0.281-0.479
						c0.334-0.602,0.583-1.234,0.751-1.901c0.104-0.411,0.188-0.832,0.221-1.256c0.027-0.339,0.047-0.807-0.214-1.071
						c-0.261-0.264-0.687-0.153-0.931,0.076c-0.325,0.304-0.469,0.788-0.582,1.203c-0.127,0.469-0.202,0.948-0.316,1.42
						c-0.131,0.543-0.422,1.052-0.732,1.511c-0.166,0.246-0.353,0.476-0.553,0.694c-0.831,0.08-1.66,0.169-2.487,0.279
						c0.506-0.744,0.949-1.675,0.737-2.585c-0.023-0.097-0.144-0.171-0.24-0.136c-1.155,0.41-1.665,1.7-2.38,2.596
						c-0.145,0.182-0.3,0.352-0.46,0.516c-2.432,0.506-5.059,1.393-6.773,3.244c-0.009-0.069-0.017-0.136-0.021-0.196
						c-0.06-0.734,0.016-1.479,0.08-2.21C187.109,142.069,187.123,141.713,187.133,141.357z"/>
				</g>
				<g>
					<path style="fill:#5B895D;" d="M249.983,139.229c-0.019-0.015-0.035-0.033-0.054-0.048c-0.654-0.502-1.482-1.04-1.855-1.804
						c-0.152-0.311-0.183-0.665,0.051-0.944c0.191-0.228,0.467-0.313,0.758-0.262c0.389,0.068,0.746,0.303,1.066,0.582
						c-0.001-0.027-0.001-0.054-0.001-0.081c-0.02-0.873-0.054-1.744-0.097-2.614c-0.51-0.713-1.113-1.351-1.815-1.861
						c-0.61-0.444-1.233-0.869-1.82-1.344c-0.516-0.418-1.145-0.92-1.383-1.565c-0.188-0.51,0.113-1.028,0.552-1.305
						c0.43-0.271,0.941-0.186,1.378,0.02c0.567,0.268,1.051,0.721,1.481,1.169c0.506,0.527,0.959,1.104,1.389,1.693
						c-0.081-0.93-0.173-1.859-0.29-2.786c-0.376-0.702-0.819-1.373-1.363-1.997c-0.768-0.882-1.666-1.639-2.603-2.336
						c-0.41-0.305-0.822-0.617-1.255-0.89c-0.363-0.229-0.735-0.443-1.083-0.695c-0.643-0.466-1.158-1.028-1.169-1.864
						c-0.007-0.524,0.298-0.919,0.821-0.996c0.584-0.086,1.203,0.121,1.74,0.329c0.557,0.216,1.094,0.481,1.606,0.789
						c0.87,0.524,1.677,1.175,2.356,1.934c-0.179-0.865-0.369-1.727-0.583-2.584c-0.598-0.92-1.312-1.77-2.125-2.526
						c-0.943-0.876-1.993-1.609-3.113-2.241c-0.612-0.345-1.238-0.664-1.866-0.979c-0.411-0.206-0.849-0.324-1.276-0.49
						c-0.776-0.302-1.577-0.742-1.717-1.64c-0.088-0.567,0.213-1.003,0.752-1.173c0.616-0.195,1.324-0.097,1.947,0.013
						c0.58,0.102,1.163,0.25,1.709,0.473c1.237,0.504,2.453,1.131,3.542,1.922c-0.396-0.964-0.825-1.914-1.3-2.84
						c-0.88-0.934-1.876-1.761-3.011-2.432c-0.684-0.404-1.399-0.757-2.134-1.059c-0.502-0.206-0.992-0.393-1.527-0.483
						c-1.114-0.187-2.238-0.305-3.346-0.534c-0.55-0.114-1.101-0.246-1.625-0.451c-0.398-0.156-0.82-0.349-1.102-0.682
						c-0.489-0.576-0.325-1.546,0.326-1.926c0.77-0.45,1.846-0.275,2.673-0.125c1.032,0.186,2.042,0.495,3.028,0.848
						c1.261,0.452,2.415,1.101,3.513,1.843c-2.835-3.499-6.695-6.267-11.104-7.343c-2.501-0.61-5.344-0.55-7.6,0.81
						c-1.191,0.718-2.175,1.83-2.829,3.053c-0.346,0.647-0.574,1.341-0.585,2.079c-0.008,0.549,0.166,1.064,0.288,1.589
						c-2.339-1.392-4.984-2.413-7.723-2.479c-2.742-0.066-5.653,0.929-7.498,3.022c-1.608,1.824-2.299,4.275-2.532,6.648
						c-0.027,0.272-0.046,0.546-0.061,0.82c0.064,1.37,0.27,2.731,0.597,4.064c0.574-2.588,2.096-4.935,4.496-6.17
						c1.109-0.571,2.306-1.034,3.533-1.268c0.996-0.191,2.245-0.295,3.078,0.406c0.324,0.273,0.624,0.725,0.581,1.166
						c-0.043,0.439-0.421,0.737-0.788,0.925c-0.946,0.485-2.03,0.578-3.046,0.839c-0.559,0.144-1.11,0.471-1.615,0.797
						c-0.615,0.397-1.175,0.872-1.67,1.412c-0.961,1.048-1.643,2.33-2.033,3.694c-0.349,1.219-0.457,2.491-0.371,3.75
						c0.608,1.116,1.31,2.18,2.077,3.196c-0.026-1.339,0.302-2.728,0.725-3.89c0.776-2.131,2.105-4.291,4.063-5.522
						c0.884-0.556,1.911-0.868,2.961-0.759c0.421,0.044,0.939,0.152,1.138,0.575c0.178,0.377-0.014,0.808-0.219,1.131
						c-0.605,0.952-1.565,1.617-2.306,2.452c-1.004,1.131-1.779,2.472-2.243,3.912c-0.72,2.229-0.637,4.623,0.28,6.722
						c0.366,0.306,0.739,0.603,1.119,0.889c1.099,0.829,2.263,1.556,3.473,2.195c-0.458-0.982-0.685-2.065-0.75-3.15
						c-0.07-1.152,0.001-2.337,0.31-3.45c0.223-0.803,0.49-1.6,0.848-2.354c0.311-0.654,0.743-1.432,1.442-1.735
						c0.622-0.27,1.407,0.012,1.678,0.644c0.329,0.769,0.072,1.755-0.121,2.525c-0.224,0.895-0.559,1.766-0.745,2.67
						c-0.103,0.498-0.06,1.038-0.02,1.541c0.051,0.635,0.168,1.264,0.344,1.876c0.382,1.323,1.063,2.514,1.958,3.518
						c1.268,0.42,2.561,0.769,3.861,1.068c-0.788-1.499-1.15-3.244-1.251-4.903c-0.037-0.617,0.014-1.236,0.136-1.842
						c0.108-0.537,0.289-1.241,0.788-1.552c0.524-0.326,1.192,0.011,1.507,0.477c0.419,0.62,0.465,1.491,0.514,2.214
						c0.055,0.805,0.028,1.62,0.119,2.422c0.05,0.439,0.228,0.864,0.401,1.268c0.213,0.498,0.469,0.978,0.76,1.435
						c0.277,0.434,0.588,0.842,0.925,1.225c1.382,0.21,2.772,0.357,4.164,0.491c-0.126-0.207-0.251-0.416-0.368-0.628
						c-0.437-0.789-0.763-1.616-0.984-2.49c-0.136-0.539-0.246-1.09-0.289-1.645c-0.035-0.444-0.061-1.058,0.281-1.403
						c0.342-0.345,0.9-0.2,1.22,0.1c0.425,0.398,0.615,1.032,0.763,1.576c0.167,0.614,0.265,1.242,0.414,1.86
						c0.172,0.711,0.553,1.378,0.959,1.979c0.218,0.322,0.463,0.624,0.724,0.91c1.088,0.105,2.174,0.221,3.257,0.366
						c-0.663-0.975-1.243-2.194-0.966-3.386c0.029-0.127,0.188-0.224,0.314-0.179c1.513,0.537,2.181,2.227,3.117,3.401
						c0.19,0.239,0.393,0.461,0.602,0.676c3.186,0.663,6.627,1.825,8.873,4.249c0.012-0.09,0.022-0.178,0.028-0.257
						c0.078-0.961-0.021-1.937-0.105-2.895C250.013,140.163,249.995,139.696,249.983,139.229z"/>
				</g>
				<g>
					<path style="fill:#A6D17A;" d="M199.081,121.082c0.012-0.014,0.022-0.029,0.035-0.042c0.433-0.457,0.993-0.961,1.183-1.582
						c0.077-0.253,0.059-0.523-0.151-0.706c-0.171-0.149-0.39-0.18-0.602-0.107c-0.285,0.098-0.526,0.317-0.734,0.566
						c-0.003-0.021-0.006-0.041-0.009-0.062c-0.089-0.66-0.167-1.321-0.239-1.982c0.3-0.598,0.678-1.151,1.146-1.619
						c0.407-0.408,0.826-0.802,1.212-1.231c0.339-0.377,0.754-0.831,0.856-1.345c0.081-0.407-0.208-0.762-0.572-0.918
						c-0.357-0.153-0.732-0.028-1.037,0.18c-0.396,0.27-0.706,0.669-0.977,1.058c-0.318,0.458-0.591,0.947-0.845,1.443
						c-0.05-0.711-0.092-1.422-0.114-2.136c0.2-0.574,0.454-1.133,0.789-1.669c0.474-0.757,1.061-1.435,1.684-2.072
						c0.273-0.279,0.546-0.563,0.84-0.821c0.247-0.216,0.501-0.422,0.734-0.653c0.429-0.428,0.75-0.914,0.659-1.545
						c-0.057-0.396-0.334-0.658-0.738-0.653c-0.45,0.005-0.893,0.235-1.273,0.456c-0.394,0.229-0.768,0.493-1.117,0.787
						c-0.593,0.499-1.124,1.086-1.546,1.739c0.032-0.673,0.072-1.346,0.131-2.018c0.341-0.765,0.778-1.491,1.301-2.158
						c0.606-0.773,1.311-1.451,2.079-2.061c0.42-0.333,0.854-0.648,1.29-0.961c0.285-0.204,0.601-0.345,0.904-0.522
						c0.549-0.32,1.1-0.748,1.099-1.442c-0.001-0.438-0.28-0.731-0.707-0.795c-0.488-0.073-1.01,0.085-1.466,0.242
						c-0.425,0.146-0.847,0.327-1.233,0.56c-0.872,0.527-1.715,1.146-2.441,1.873c0.183-0.774,0.393-1.542,0.641-2.296
						c0.552-0.81,1.204-1.552,1.98-2.193c0.467-0.386,0.965-0.738,1.483-1.053c0.354-0.215,0.701-0.415,1.094-0.547
						c0.818-0.274,1.651-0.498,2.459-0.802c0.401-0.151,0.801-0.317,1.171-0.534c0.281-0.165,0.577-0.361,0.75-0.646
						c0.3-0.493,0.06-1.205-0.475-1.413c-0.635-0.247-1.424,0.013-2.031,0.225c-0.755,0.263-1.481,0.617-2.182,1.001
						c-0.897,0.492-1.69,1.119-2.429,1.81c1.72-2.977,4.299-5.525,7.496-6.863c1.813-0.759,3.964-1.053,5.827-0.297
						c0.984,0.399,1.859,1.12,2.498,1.964c0.338,0.447,0.593,0.942,0.69,1.498c0.072,0.413,0.002,0.822-0.027,1.232
						c1.597-1.328,3.47-2.415,5.527-2.791c2.06-0.377,4.374,0.026,6.014,1.383c1.43,1.183,2.244,2.949,2.703,4.711
						c0.053,0.202,0.1,0.406,0.144,0.611c0.116,1.041,0.122,2.091,0.035,3.136c-0.742-1.883-2.17-3.471-4.127-4.116
						c-0.904-0.298-1.863-0.504-2.816-0.534c-0.774-0.025-1.728,0.046-2.272,0.674c-0.212,0.244-0.384,0.621-0.299,0.949
						c0.085,0.326,0.406,0.505,0.705,0.603c0.771,0.253,1.6,0.193,2.397,0.269c0.438,0.042,0.894,0.223,1.313,0.408
						c0.511,0.226,0.99,0.517,1.428,0.865c0.85,0.675,1.517,1.561,1.974,2.543c0.409,0.878,0.642,1.824,0.728,2.784
						c-0.325,0.914-0.728,1.8-1.185,2.658c-0.14-1.013-0.553-2.021-1.011-2.846c-0.84-1.514-2.1-2.984-3.723-3.679
						c-0.733-0.314-1.545-0.426-2.323-0.219c-0.313,0.083-0.689,0.227-0.79,0.57c-0.089,0.306,0.107,0.608,0.3,0.827
						c0.57,0.645,1.374,1.033,2.031,1.573c0.892,0.733,1.637,1.652,2.159,2.682c0.809,1.595,1.033,3.41,0.592,5.102
						c-0.239,0.274-0.485,0.543-0.737,0.804c-0.73,0.757-1.52,1.443-2.357,2.07c0.228-0.795,0.27-1.639,0.189-2.465
						c-0.085-0.877-0.28-1.762-0.646-2.565c-0.264-0.579-0.56-1.148-0.921-1.674c-0.313-0.456-0.731-0.991-1.294-1.136
						c-0.502-0.129-1.06,0.177-1.188,0.686c-0.156,0.619,0.155,1.332,0.393,1.89c0.276,0.648,0.632,1.265,0.881,1.924
						c0.137,0.363,0.169,0.775,0.199,1.16c0.037,0.485,0.024,0.973-0.036,1.456c-0.13,1.043-0.501,2.023-1.057,2.886
						c-0.906,0.468-1.839,0.885-2.783,1.267c0.415-1.224,0.48-2.584,0.358-3.846c-0.045-0.47-0.158-0.93-0.322-1.373
						c-0.145-0.392-0.366-0.901-0.78-1.076c-0.434-0.183-0.898,0.151-1.079,0.54c-0.242,0.518-0.173,1.18-0.124,1.73
						c0.055,0.614,0.172,1.225,0.199,1.84c0.015,0.337-0.069,0.679-0.151,1.004c-0.101,0.401-0.237,0.793-0.402,1.172
						c-0.157,0.36-0.343,0.705-0.551,1.034c-1.017,0.323-2.048,0.6-3.081,0.868c0.07-0.171,0.139-0.343,0.203-0.518
						c0.236-0.647,0.383-1.31,0.444-1.995c0.038-0.423,0.055-0.851,0.022-1.275c-0.027-0.339-0.08-0.805-0.379-1.024
						c-0.299-0.22-0.702-0.043-0.908,0.221c-0.273,0.351-0.34,0.852-0.387,1.28c-0.052,0.482-0.051,0.968-0.09,1.452
						c-0.045,0.556-0.252,1.105-0.486,1.607c-0.126,0.269-0.274,0.526-0.437,0.772c-0.808,0.209-1.613,0.427-2.412,0.665
						c0.384-0.814,0.675-1.803,0.324-2.669c-0.038-0.092-0.168-0.146-0.258-0.097c-1.077,0.586-1.379,1.94-1.944,2.937
						c-0.115,0.203-0.242,0.395-0.374,0.582c-2.323,0.88-4.779,2.167-6.183,4.263c-0.02-0.067-0.038-0.132-0.052-0.19
						c-0.173-0.715-0.215-1.463-0.267-2.195C199.169,121.79,199.127,121.436,199.081,121.082z"/>
				</g>
			</g>
			<g>
				<rect x="130.029" y="231.014" style="fill:#9D9FA2;" width="100.887" height="5.895"/>
				<rect x="125.792" y="158.89" style="fill:#E0E1E2;" width="111.251" height="74.668"/>
				<path style="fill:#A1A3A5;" d="M184.577,225.96H135.78c-3.909,0-7.107-3.198-7.107-7.107v-45.259
					c0-3.909,3.198-7.107,7.107-7.107h48.796c3.909,0,7.107,3.198,7.107,7.107v45.259
					C191.683,222.762,188.485,225.96,184.577,225.96z"/>
				<circle style="fill:#4D4E50;" cx="158.76" cy="196.224" r="26.723"/>
				<circle style="fill:#5F6062;" cx="158.76" cy="196.224" r="22.053"/>
				<path style="fill:#E0E1E2;" d="M167.341,196.224c0,4.739-3.841,8.58-8.58,8.58c-4.739,0-8.58-3.841-8.58-8.58
					c0-4.739,3.842-8.58,8.58-8.58C163.499,187.644,167.341,191.485,167.341,196.224z"/>
				<g>
					<rect x="130.029" y="163.344" style="fill:#E0E1E2;" width="0.859" height="65.76"/>
					<rect x="133.337" y="163.344" style="fill:#E0E1E2;" width="0.859" height="65.76"/>
					<rect x="136.645" y="163.344" style="fill:#E0E1E2;" width="0.859" height="65.76"/>
					<rect x="139.953" y="163.344" style="fill:#E0E1E2;" width="0.859" height="65.76"/>
					<rect x="143.261" y="163.344" style="fill:#E0E1E2;" width="0.859" height="65.76"/>
					<rect x="146.568" y="163.344" style="fill:#E0E1E2;" width="0.859" height="65.76"/>
					<rect x="149.876" y="163.344" style="fill:#E0E1E2;" width="0.859" height="65.76"/>
					<rect x="153.184" y="163.344" style="fill:#E0E1E2;" width="0.859" height="65.76"/>
					<rect x="156.492" y="163.344" style="fill:#E0E1E2;" width="0.859" height="65.76"/>
					<rect x="159.799" y="163.344" style="fill:#E0E1E2;" width="0.859" height="65.76"/>
					<rect x="163.107" y="163.344" style="fill:#E0E1E2;" width="0.859" height="65.76"/>
					<rect x="166.415" y="163.344" style="fill:#E0E1E2;" width="0.859" height="65.76"/>
					<rect x="169.723" y="163.344" style="fill:#E0E1E2;" width="0.859" height="65.76"/>
					<rect x="173.031" y="163.344" style="fill:#E0E1E2;" width="0.859" height="65.76"/>
					<rect x="176.338" y="163.344" style="fill:#E0E1E2;" width="0.859" height="65.76"/>
					<rect x="179.646" y="163.344" style="fill:#E0E1E2;" width="0.859" height="65.76"/>
					<rect x="182.954" y="163.344" style="fill:#E0E1E2;" width="0.859" height="65.76"/>
					<rect x="186.262" y="163.344" style="fill:#E0E1E2;" width="0.859" height="65.76"/>
					<rect x="189.569" y="163.344" style="fill:#E0E1E2;" width="0.859" height="65.76"/>
				</g>
				<g>
					<path style="opacity:0.23;fill:#A1A3A5;" d="M200.851,225.96h-2.617c-1.665,0-3.015-1.35-3.015-3.015v-53.443
						c0-1.665,1.35-3.015,3.015-3.015h2.617c1.665,0,3.014,1.35,3.014,3.015v53.443C203.866,224.611,202.516,225.96,200.851,225.96z
						"/>
					<path style="opacity:0.23;fill:#A1A3A5;" d="M211.113,225.96h-2.617c-1.665,0-3.015-1.35-3.015-3.015v-53.443
						c0-1.665,1.35-3.015,3.015-3.015h2.617c1.665,0,3.015,1.35,3.015,3.015v53.443C214.127,224.611,212.778,225.96,211.113,225.96z
						"/>
					<path style="opacity:0.23;fill:#A1A3A5;" d="M221.374,225.96h-2.616c-1.665,0-3.015-1.35-3.015-3.015v-53.443
						c0-1.665,1.35-3.015,3.015-3.015h2.616c1.665,0,3.015,1.35,3.015,3.015v53.443C224.389,224.611,223.039,225.96,221.374,225.96z
						"/>
					<path style="opacity:0.23;fill:#A1A3A5;" d="M231.635,225.96h-2.617c-1.665,0-3.015-1.35-3.015-3.015v-53.443
						c0-1.665,1.35-3.015,3.015-3.015h2.617c1.665,0,3.015,1.35,3.015,3.015v53.443C234.65,224.611,233.3,225.96,231.635,225.96z"/>
				</g>
			</g>
		</g>
		<g>
			<g>
				<rect x="15.679" y="214.935" style="fill:#3B261D;" width="220.122" height="1.953"/>
				<rect x="15.679" y="218.484" style="fill:#3B261D;" width="220.122" height="1.953"/>
			</g>
			<g>
				<rect x="15.679" y="157.952" style="fill:#3B261D;" width="220.122" height="1.953"/>
				<rect x="15.679" y="161.501" style="fill:#3B261D;" width="220.122" height="1.953"/>
			</g>
			<rect x="136.157" y="139.167" style="fill:#5E4238;" width="4.323" height="95.277"/>
			<rect x="184.898" y="139.167" style="fill:#5E4238;" width="4.323" height="95.277"/>
			<rect x="38.675" y="139.167" style="fill:#5E4238;" width="4.323" height="95.277"/>
			<rect x="87.416" y="139.167" style="fill:#5E4238;" width="4.323" height="95.277"/>
			<rect x="233.64" y="139.167" style="fill:#5E4238;" width="4.323" height="95.277"/>
			<rect x="111.787" y="139.167" style="fill:#5E4238;" width="4.323" height="95.277"/>
			<rect x="160.528" y="139.167" style="fill:#5E4238;" width="4.323" height="95.277"/>
			<rect x="14.304" y="139.167" style="fill:#5E4238;" width="4.323" height="95.277"/>
			<rect x="63.046" y="139.167" style="fill:#5E4238;" width="4.323" height="95.277"/>
			<g>
				<rect x="209.269" y="139.167" style="fill:#5E4238;" width="4.323" height="95.277"/>
			</g>
			<g>
				<rect x="11.131" y="234.444" style="fill:#5E4238;" width="231.108" height="9.109"/>
				<rect x="6.489" y="231.378" style="fill:#986D56;" width="240.956" height="6.131"/>
				<rect x="6.489" y="136.101" style="fill:#986D56;" width="240.956" height="6.131"/>
			</g>
		</g>
	</g>
	<g>
		<g>
			<g>
				<path style="fill:#ABAC98;" d="M379.004,93.104h-18.392l3.467,43.561c0,0.745,6.683,1.35,14.926,1.35
					c8.243,0,14.926-0.604,14.926-1.35l3.467-43.561H379.004z"/>
				<path style="opacity:0.5;fill:#ABAC98;" d="M386.953,93.104c-0.339,3.298-1.187,26.462-1.304,34.736
					c-0.048,3.348-0.117,6.698-0.237,10.045c5.036-0.217,8.517-0.681,8.517-1.219l3.467-43.561H386.953z"/>
				<ellipse style="fill:#54564C;" cx="379.004" cy="93.104" rx="18.392" ry="1.295"/>
			</g>
			<g>
				<polygon style="fill:#507147;" points="381.082,94.379 379.843,14.179 378.534,12.106 378.479,94.379 				"/>
				<g>
					<path style="fill:#5B895D;" d="M357.249,74.939c1.939-0.754,4.043-1.042,6.098-1.27c1.909-0.212,3.842-0.298,5.737-0.627
						c1.063-0.185,2.113-0.493,3.137-0.831c1.328-0.439,2.627-0.993,3.798-1.766c2.198-1.45,4.131-4.081,3.212-6.825
						c-0.822-2.452-3.473-3.962-5.88-4.436c-5.777-1.137-11.981,1.588-15.394,6.301c-1.562,2.157-2.693,4.685-3.32,7.27
						c-0.328,1.349-0.536,2.819-0.43,4.242C354.981,76.047,356.089,75.39,357.249,74.939z"/>
					<path style="fill:#8AB676;" d="M376.785,60.595c-0.588,0.018-1.176,0.049-1.762,0.105c-5.137,0.493-10.156,2.502-14.167,5.759
						c-3.244,2.634-5.989,6.249-6.559,10.443c0.771-0.896,1.834-1.528,2.952-1.963c1.939-0.754,4.043-1.042,6.098-1.27
						c1.909-0.212,3.842-0.298,5.737-0.627c1.063-0.185,2.113-0.493,3.137-0.831c1.328-0.439,2.627-0.993,3.798-1.766
						c2.198-1.45,4.131-4.081,3.212-6.825C378.806,62.356,377.896,61.345,376.785,60.595z"/>
				</g>
				<g>
					<path style="fill:#5B895D;" d="M398.027,86.422c-1.938-0.754-4.042-1.042-6.098-1.271c-1.909-0.212-3.842-0.298-5.736-0.627
						c-1.063-0.185-2.113-0.493-3.137-0.831c-1.328-0.439-2.627-0.993-3.798-1.766c-2.198-1.45-4.131-4.081-3.212-6.825
						c0.822-2.452,3.473-3.962,5.88-4.436c5.776-1.137,11.981,1.588,15.394,6.301c1.562,2.157,2.693,4.685,3.32,7.271
						c0.328,1.349,0.536,2.819,0.431,4.242C400.294,87.529,399.187,86.873,398.027,86.422z"/>
					<path style="fill:#8AB676;" d="M378.491,72.077c0.588,0.018,1.175,0.049,1.762,0.105c5.137,0.493,10.156,2.502,14.167,5.759
						c3.245,2.634,5.989,6.249,6.559,10.443c-0.771-0.896-1.833-1.528-2.952-1.963c-1.938-0.754-4.042-1.042-6.098-1.271
						c-1.909-0.212-3.842-0.298-5.736-0.627c-1.063-0.185-2.113-0.493-3.137-0.831c-1.328-0.439-2.627-0.993-3.798-1.766
						c-2.198-1.45-4.131-4.081-3.212-6.825C376.47,73.838,377.38,72.827,378.491,72.077z"/>
				</g>
				<g>
					<path style="fill:#5B895D;" d="M361.616,52.958c1.653-0.643,3.447-0.889,5.2-1.083c1.628-0.181,3.277-0.254,4.892-0.535
						c0.907-0.158,1.802-0.42,2.675-0.709c1.132-0.374,2.241-0.847,3.239-1.506c1.875-1.237,3.523-3.481,2.74-5.821
						c-0.701-2.091-2.961-3.379-5.015-3.783c-4.926-0.97-10.218,1.355-13.128,5.374c-1.332,1.84-2.296,3.996-2.832,6.2
						c-0.279,1.15-0.457,2.404-0.367,3.618C359.682,53.903,360.627,53.343,361.616,52.958z"/>
					<path style="fill:#8AB676;" d="M378.277,40.725c-0.501,0.015-1.002,0.042-1.503,0.09c-4.381,0.421-8.661,2.134-12.082,4.911
						c-2.767,2.247-5.108,5.329-5.593,8.907c0.658-0.764,1.564-1.303,2.517-1.674c1.653-0.643,3.447-0.889,5.2-1.083
						c1.628-0.181,3.277-0.254,4.892-0.535c0.907-0.158,1.802-0.42,2.675-0.709c1.132-0.374,2.241-0.847,3.239-1.506
						c1.875-1.237,3.523-3.481,2.74-5.821C380.001,42.227,379.224,41.365,378.277,40.725z"/>
				</g>
				<g>
					<path style="fill:#5B895D;" d="M396.392,64.206c-1.653-0.643-3.447-0.888-5.2-1.083c-1.628-0.181-3.277-0.254-4.892-0.535
						c-0.907-0.158-1.802-0.42-2.675-0.709c-1.132-0.374-2.241-0.847-3.239-1.506c-1.874-1.237-3.523-3.48-2.74-5.821
						c0.701-2.091,2.961-3.379,5.015-3.783c4.926-0.97,10.218,1.355,13.128,5.374c1.333,1.84,2.296,3.996,2.832,6.201
						c0.279,1.15,0.457,2.404,0.367,3.618C398.326,65.151,397.382,64.59,396.392,64.206z"/>
					<path style="fill:#8AB676;" d="M379.732,51.972c0.501,0.015,1.002,0.042,1.502,0.09c4.381,0.421,8.661,2.133,12.082,4.911
						c2.767,2.247,5.108,5.329,5.593,8.907c-0.658-0.764-1.564-1.303-2.517-1.674c-1.653-0.643-3.447-0.888-5.2-1.083
						c-1.628-0.181-3.277-0.254-4.892-0.535c-0.907-0.158-1.802-0.42-2.675-0.709c-1.132-0.374-2.241-0.847-3.239-1.506
						c-1.874-1.237-3.523-3.48-2.74-5.821C378.008,53.474,378.784,52.612,379.732,51.972z"/>
				</g>
				<g>
					<path style="fill:#5B895D;" d="M365.431,32.239c1.29-0.502,2.691-0.694,4.059-0.846c1.271-0.141,2.558-0.198,3.819-0.417
						c0.708-0.123,1.407-0.328,2.088-0.553c0.884-0.292,1.749-0.661,2.528-1.175c1.463-0.965,2.75-2.717,2.139-4.544
						c-0.547-1.633-2.312-2.638-3.914-2.953c-3.845-0.757-7.976,1.057-10.248,4.195c-1.04,1.436-1.792,3.119-2.21,4.84
						c-0.218,0.898-0.357,1.876-0.287,2.824C363.921,32.977,364.658,32.54,365.431,32.239z"/>
					<path style="fill:#8AB676;" d="M378.436,22.69c-0.391,0.012-0.783,0.033-1.173,0.07c-3.42,0.328-6.761,1.665-9.431,3.834
						c-2.16,1.754-3.987,4.16-4.366,6.953c0.513-0.596,1.221-1.017,1.965-1.307c1.29-0.502,2.691-0.694,4.059-0.846
						c1.271-0.141,2.558-0.198,3.819-0.417c0.708-0.123,1.407-0.328,2.088-0.553c0.884-0.292,1.749-0.661,2.528-1.175
						c1.463-0.965,2.75-2.717,2.139-4.544C379.782,23.862,379.176,23.189,378.436,22.69z"/>
				</g>
				<g>
					<path style="fill:#5B895D;" d="M392.578,42.162c-1.29-0.502-2.691-0.694-4.06-0.846c-1.271-0.141-2.558-0.198-3.819-0.417
						c-0.708-0.123-1.407-0.328-2.088-0.553c-0.884-0.292-1.749-0.661-2.528-1.176c-1.463-0.965-2.75-2.717-2.138-4.544
						c0.547-1.633,2.312-2.638,3.915-2.953c3.845-0.757,7.976,1.057,10.248,4.195c1.04,1.436,1.793,3.119,2.21,4.84
						c0.218,0.898,0.357,1.876,0.287,2.824C394.087,42.9,393.35,42.462,392.578,42.162z"/>
					<path style="fill:#8AB676;" d="M379.572,32.612c0.391,0.012,0.782,0.033,1.173,0.07c3.42,0.328,6.761,1.665,9.431,3.834
						c2.16,1.754,3.987,4.16,4.366,6.953c-0.513-0.596-1.221-1.017-1.965-1.307c-1.29-0.502-2.691-0.694-4.06-0.846
						c-1.271-0.141-2.558-0.198-3.819-0.417c-0.708-0.123-1.407-0.328-2.088-0.553c-0.884-0.292-1.749-0.661-2.528-1.176
						c-1.463-0.965-2.75-2.717-2.138-4.544C378.226,33.785,378.832,33.112,379.572,32.612z"/>
				</g>
				<g>
					<path style="fill:#5B895D;" d="M392.849,7.575c-1.021,0.936-1.812,2.107-2.553,3.267c-0.689,1.077-1.309,2.207-2.063,3.241
						c-0.423,0.581-0.916,1.117-1.419,1.628c-0.653,0.664-1.366,1.276-2.172,1.748c-1.513,0.886-3.653,1.266-5.021-0.09
						c-1.223-1.212-1.344-3.24-0.918-4.817c1.021-3.784,4.475-6.687,8.293-7.338c1.748-0.298,3.59-0.229,5.319,0.157
						c0.902,0.201,1.841,0.51,2.66,0.991C394.178,6.547,393.46,7.015,392.849,7.575z"/>
					<path style="fill:#8AB676;" d="M378.534,15.019c0.184-0.346,0.375-0.688,0.581-1.021c1.806-2.923,4.483-5.328,7.608-6.765
						c2.528-1.162,5.494-1.737,8.167-0.843c-0.762,0.197-1.452,0.645-2.041,1.185c-1.021,0.936-1.812,2.107-2.553,3.267
						c-0.689,1.077-1.309,2.207-2.063,3.241c-0.423,0.581-0.916,1.117-1.419,1.628c-0.653,0.664-1.366,1.276-2.172,1.748
						c-1.513,0.886-3.653,1.266-5.021-0.09C378.991,16.744,378.655,15.903,378.534,15.019z"/>
				</g>
				<g>
					<path style="fill:#5B895D;" d="M368.928,5.612c0.763,0.699,1.355,1.575,1.909,2.443c0.515,0.806,0.978,1.65,1.542,2.423
						c0.316,0.434,0.685,0.835,1.061,1.217c0.488,0.496,1.021,0.954,1.624,1.307c1.131,0.662,2.731,0.946,3.754-0.068
						c0.914-0.906,1.005-2.422,0.687-3.601c-0.763-2.829-3.345-4.999-6.2-5.486c-1.307-0.223-2.684-0.171-3.976,0.117
						c-0.674,0.15-1.376,0.381-1.988,0.741C367.934,4.844,368.471,5.193,368.928,5.612z"/>
					<path style="fill:#8AB676;" d="M379.63,11.177c-0.137-0.259-0.28-0.514-0.435-0.763c-1.351-2.185-3.351-3.983-5.688-5.057
						c-1.89-0.869-4.107-1.299-6.105-0.63c0.569,0.147,1.086,0.482,1.526,0.886c0.763,0.699,1.355,1.575,1.909,2.443
						c0.515,0.806,0.978,1.65,1.542,2.423c0.316,0.434,0.685,0.835,1.061,1.217c0.488,0.496,1.021,0.954,1.624,1.307
						c1.131,0.662,2.731,0.946,3.754-0.068C379.288,12.467,379.539,11.838,379.63,11.177z"/>
				</g>
			</g>
		</g>
		<g>
			<g>
				<path style="fill:#ABAC98;" d="M340.015,100.015h-15.562l2.933,36.857c0,0.631,5.654,1.142,12.629,1.142
					c6.975,0,12.629-0.511,12.629-1.142l2.933-36.857H340.015z"/>
				<path style="opacity:0.5;fill:#ABAC98;" d="M346.741,100.015c-0.287,2.79-1.004,22.389-1.103,29.39
					c-0.04,2.833-0.099,5.667-0.2,8.499c4.261-0.184,7.207-0.576,7.207-1.032l2.933-36.857H346.741z"/>
				<ellipse style="fill:#54564C;" cx="340.015" cy="100.015" rx="15.562" ry="1.096"/>
			</g>
			<g>
				<polygon style="fill:#507147;" points="341.773,101.094 340.725,33.236 339.617,31.482 339.571,101.094 				"/>
				<g>
					<path style="fill:#5B895D;" d="M321.608,84.646c1.64-0.638,3.42-0.882,5.159-1.075c1.615-0.179,3.251-0.252,4.854-0.531
						c0.9-0.156,1.788-0.417,2.654-0.703c1.123-0.371,2.223-0.84,3.213-1.494c1.86-1.227,3.496-3.453,2.718-5.775
						c-0.695-2.075-2.938-3.352-4.975-3.753c-4.888-0.962-10.137,1.344-13.025,5.332c-1.322,1.825-2.278,3.964-2.809,6.152
						c-0.277,1.141-0.453,2.385-0.364,3.59C319.689,85.583,320.627,85.028,321.608,84.646z"/>
					<path style="fill:#8AB676;" d="M338.137,72.509c-0.497,0.015-0.994,0.041-1.491,0.089c-4.347,0.417-8.593,2.117-11.987,4.872
						c-2.745,2.229-5.067,5.287-5.549,8.836c0.652-0.758,1.551-1.293,2.497-1.661c1.64-0.638,3.42-0.882,5.159-1.075
						c1.615-0.179,3.251-0.252,4.854-0.531c0.9-0.156,1.788-0.417,2.654-0.703c1.123-0.371,2.223-0.84,3.213-1.494
						c1.86-1.227,3.496-3.453,2.718-5.775C339.848,73.999,339.077,73.144,338.137,72.509z"/>
				</g>
				<g>
					<path style="fill:#5B895D;" d="M356.11,94.361c-1.64-0.638-3.42-0.882-5.159-1.075c-1.615-0.18-3.251-0.252-4.854-0.53
						c-0.9-0.156-1.788-0.417-2.654-0.703c-1.123-0.371-2.223-0.84-3.213-1.494c-1.86-1.227-3.496-3.453-2.718-5.775
						c0.695-2.075,2.938-3.353,4.975-3.754c4.887-0.962,10.137,1.344,13.025,5.332c1.322,1.826,2.278,3.964,2.809,6.152
						c0.277,1.141,0.453,2.385,0.364,3.589C358.029,95.299,357.092,94.743,356.11,94.361z"/>
					<path style="fill:#8AB676;" d="M339.581,82.224c0.497,0.015,0.995,0.041,1.491,0.089c4.347,0.417,8.593,2.117,11.987,4.872
						c2.745,2.229,5.067,5.287,5.549,8.836c-0.652-0.758-1.551-1.293-2.497-1.661c-1.64-0.638-3.42-0.882-5.159-1.075
						c-1.615-0.18-3.251-0.252-4.854-0.53c-0.9-0.156-1.788-0.417-2.654-0.703c-1.123-0.371-2.223-0.84-3.213-1.494
						c-1.86-1.227-3.496-3.453-2.718-5.775C337.871,83.715,338.641,82.859,339.581,82.224z"/>
				</g>
				<g>
					<path style="fill:#5B895D;" d="M325.303,66.048c1.399-0.544,2.917-0.752,4.4-0.917c1.378-0.153,2.773-0.215,4.139-0.452
						c0.767-0.133,1.525-0.356,2.263-0.6c0.958-0.317,1.896-0.717,2.74-1.274c1.586-1.046,2.981-2.945,2.318-4.925
						c-0.593-1.77-2.506-2.859-4.243-3.201c-4.168-0.82-8.645,1.146-11.108,4.547c-1.127,1.557-1.943,3.381-2.396,5.246
						c-0.236,0.973-0.387,2.034-0.311,3.061C323.666,66.847,324.466,66.373,325.303,66.048z"/>
					<path style="fill:#8AB676;" d="M339.4,55.697c-0.424,0.013-0.848,0.035-1.271,0.076c-3.707,0.356-7.328,1.805-10.223,4.155
						c-2.341,1.901-4.322,4.509-4.732,7.536c0.556-0.646,1.323-1.103,2.13-1.417c1.399-0.544,2.917-0.752,4.4-0.917
						c1.378-0.153,2.773-0.215,4.139-0.452c0.767-0.133,1.525-0.356,2.263-0.6c0.958-0.317,1.896-0.717,2.74-1.274
						c1.586-1.046,2.981-2.945,2.318-4.925C340.858,56.968,340.201,56.238,339.4,55.697z"/>
				</g>
				<g>
					<path style="fill:#5B895D;" d="M354.728,75.564c-1.399-0.544-2.917-0.752-4.4-0.917c-1.377-0.153-2.773-0.215-4.139-0.452
						c-0.767-0.133-1.525-0.356-2.263-0.6c-0.958-0.317-1.896-0.717-2.74-1.274c-1.586-1.046-2.981-2.945-2.318-4.925
						c0.593-1.77,2.506-2.859,4.243-3.201c4.168-0.82,8.645,1.146,11.108,4.547c1.127,1.557,1.943,3.381,2.396,5.246
						c0.236,0.973,0.386,2.034,0.311,3.061C356.364,76.364,355.565,75.89,354.728,75.564z"/>
					<path style="fill:#8AB676;" d="M340.631,65.214c0.424,0.013,0.848,0.035,1.271,0.076c3.707,0.356,7.328,1.805,10.223,4.156
						c2.341,1.901,4.322,4.509,4.733,7.536c-0.556-0.646-1.323-1.103-2.13-1.416c-1.399-0.544-2.917-0.752-4.4-0.917
						c-1.377-0.153-2.773-0.215-4.139-0.452c-0.767-0.133-1.525-0.356-2.263-0.6c-0.958-0.317-1.896-0.717-2.74-1.274
						c-1.586-1.046-2.981-2.945-2.318-4.925C339.172,66.485,339.829,65.755,340.631,65.214z"/>
				</g>
				<g>
					<path style="fill:#5B895D;" d="M328.53,48.517c1.092-0.425,2.277-0.587,3.435-0.716c1.075-0.12,2.164-0.168,3.231-0.353
						c0.599-0.104,1.19-0.278,1.767-0.468c0.748-0.247,1.48-0.56,2.139-0.995c1.238-0.817,2.327-2.299,1.809-3.844
						c-0.463-1.381-1.956-2.232-3.312-2.499c-3.254-0.64-6.749,0.895-8.671,3.549c-0.88,1.215-1.517,2.639-1.87,4.095
						c-0.184,0.76-0.302,1.588-0.242,2.389C327.253,49.141,327.877,48.771,328.53,48.517z"/>
					<path style="fill:#8AB676;" d="M339.535,40.437c-0.331,0.01-0.662,0.028-0.992,0.059c-2.894,0.278-5.72,1.409-7.98,3.244
						c-1.827,1.484-3.374,3.52-3.694,5.883c0.435-0.504,1.033-0.861,1.663-1.106c1.092-0.425,2.277-0.587,3.435-0.716
						c1.075-0.12,2.164-0.168,3.231-0.353c0.599-0.104,1.19-0.278,1.767-0.468c0.748-0.247,1.48-0.56,2.139-0.995
						c1.238-0.817,2.327-2.299,1.809-3.844C340.673,41.43,340.16,40.86,339.535,40.437z"/>
				</g>
				<g>
					<path style="fill:#5B895D;" d="M351.5,56.913c-1.092-0.425-2.277-0.587-3.435-0.716c-1.075-0.119-2.164-0.168-3.231-0.353
						c-0.599-0.104-1.19-0.278-1.767-0.468c-0.748-0.247-1.48-0.56-2.139-0.994c-1.238-0.817-2.327-2.299-1.81-3.845
						c0.463-1.381,1.956-2.232,3.312-2.499c3.254-0.641,6.749,0.895,8.671,3.549c0.88,1.215,1.517,2.639,1.87,4.095
						c0.185,0.76,0.302,1.588,0.243,2.39C352.777,57.537,352.153,57.167,351.5,56.913z"/>
					<path style="fill:#8AB676;" d="M340.496,48.833c0.331,0.01,0.662,0.028,0.992,0.059c2.894,0.278,5.72,1.409,7.98,3.244
						c1.828,1.484,3.374,3.52,3.694,5.883c-0.434-0.504-1.033-0.861-1.663-1.106c-1.092-0.425-2.277-0.587-3.435-0.716
						c-1.075-0.119-2.164-0.168-3.231-0.353c-0.599-0.104-1.19-0.278-1.767-0.468c-0.748-0.247-1.48-0.56-2.139-0.994
						c-1.238-0.817-2.327-2.299-1.81-3.845C339.357,49.825,339.87,49.256,340.496,48.833z"/>
				</g>
				<g>
					<path style="fill:#5B895D;" d="M351.729,27.649c-0.864,0.792-1.533,1.783-2.16,2.764c-0.583,0.911-1.107,1.867-1.745,2.742
						c-0.358,0.491-0.775,0.945-1.201,1.378c-0.552,0.561-1.156,1.08-1.838,1.479c-1.28,0.749-3.091,1.071-4.248-0.076
						c-1.034-1.026-1.137-2.741-0.777-4.076c0.864-3.201,3.786-5.658,7.017-6.208c1.479-0.252,3.038-0.194,4.5,0.133
						c0.763,0.17,1.557,0.431,2.25,0.839C352.854,26.779,352.246,27.175,351.729,27.649z"/>
					<path style="fill:#8AB676;" d="M339.617,33.947c0.155-0.293,0.317-0.582,0.492-0.864c1.529-2.473,3.793-4.508,6.438-5.724
						c2.139-0.983,4.649-1.47,6.91-0.713c-0.645,0.167-1.229,0.546-1.727,1.003c-0.864,0.792-1.533,1.783-2.16,2.764
						c-0.583,0.911-1.107,1.867-1.745,2.742c-0.358,0.491-0.775,0.945-1.201,1.378c-0.552,0.561-1.156,1.08-1.838,1.479
						c-1.28,0.749-3.091,1.071-4.248-0.076C340.004,35.407,339.719,34.695,339.617,33.947z"/>
				</g>
				<g>
					<path style="fill:#5B895D;" d="M331.49,25.988c0.646,0.592,1.146,1.333,1.615,2.067c0.436,0.681,0.828,1.396,1.305,2.05
						c0.268,0.367,0.58,0.707,0.898,1.03c0.413,0.42,0.864,0.807,1.374,1.106c0.957,0.56,2.311,0.801,3.176-0.057
						c0.773-0.767,0.85-2.049,0.581-3.047c-0.646-2.394-2.83-4.23-5.246-4.642c-1.106-0.188-2.271-0.145-3.364,0.099
						c-0.57,0.127-1.164,0.322-1.682,0.627C330.649,25.338,331.103,25.634,331.49,25.988z"/>
					<path style="fill:#8AB676;" d="M340.544,30.696c-0.116-0.219-0.237-0.435-0.368-0.646c-1.143-1.849-2.835-3.37-4.813-4.279
						c-1.599-0.735-3.475-1.099-5.166-0.533c0.482,0.125,0.919,0.408,1.291,0.75c0.646,0.592,1.146,1.333,1.615,2.067
						c0.436,0.681,0.828,1.396,1.305,2.05c0.268,0.367,0.58,0.707,0.898,1.03c0.413,0.42,0.864,0.807,1.374,1.106
						c0.957,0.56,2.311,0.801,3.176-0.057C340.255,31.788,340.468,31.256,340.544,30.696z"/>
				</g>
			</g>
		</g>
		<g>
			<rect x="278.006" y="235.395" style="fill:#9D9FA2;" width="139.622" height="8.158"/>
			<rect x="272.141" y="135.58" style="fill:#E0E1E2;" width="153.965" height="103.337"/>
			<path style="fill:#A1A3A5;" d="M353.496,228.401h-67.531c-5.409,0-9.835-4.426-9.835-9.835V155.93
				c0-5.409,4.426-9.835,9.835-9.835h67.531c5.409,0,9.835,4.426,9.835,9.835v62.636
				C363.331,223.976,358.905,228.401,353.496,228.401z"/>
			
				<ellipse transform="matrix(0.2298 -0.9732 0.9732 0.2298 62.5206 453.4942)" style="fill:#4D4E50;" cx="317.768" cy="187.248" rx="36.984" ry="36.984"/>
			
				<ellipse transform="matrix(0.3827 -0.9239 0.9239 0.3827 23.1684 409.1701)" style="fill:#5F6062;" cx="317.767" cy="187.248" rx="30.521" ry="30.521"/>
			<path style="fill:#E0E1E2;" d="M329.642,187.248c0,6.558-5.316,11.875-11.875,11.875c-6.558,0-11.875-5.316-11.875-11.875
				c0-6.558,5.316-11.874,11.875-11.874C324.326,175.374,329.642,180.69,329.642,187.248z"/>
			<g>
				<rect x="278.006" y="141.744" style="fill:#E0E1E2;" width="1.189" height="91.009"/>
				<rect x="282.583" y="141.744" style="fill:#E0E1E2;" width="1.189" height="91.009"/>
				<rect x="287.161" y="141.744" style="fill:#E0E1E2;" width="1.189" height="91.009"/>
				<rect x="291.739" y="141.744" style="fill:#E0E1E2;" width="1.189" height="91.009"/>
				<rect x="296.317" y="141.744" style="fill:#E0E1E2;" width="1.189" height="91.009"/>
				<rect x="300.894" y="141.744" style="fill:#E0E1E2;" width="1.189" height="91.009"/>
				<rect x="305.472" y="141.744" style="fill:#E0E1E2;" width="1.189" height="91.009"/>
				<rect x="310.05" y="141.744" style="fill:#E0E1E2;" width="1.189" height="91.009"/>
				<rect x="314.628" y="141.744" style="fill:#E0E1E2;" width="1.189" height="91.009"/>
				<rect x="319.206" y="141.744" style="fill:#E0E1E2;" width="1.189" height="91.009"/>
				<rect x="323.783" y="141.744" style="fill:#E0E1E2;" width="1.189" height="91.009"/>
				<rect x="328.361" y="141.744" style="fill:#E0E1E2;" width="1.189" height="91.009"/>
				<rect x="332.939" y="141.744" style="fill:#E0E1E2;" width="1.189" height="91.009"/>
				<rect x="337.517" y="141.744" style="fill:#E0E1E2;" width="1.189" height="91.009"/>
				<rect x="342.094" y="141.744" style="fill:#E0E1E2;" width="1.189" height="91.009"/>
				<rect x="346.672" y="141.744" style="fill:#E0E1E2;" width="1.189" height="91.009"/>
				<rect x="351.25" y="141.744" style="fill:#E0E1E2;" width="1.189" height="91.009"/>
				<rect x="355.828" y="141.744" style="fill:#E0E1E2;" width="1.189" height="91.009"/>
				<rect x="360.405" y="141.744" style="fill:#E0E1E2;" width="1.189" height="91.009"/>
			</g>
			<g>
				<path style="opacity:0.23;fill:#A1A3A5;" d="M376.019,228.401h-3.621c-2.304,0-4.172-1.868-4.172-4.172v-73.962
					c0-2.304,1.868-4.172,4.172-4.172h3.621c2.304,0,4.172,1.868,4.172,4.172v73.962
					C380.191,226.533,378.323,228.401,376.019,228.401z"/>
				<path style="opacity:0.23;fill:#A1A3A5;" d="M390.22,228.401h-3.621c-2.304,0-4.172-1.868-4.172-4.172v-73.962
					c0-2.304,1.868-4.172,4.172-4.172h3.621c2.304,0,4.172,1.868,4.172,4.172v73.962
					C394.392,226.533,392.524,228.401,390.22,228.401z"/>
				<path style="opacity:0.23;fill:#A1A3A5;" d="M404.421,228.401H400.8c-2.304,0-4.172-1.868-4.172-4.172v-73.962
					c0-2.304,1.868-4.172,4.172-4.172h3.621c2.304,0,4.172,1.868,4.172,4.172v73.962
					C408.593,226.533,406.725,228.401,404.421,228.401z"/>
				<path style="opacity:0.23;fill:#A1A3A5;" d="M418.622,228.401h-3.621c-2.304,0-4.172-1.868-4.172-4.172v-73.962
					c0-2.304,1.868-4.172,4.172-4.172h3.621c2.304,0,4.172,1.868,4.172,4.172v73.962
					C422.795,226.533,420.927,228.401,418.622,228.401z"/>
			</g>
		</g>
	</g>
</g>
</svg>
