<svg width="47" height="46" viewBox="0 0 47 46" fill="none" xmlns="http://www.w3.org/2000/svg">
<path d="M18.9416 20.2378H23.7616C24.2729 20.2378 24.7633 20.0347 25.1249 19.6731C25.4864 19.3116 25.6896 18.8212 25.6896 18.3098C25.6896 17.7985 25.4864 17.3081 25.1249 16.9466C24.7633 16.585 24.2729 16.3819 23.7616 16.3819H21.8336V15.4179C21.8336 14.9065 21.6305 14.4161 21.2689 14.0546C20.9073 13.693 20.4169 13.4899 19.9056 13.4899C19.3943 13.4899 18.9039 13.693 18.5423 14.0546C18.1807 14.4161 17.9776 14.9065 17.9776 15.4179V16.4783C16.8062 16.7161 15.765 17.3807 15.056 18.3431C14.3471 19.3055 14.0211 20.497 14.1412 21.6862C14.2613 22.8755 14.8191 23.9777 15.7061 24.7788C16.5932 25.58 17.7463 26.023 18.9416 26.0218H20.8696C21.1253 26.0218 21.3704 26.1233 21.5512 26.3041C21.732 26.4849 21.8336 26.7301 21.8336 26.9858C21.8336 27.2414 21.732 27.4866 21.5512 27.6674C21.3704 27.8482 21.1253 27.9498 20.8696 27.9498H16.0496C15.5383 27.9498 15.0479 28.1529 14.6863 28.5145C14.3248 28.876 14.1216 29.3664 14.1216 29.8778C14.1216 30.3891 14.3248 30.8795 14.6863 31.2411C15.0479 31.6026 15.5383 31.8057 16.0496 31.8057H17.9776V32.7697C17.9776 33.2811 18.1807 33.7715 18.5423 34.133C18.9039 34.4946 19.3943 34.6977 19.9056 34.6977C20.4169 34.6977 20.9073 34.4946 21.2689 34.133C21.6305 33.7715 21.8336 33.2811 21.8336 32.7697V31.7093C23.005 31.4715 24.0462 30.8069 24.7551 29.8445C25.4641 28.8821 25.7901 27.6906 25.67 26.5014C25.5499 25.3121 24.9921 24.2099 24.1051 23.4088C23.218 22.6076 22.0649 22.1646 20.8696 22.1658H18.9416C18.6859 22.1658 18.4407 22.0643 18.26 21.8835C18.0792 21.7027 17.9776 21.4575 17.9776 21.2018C17.9776 20.9462 18.0792 20.701 18.26 20.5202C18.4407 20.3394 18.6859 20.2378 18.9416 20.2378ZM41.1134 23.1298H35.3295V5.77793C35.3308 5.4382 35.2424 5.10415 35.0731 4.8096C34.9038 4.51504 34.6597 4.27045 34.3655 4.10059C34.0724 3.93137 33.7399 3.84229 33.4015 3.84229C33.0631 3.84229 32.7306 3.93137 32.4375 4.10059L26.6535 7.41672L20.8696 4.10059C20.5765 3.93137 20.244 3.84229 19.9056 3.84229C19.5672 3.84229 19.2347 3.93137 18.9416 4.10059L13.1576 7.41672L7.37368 4.10059C7.08059 3.93137 6.74812 3.84229 6.40969 3.84229C6.07126 3.84229 5.73879 3.93137 5.4457 4.10059C5.15148 4.27045 4.90737 4.51504 4.73808 4.8096C4.5688 5.10415 4.48036 5.4382 4.4817 5.77793V36.6257C4.4817 38.1597 5.09108 39.6309 6.17579 40.7156C7.26049 41.8003 8.73166 42.4097 10.2657 42.4097H37.2575C38.7915 42.4097 40.2626 41.8003 41.3473 40.7156C42.432 39.6309 43.0414 38.1597 43.0414 36.6257V25.0578C43.0414 24.5465 42.8383 24.0561 42.4767 23.6945C42.1152 23.3329 41.6248 23.1298 41.1134 23.1298ZM10.2657 38.5537C9.75433 38.5537 9.26394 38.3506 8.90237 37.989C8.5408 37.6274 8.33768 37.137 8.33768 36.6257V9.11335L12.1936 11.3113C12.4912 11.4667 12.8219 11.5478 13.1576 11.5478C13.4933 11.5478 13.8241 11.4667 14.1216 11.3113L19.9056 7.99512L25.6896 11.3113C25.9871 11.4667 26.3178 11.5478 26.6535 11.5478C26.9892 11.5478 27.32 11.4667 27.6175 11.3113L31.4735 9.11335V36.6257C31.4787 37.2834 31.5961 37.9354 31.8205 38.5537H10.2657ZM39.1855 36.6257C39.1855 37.137 38.9823 37.6274 38.6208 37.989C38.2592 38.3506 37.7688 38.5537 37.2575 38.5537C36.7461 38.5537 36.2557 38.3506 35.8942 37.989C35.5326 37.6274 35.3295 37.137 35.3295 36.6257V26.9858H39.1855V36.6257Z" fill="#5EB67C"/>
</svg>
