<svg width="24" height="36" viewBox="0 0 24 36" fill="none" xmlns="http://www.w3.org/2000/svg">
<path d="M8.13448 23.3201H14.6504V19.7113C19.8131 18.5083 23.5222 14.4484 23.5222 9.93734C23.5222 4.27347 18.9109 0.113281 12.2445 0.113281C7.28239 0.113281 3.32269 2.31868 0.465698 5.52654L4.67601 9.8371C6.27993 8.03268 8.53546 6.72948 10.9915 6.72948C14.049 6.72948 16.0037 8.5339 16.0037 10.6391C16.0037 13.0449 12.7458 14.8995 8.13448 15.1V23.3201ZM11.3925 35.7505C13.8485 35.7505 15.8534 33.6454 15.8534 31.0891C15.8534 28.7334 13.8485 26.6282 11.3925 26.6282C8.78607 26.6282 6.73104 28.7334 6.73104 31.0891C6.73104 33.6454 8.78607 35.7505 11.3925 35.7505Z" fill="white"/>
</svg>
