<svg width="24" height="29" viewBox="0 0 24 29" fill="none" xmlns="http://www.w3.org/2000/svg">
<path d="M12.0612 10.3812L9.73682 12.4667C10.042 13.5192 10.4713 14.5316 11.0157 15.4825C11.5823 16.427 12.2639 17.2974 13.0449 18.074L16.0551 17.1464C17.7415 16.6265 19.5825 17.1605 20.7039 18.4956L22.4184 20.5361C23.1126 21.3552 23.4606 22.4125 23.3887 23.4838C23.3168 24.5551 22.8307 25.5563 22.0334 26.2754C19.2368 28.8275 14.9309 29.6903 11.7071 27.158C8.87375 24.927 6.47642 22.1924 4.63551 19.0914C2.79055 16.005 1.55584 12.5929 0.998537 9.04056C0.380196 5.04383 3.30607 1.84532 6.95428 0.754793C9.12972 0.102724 11.4513 1.22136 12.2495 3.30685L13.1911 5.76617C13.8094 7.38509 13.3654 9.21201 12.0612 10.3812Z" fill="white"/>
</svg>
