<svg width="44" height="45" viewBox="0 0 44 45" fill="none" xmlns="http://www.w3.org/2000/svg">
<path d="M32.4536 4.83843C31.8532 4.83843 31.2774 4.60512 30.8529 4.18982C30.4284 3.77452 30.1899 3.21125 30.1899 2.62393C30.1899 2.0366 30.4284 1.47334 30.8529 1.05804C31.2774 0.642737 31.8532 0.409424 32.4536 0.409424H41.5084C42.1088 0.409424 42.6846 0.642737 43.1091 1.05804C43.5337 1.47334 43.7722 2.0366 43.7722 2.62393V11.4819C43.7722 12.0693 43.5337 12.6325 43.1091 13.0478C42.6846 13.4631 42.1088 13.6964 41.5084 13.6964C40.9081 13.6964 40.3323 13.4631 39.9077 13.0478C39.4832 12.6325 39.2447 12.0693 39.2447 11.4819V7.96973L26.131 20.7983C25.7065 21.2135 25.1308 21.4467 24.5306 21.4467C23.9303 21.4467 23.3547 21.2135 22.9301 20.7983L16.6076 14.6132L4.62575 26.3346C4.19881 26.738 3.62699 26.9612 3.03346 26.9562C2.43992 26.9511 1.87215 26.7182 1.45244 26.3076C1.03273 25.897 0.794657 25.3416 0.789499 24.761C0.784342 24.1803 1.01251 23.621 1.42486 23.2033L15.0071 9.91628C15.4317 9.50113 16.0073 9.26791 16.6076 9.26791C17.2078 9.26791 17.7835 9.50113 18.208 9.91628L24.5306 16.1014L36.0438 4.83843H32.4536ZM5.28902 35.8415V42.485C5.28902 43.0723 5.05053 43.6356 4.626 44.0509C4.20147 44.4662 3.62568 44.6995 3.02531 44.6995C2.42494 44.6995 1.84915 44.4662 1.42462 44.0509C1.00009 43.6356 0.761597 43.0723 0.761597 42.485V35.8415C0.761597 35.2541 1.00009 34.6909 1.42462 34.2756C1.84915 33.8603 2.42494 33.627 3.02531 33.627C3.62568 33.627 4.20147 33.8603 4.626 34.2756C5.05053 34.6909 5.28902 35.2541 5.28902 35.8415ZM16.6076 26.9835C16.6076 26.3961 16.3691 25.8329 15.9446 25.4176C15.52 25.0023 14.9443 24.7689 14.3439 24.7689C13.7435 24.7689 13.1677 25.0023 12.7432 25.4176C12.3187 25.8329 12.0802 26.3961 12.0802 26.9835V42.485C12.0802 43.0723 12.3187 43.6356 12.7432 44.0509C13.1677 44.4662 13.7435 44.6995 14.3439 44.6995C14.9443 44.6995 15.52 44.4662 15.9446 44.0509C16.3691 43.6356 16.6076 43.0723 16.6076 42.485V26.9835ZM25.6624 29.198C26.2628 29.198 26.8386 29.4313 27.2631 29.8466C27.6877 30.2619 27.9262 30.8251 27.9262 31.4125V42.485C27.9262 43.0723 27.6877 43.6356 27.2631 44.0509C26.8386 44.4662 26.2628 44.6995 25.6624 44.6995C25.0621 44.6995 24.4863 44.4662 24.0618 44.0509C23.6372 43.6356 23.3987 43.0723 23.3987 42.485V31.4125C23.3987 30.8251 23.6372 30.2619 24.0618 29.8466C24.4863 29.4313 25.0621 29.198 25.6624 29.198ZM39.2447 20.3399C39.2447 19.7526 39.0062 19.1894 38.5817 18.7741C38.1572 18.3588 37.5814 18.1254 36.981 18.1254C36.3806 18.1254 35.8049 18.3588 35.3803 18.7741C34.9558 19.1894 34.7173 19.7526 34.7173 20.3399V42.485C34.7173 43.0723 34.9558 43.6356 35.3803 44.0509C35.8049 44.4662 36.3806 44.6995 36.981 44.6995C37.5814 44.6995 38.1572 44.4662 38.5817 44.0509C39.0062 43.6356 39.2447 43.0723 39.2447 42.485V20.3399Z" fill="#D6182B"/>
</svg>
