<svg width="32" height="29" viewBox="0 0 32 29" fill="none" xmlns="http://www.w3.org/2000/svg">
<path d="M4.03259 19.3396V7.3805L17.1998 14.3252C17.3498 14.4134 17.5207 14.46 17.6946 14.46C17.8686 14.46 18.0395 14.4134 18.1894 14.3252L31.3586 7.3805V19.3396C31.3586 20.6337 30.8445 21.8749 29.9294 22.79C29.0143 23.7051 27.7732 24.2192 26.479 24.2192H8.91225C7.61808 24.2192 6.37692 23.7051 5.46181 22.79C4.5467 21.8749 4.03259 20.6337 4.03259 19.3396ZM4.06187 5.13586C4.19491 3.94258 4.76322 2.84023 5.65809 2.0397C6.55297 1.23918 7.71157 0.796686 8.91225 0.796875H26.479C27.6797 0.796686 28.8383 1.23918 29.7331 2.0397C30.628 2.84023 31.1963 3.94258 31.3294 5.13586L17.6956 12.3519L4.06187 5.13586Z" fill="white"/>
</svg>
