<svg width="436" height="186" viewBox="0 0 436 186" fill="none" xmlns="http://www.w3.org/2000/svg">
<path opacity="0.5" d="M13.7521 61.337C6.38411 61.337 0.412109 67.31 0.412109 74.677C0.412109 82.044 6.38511 88.017 13.7521 88.017C21.1191 88.017 27.0921 82.044 27.0921 74.677C27.0921 67.31 21.1201 61.337 13.7521 61.337ZM195.073 32.615C187.705 32.615 181.733 38.588 181.733 45.955C181.733 53.322 187.706 59.295 195.073 59.295C202.44 59.295 208.413 53.322 208.413 45.955C208.413 38.588 202.44 32.615 195.073 32.615ZM427.435 168.782C426.328 168.782 425.232 169 424.209 169.424C423.186 169.847 422.257 170.468 421.474 171.251C420.691 172.034 420.07 172.963 419.647 173.986C419.223 175.009 419.005 176.105 419.005 177.212C419.005 179.448 419.893 181.592 421.474 183.173C423.055 184.754 425.199 185.642 427.435 185.642C429.671 185.642 431.815 184.754 433.396 183.173C434.977 181.592 435.865 179.448 435.865 177.212C435.865 176.105 435.647 175.009 435.223 173.986C434.8 172.963 434.179 172.034 433.396 171.251C432.613 170.468 431.684 169.847 430.661 169.424C429.638 169 428.542 168.782 427.435 168.782ZM80.9991 121.14C79.1764 121.14 77.4284 121.864 76.1395 123.153C74.8507 124.442 74.1266 126.19 74.1266 128.012C74.1266 129.835 74.8507 131.583 76.1395 132.872C77.4284 134.161 79.1764 134.885 80.9991 134.885C82.8218 134.885 84.5699 134.161 85.8587 132.872C87.1475 131.583 87.8716 129.835 87.8716 128.012C87.8716 126.19 87.1475 124.442 85.8587 123.153C84.5699 121.864 82.8218 121.14 80.9991 121.14Z" fill="white"/>
<path opacity="0.5" d="M114.625 52.8273C114.625 54.65 113.901 56.3981 112.612 57.6869C111.323 58.9758 109.575 59.6998 107.752 59.6998C105.93 59.6998 104.182 58.9758 102.893 57.6869C101.604 56.3981 100.88 54.65 100.88 52.8273C100.88 51.0046 101.604 49.2566 102.893 47.9677C104.182 46.6789 105.93 45.9548 107.752 45.9548C109.575 45.9548 111.323 46.6789 112.612 47.9677C113.901 49.2566 114.625 51.0046 114.625 52.8273ZM311.235 48.3433C309.412 48.3433 307.664 49.0674 306.375 50.3562C305.086 51.6451 304.362 53.3931 304.362 55.2158C304.362 57.0385 305.086 58.7866 306.375 60.0754C307.664 61.3643 309.412 62.0883 311.235 62.0883C313.058 62.0883 314.806 61.3643 316.094 60.0754C317.383 58.7866 318.107 57.0385 318.107 55.2158C318.107 53.3931 317.383 51.6451 316.094 50.3562C314.806 49.0674 313.058 48.3433 311.235 48.3433ZM210.111 129.339L206.649 136.354C206.478 136.701 206.226 137 205.913 137.227C205.601 137.454 205.238 137.601 204.856 137.656L197.114 138.781C195.161 139.065 194.382 141.464 195.795 142.842L201.397 148.302C201.958 148.849 202.214 149.637 202.082 150.409L200.76 158.119C200.426 160.064 202.468 161.547 204.214 160.629L211.138 156.989C211.48 156.81 211.86 156.716 212.246 156.716C212.632 156.716 213.012 156.81 213.354 156.989L220.278 160.629C222.025 161.547 224.066 160.064 223.732 158.119L222.41 150.409C222.345 150.029 222.373 149.638 222.493 149.271C222.612 148.904 222.819 148.572 223.095 148.302L228.697 142.842C230.11 141.465 229.33 139.065 227.378 138.781L219.636 137.656C219.254 137.601 218.891 137.453 218.579 137.226C218.267 137 218.014 136.7 217.843 136.354L214.381 129.339C213.507 127.569 210.984 127.569 210.111 129.339ZM304.151 116.884C298.005 116.884 293.024 121.866 293.024 128.011C293.024 134.156 298.006 139.138 304.151 139.138C310.296 139.138 315.278 134.156 315.278 128.011C315.278 121.866 310.296 116.884 304.151 116.884Z" fill="white"/>
<path d="M51.5686 25.3353C57.5823 25.3353 62.4575 20.5472 62.4575 14.6409C62.4575 8.73448 57.5823 3.94641 51.5686 3.94641C45.5548 3.94641 40.6797 8.73448 40.6797 14.6409C40.6797 20.5472 45.5548 25.3353 51.5686 25.3353Z" fill="#BFCEDE"/>
<path d="M81.1243 46.7242C86.279 46.7242 90.4577 42.6201 90.4577 37.5575C90.4577 32.4949 86.279 28.3909 81.1243 28.3909C75.9697 28.3909 71.791 32.4949 71.791 37.5575C71.791 42.6201 75.9697 46.7242 81.1243 46.7242Z" fill="#BFCEDE"/>
<path d="M85.7903 83.3908C91.804 83.3908 96.6791 78.6028 96.6791 72.6964C96.6791 66.79 91.804 62.002 85.7903 62.002C79.7765 62.002 74.9014 66.79 74.9014 72.6964C74.9014 78.6028 79.7765 83.3908 85.7903 83.3908Z" fill="#BFCEDE"/>
<path d="M84.2349 13.1131C87.6714 13.1131 90.4571 10.3771 90.4571 7.00198C90.4571 3.62691 87.6714 0.890869 84.2349 0.890869C80.7985 0.890869 78.0127 3.62691 78.0127 7.00198C78.0127 10.3771 80.7985 13.1131 84.2349 13.1131Z" fill="#BFCEDE"/>
<path d="M28.2351 46.7242C29.9534 46.7242 31.3462 45.3562 31.3462 43.6687C31.3462 41.9811 29.9534 40.6131 28.2351 40.6131C26.5169 40.6131 25.124 41.9811 25.124 43.6687C25.124 45.3562 26.5169 46.7242 28.2351 46.7242Z" fill="#BFCEDE"/>
<path d="M112.235 19.2242C113.953 19.2242 115.346 17.8562 115.346 16.1687C115.346 14.4811 113.953 13.1131 112.235 13.1131C110.517 13.1131 109.124 14.4811 109.124 16.1687C109.124 17.8562 110.517 19.2242 112.235 19.2242Z" fill="#BFCEDE"/>
<path d="M65.5681 86.4464C67.2864 86.4464 68.6793 85.0784 68.6793 83.3909C68.6793 81.7033 67.2864 80.3353 65.5681 80.3353C63.8499 80.3353 62.457 81.7033 62.457 83.3909C62.457 85.0784 63.8499 86.4464 65.5681 86.4464Z" fill="#BFCEDE"/>
<path d="M118.458 52.8353C121.894 52.8353 124.68 50.0993 124.68 46.7242C124.68 43.3491 121.894 40.6131 118.458 40.6131C115.021 40.6131 112.235 43.3491 112.235 46.7242C112.235 50.0993 115.021 52.8353 118.458 52.8353Z" fill="#BFCEDE"/>
<path d="M50.0132 65.0576C53.4497 65.0576 56.2355 62.3215 56.2355 58.9464C56.2355 55.5714 53.4497 52.8353 50.0132 52.8353C46.5768 52.8353 43.791 55.5714 43.791 58.9464C43.791 62.3215 46.5768 65.0576 50.0132 65.0576Z" fill="#BFCEDE"/>
</svg>
