<svg width="24" height="22" viewBox="0 0 24 22" fill="none" xmlns="http://www.w3.org/2000/svg">
<g clip-path="url(#clip0_269_12775)">
<path d="M12.0906 16.2803L11.1238 14.5031L7.54298 16.942L11.3382 13.0289L12.2557 14.666L16.2574 11.9934L12.0906 16.2803Z" fill="black"/>
<path d="M19.0623 0.945801H4.74111C4.17519 0.945801 3.63246 1.1706 3.2323 1.57076C2.83214 1.97092 2.60734 2.51363 2.60734 3.07955V19.5816C2.60724 19.8619 2.66236 20.1395 2.76955 20.3985C2.87674 20.6574 3.0339 20.8927 3.23205 21.0909C3.4302 21.2891 3.66546 21.4464 3.92439 21.5537C4.18332 21.6609 4.46083 21.7162 4.74111 21.7162H19.0623C19.3425 21.7162 19.6201 21.6609 19.879 21.5537C20.1379 21.4464 20.3732 21.2891 20.5713 21.0909C20.7695 20.8927 20.9266 20.6574 21.0338 20.3985C21.141 20.1395 21.1961 19.8619 21.196 19.5816V3.08033C21.1961 2.80006 21.141 2.52247 21.0338 2.26351C20.9266 2.00454 20.7695 1.76924 20.5713 1.57103C20.3732 1.37281 20.1379 1.21559 19.879 1.10831C19.6201 1.00103 19.3425 0.945801 19.0623 0.945801ZM19.5046 19.2301C19.5044 19.4407 19.4206 19.6427 19.2716 19.7915C19.1226 19.9404 18.9206 20.024 18.71 20.024H5.0934C4.88277 20.024 4.68076 19.9404 4.53176 19.7915C4.38276 19.6427 4.29896 19.4407 4.29877 19.2301V3.43187C4.29868 3.32749 4.31917 3.22415 4.35907 3.1277C4.39897 3.03125 4.4575 2.94356 4.53131 2.86976C4.60511 2.79595 4.69275 2.73746 4.7892 2.69756C4.88565 2.65766 4.98902 2.63719 5.0934 2.63729H18.71C18.8143 2.63719 18.9177 2.65766 19.0142 2.69756C19.1106 2.73746 19.1982 2.79595 19.2721 2.86976C19.3459 2.94356 19.4044 3.03125 19.4443 3.1277C19.4842 3.22415 19.5047 3.32749 19.5046 3.43187V19.2301Z" fill="black"/>
<path d="M16.8391 5.3855H6.96416C6.59871 5.3855 6.30245 5.68176 6.30245 6.04721V8.2896C6.30245 8.65506 6.59871 8.95131 6.96416 8.95131H16.8391C17.2046 8.95131 17.5008 8.65506 17.5008 8.2896V6.04721C17.5008 5.68176 17.2046 5.3855 16.8391 5.3855Z" fill="black"/>
<path d="M3.28902 8.53906H1.04663C0.681177 8.53906 0.384918 8.83532 0.384918 9.20078V9.80746C0.384918 10.1729 0.681177 10.4692 1.04663 10.4692H3.28902C3.65448 10.4692 3.95073 10.1729 3.95073 9.80746V9.20078C3.95073 8.83532 3.65448 8.53906 3.28902 8.53906Z" fill="black"/>
<path d="M3.28902 11.647H1.04663C0.681177 11.647 0.384918 11.9432 0.384918 12.3087V12.9154C0.384918 13.2808 0.681177 13.5771 1.04663 13.5771H3.28902C3.65448 13.5771 3.95073 13.2808 3.95073 12.9154V12.3087C3.95073 11.9432 3.65448 11.647 3.28902 11.647Z" fill="black"/>
<path d="M22.7011 8.53906H20.4587C20.0932 8.53906 19.797 8.83532 19.797 9.20078V9.80746C19.797 10.1729 20.0932 10.4692 20.4587 10.4692H22.7011C23.0665 10.4692 23.3628 10.1729 23.3628 9.80746V9.20078C23.3628 8.83532 23.0665 8.53906 22.7011 8.53906Z" fill="black"/>
<path d="M22.7011 11.647H20.4587C20.0932 11.647 19.797 11.9432 19.797 12.3087V12.9154C19.797 13.2808 20.0932 13.5771 20.4587 13.5771H22.7011C23.0665 13.5771 23.3628 13.2808 23.3628 12.9154V12.3087C23.3628 11.9432 23.0665 11.647 22.7011 11.647Z" fill="black"/>
</g>
<defs>
<clipPath id="clip0_269_12775">
<rect width="22.9777" height="20.7703" fill="white" transform="translate(0.385178 0.945801)"/>
</clipPath>
</defs>
</svg>
