<svg width="101" height="89" viewBox="0 0 101 89" fill="none" xmlns="http://www.w3.org/2000/svg">
<g clip-path="url(#clip0_269_12740)" filter="url(#filter0_dd_269_12740)">
<g clip-path="url(#clip1_269_12740)">
<path d="M55.9864 11.8563L55.4647 11.9876C55.4531 11.9901 55.4421 11.9951 55.4326 12.0022C55.4231 12.0094 55.4154 12.0186 55.4098 12.0291C55.4042 12.0396 55.4011 12.0512 55.4005 12.0631C55.3999 12.075 55.4019 12.0869 55.4065 12.0979L55.5979 12.5873C55.6082 12.6104 55.6262 12.6292 55.6488 12.6405C55.6714 12.6518 55.6972 12.6549 55.7218 12.6492L56.2416 12.5136C56.2535 12.5114 56.2648 12.5066 56.2747 12.4995C56.2846 12.4924 56.2928 12.4833 56.2987 12.4727C56.3046 12.4621 56.3081 12.4503 56.3089 12.4382C56.3097 12.4261 56.3079 12.414 56.3035 12.4027L56.1127 11.9176C56.1022 11.8942 56.0837 11.8753 56.0606 11.864C56.0375 11.8528 56.0113 11.8501 55.9864 11.8563Z" fill="black"/>
<path d="M55.1359 9.68396L54.6111 9.80106C54.5992 9.80271 54.5879 9.80705 54.578 9.81376C54.568 9.82048 54.5598 9.82938 54.5538 9.83978C54.5478 9.85018 54.5443 9.8618 54.5435 9.87377C54.5427 9.88574 54.5446 9.89776 54.5492 9.90886L54.7406 10.3983C54.7508 10.4216 54.7686 10.4408 54.7911 10.4527C54.8136 10.4646 54.8395 10.4686 54.8645 10.4639L55.388 10.34C55.3998 10.3383 55.4111 10.3338 55.421 10.3271C55.4309 10.3204 55.4391 10.3115 55.445 10.3011C55.451 10.2908 55.4545 10.2792 55.4554 10.2672C55.4562 10.2553 55.4544 10.2433 55.4499 10.2322L55.2591 9.74718C55.2484 9.72457 55.2305 9.70612 55.2082 9.69469C55.186 9.68327 55.1605 9.67949 55.1359 9.68396Z" fill="black"/>
<path d="M54.2847 7.51112L53.7562 7.61336C53.7444 7.61465 53.7331 7.61868 53.7232 7.62512C53.7132 7.63157 53.7048 7.64023 53.6988 7.65046C53.6928 7.66069 53.6892 7.67219 53.6884 7.68403C53.6877 7.69587 53.6897 7.70773 53.6943 7.71867L53.8857 8.20807C53.8962 8.23208 53.9146 8.25186 53.9377 8.26422C53.9608 8.27658 53.9875 8.28083 54.0133 8.27625L54.5405 8.16969C54.5523 8.16819 54.5636 8.16398 54.5735 8.15744C54.5834 8.1509 54.5916 8.14219 54.5976 8.13195C54.6036 8.12172 54.6071 8.11024 54.608 8.09842C54.6088 8.08659 54.607 8.07473 54.6025 8.06374L54.4123 7.57865C54.4017 7.55475 54.3833 7.53512 54.3601 7.52288C54.337 7.51064 54.3104 7.50649 54.2847 7.51112Z" fill="black"/>
<path d="M58.4706 11.2298L57.9489 11.3617C57.9371 11.3635 57.9258 11.3679 57.9159 11.3746C57.906 11.3814 57.8978 11.3903 57.8919 11.4006C57.8859 11.411 57.8824 11.4226 57.8815 11.4345C57.8807 11.4465 57.8825 11.4584 57.887 11.4695L58.0728 11.9434C58.0829 11.9666 58.101 11.9855 58.1236 11.9968C58.1462 12.0081 58.1721 12.0112 58.1967 12.0054L58.7171 11.8691C58.7286 11.8668 58.7395 11.8621 58.7489 11.8551C58.7584 11.8482 58.7661 11.8393 58.7718 11.829C58.7774 11.8187 58.7806 11.8073 58.7814 11.7956C58.7821 11.7839 58.7802 11.7722 58.7759 11.7613L58.5901 11.2917C58.5801 11.2694 58.5628 11.2512 58.5411 11.2399C58.5194 11.2287 58.4945 11.2251 58.4706 11.2298Z" fill="black"/>
<path d="M57.6361 9.12685L57.1114 9.24331C57.0996 9.24472 57.0884 9.24882 57.0785 9.2553C57.0686 9.26177 57.0603 9.27044 57.0543 9.28063C57.0483 9.29082 57.0447 9.30226 57.0439 9.31406C57.043 9.32585 57.0449 9.33767 57.0494 9.34862L57.2352 9.82255C57.246 9.84519 57.2641 9.86359 57.2866 9.87481C57.309 9.88603 57.3346 9.88942 57.3592 9.88449L57.8826 9.76062C57.8944 9.7592 57.9056 9.7551 57.9155 9.74863C57.9254 9.74216 57.9337 9.73349 57.9397 9.72329C57.9457 9.7131 57.9493 9.70166 57.9501 9.68987C57.951 9.67808 57.9491 9.66622 57.9446 9.65527L57.7588 9.18568C57.7476 9.16378 57.7295 9.14618 57.7073 9.13555C57.6852 9.12491 57.6602 9.12186 57.6361 9.12685Z" fill="black"/>
<path d="M56.8011 7.02236L56.2733 7.12457C56.2617 7.12564 56.2506 7.12941 56.2407 7.13557C56.2309 7.14173 56.2225 7.15013 56.2165 7.16007C56.2105 7.17001 56.2069 7.18123 56.206 7.19282C56.2051 7.20441 56.207 7.21606 56.2114 7.22681L56.3972 7.70135C56.4079 7.725 56.4262 7.74434 56.4493 7.75625C56.4723 7.76817 56.4988 7.77194 56.5242 7.76699L57.0514 7.65983C57.0629 7.65864 57.074 7.6548 57.0838 7.6486C57.0936 7.64241 57.1018 7.63404 57.1078 7.62414C57.1138 7.61424 57.1174 7.60305 57.1184 7.59151C57.1194 7.57997 57.1176 7.56839 57.1133 7.55763L56.9275 7.08804C56.9167 7.06465 56.8984 7.04551 56.8755 7.03363C56.8526 7.02175 56.8265 7.01778 56.8011 7.02236Z" fill="black"/>
<path d="M60.9561 10.6026L60.4351 10.7339C60.4236 10.7356 60.4125 10.7398 60.4028 10.7463C60.3931 10.7528 60.385 10.7614 60.379 10.7714C60.3731 10.7815 60.3695 10.7927 60.3684 10.8044C60.3674 10.816 60.369 10.8277 60.3731 10.8386L60.559 11.297C60.5697 11.3195 60.588 11.3376 60.6107 11.348C60.6333 11.3584 60.6588 11.3605 60.6829 11.3541L61.2033 11.2184C61.2149 11.2167 61.2259 11.2125 61.2356 11.206C61.2453 11.1995 61.2534 11.1909 61.2594 11.1809C61.2653 11.1708 61.2689 11.1596 61.27 11.1479C61.271 11.1363 61.2694 11.1246 61.2653 11.1137L61.0831 10.6596C61.0721 10.6366 61.0533 10.6183 61.0301 10.6078C61.0068 10.5974 60.9806 10.5955 60.9561 10.6026Z" fill="black"/>
<path d="M60.1358 8.56851L59.6117 8.68497C59.6002 8.68628 59.5892 8.6902 59.5795 8.69643C59.5698 8.70265 59.5616 8.71102 59.5557 8.72089C59.5497 8.73076 59.546 8.74184 59.545 8.75334C59.544 8.76483 59.5456 8.77641 59.5497 8.78718L59.7356 9.24561C59.7462 9.26839 59.7643 9.28692 59.7868 9.29817C59.8093 9.30941 59.8348 9.31274 59.8594 9.30758L60.383 9.18367C60.3945 9.18236 60.4054 9.17844 60.4151 9.17222C60.4248 9.16599 60.4331 9.15762 60.439 9.14775C60.445 9.13788 60.4487 9.1268 60.4497 9.11531C60.4507 9.10382 60.4491 9.09224 60.4449 9.08147L60.2628 8.62735C60.2515 8.60451 60.2328 8.58621 60.2097 8.57551C60.1866 8.5648 60.1605 8.56234 60.1358 8.56851Z" fill="black"/>
<path d="M59.3182 6.53439L58.7897 6.63664C58.7784 6.63758 58.7673 6.64116 58.7576 6.64711C58.7479 6.65306 58.7397 6.6612 58.7337 6.67089C58.7277 6.68059 58.724 6.69155 58.723 6.70292C58.7219 6.71429 58.7236 6.72573 58.7278 6.73635L58.9136 7.19482C58.9246 7.21732 58.9427 7.23557 58.9651 7.24677C58.9875 7.25797 59.013 7.26147 59.0376 7.25675L59.5647 7.14959C59.5761 7.14865 59.5871 7.14503 59.5969 7.13908C59.6066 7.13313 59.6148 7.12499 59.6208 7.1153C59.6269 7.1056 59.6305 7.09464 59.6315 7.08327C59.6325 7.0719 59.6309 7.06046 59.6267 7.04984L59.4446 6.59637C59.4331 6.57367 59.4146 6.55529 59.3918 6.54411C59.369 6.53292 59.3431 6.52952 59.3182 6.53439Z" fill="black"/>
<path d="M53.5028 12.4838L52.9817 12.6158C52.97 12.6185 52.9589 12.6237 52.9494 12.6311C52.9398 12.6385 52.932 12.6479 52.9265 12.6587C52.9209 12.6694 52.9177 12.6812 52.9172 12.6933C52.9167 12.7053 52.9189 12.7174 52.9235 12.7285L53.1187 13.2334C53.1285 13.2579 53.1468 13.278 53.1703 13.29C53.1937 13.3021 53.2207 13.3053 53.2463 13.2991L53.766 13.1634C53.7778 13.1606 53.7888 13.1552 53.7983 13.1478C53.8078 13.1403 53.8156 13.1308 53.8211 13.1201C53.8266 13.1093 53.8298 13.0975 53.8303 13.0854C53.8309 13.0733 53.8289 13.0613 53.8243 13.0501L53.6304 12.5495C53.6203 12.5252 53.602 12.5053 53.5786 12.4932C53.5553 12.4812 53.5284 12.4779 53.5028 12.4838Z" fill="black"/>
<path d="M52.6354 10.2416L52.1107 10.3587C52.0989 10.3609 52.0876 10.3658 52.0779 10.373C52.0683 10.3801 52.0603 10.3894 52.0547 10.4001C52.0491 10.4107 52.0461 10.4225 52.0457 10.4346C52.0453 10.4466 52.0476 10.4586 52.0525 10.4696L52.2476 10.9745C52.2576 10.9988 52.2757 11.0189 52.2988 11.0313C52.322 11.0438 52.3488 11.0477 52.3745 11.0426L52.8987 10.9187C52.9105 10.9164 52.9216 10.9114 52.9312 10.9042C52.9408 10.897 52.9487 10.8878 52.9544 10.8772C52.96 10.8666 52.9632 10.8549 52.9637 10.8429C52.9643 10.8309 52.9622 10.8189 52.9575 10.8078L52.7636 10.3073C52.7529 10.2834 52.7344 10.2639 52.7111 10.2519C52.6878 10.24 52.661 10.2363 52.6354 10.2416Z" fill="black"/>
<path d="M51.7674 7.99918L51.239 8.10138C51.227 8.1028 51.2155 8.10702 51.2054 8.11367C51.1953 8.12033 51.1869 8.12925 51.1809 8.13973C51.1749 8.1502 51.1713 8.16192 51.1707 8.17398C51.17 8.18605 51.1722 8.19811 51.177 8.20919L51.3721 8.71409C51.3823 8.73873 51.4005 8.75919 51.4238 8.77213C51.4471 8.78507 51.4741 8.78972 51.5004 8.78533L52.0276 8.67817C52.0396 8.67666 52.0511 8.67237 52.0612 8.66565C52.0713 8.65893 52.0796 8.64997 52.0856 8.63945C52.0917 8.62893 52.0952 8.61714 52.0958 8.60504C52.0965 8.59294 52.0944 8.58088 52.0896 8.56976L51.8956 8.06917C51.8851 8.04483 51.8668 8.02473 51.8436 8.01203C51.8203 7.99934 51.7935 7.99481 51.7674 7.99918Z" fill="black"/>
<path d="M51.0192 13.111L50.4981 13.2429C50.4861 13.2458 50.4749 13.2514 50.4652 13.2591C50.4556 13.2669 50.4478 13.2767 50.4423 13.2878C50.4369 13.2989 50.434 13.3111 50.4338 13.3235C50.4336 13.3358 50.4361 13.3481 50.4412 13.3594L50.6394 13.8798C50.649 13.9045 50.6672 13.925 50.6906 13.9375C50.714 13.95 50.7411 13.9537 50.767 13.9479L51.2874 13.8117C51.2994 13.8087 51.3106 13.8032 51.3202 13.7955C51.3298 13.7878 51.3375 13.7781 51.343 13.7671C51.3485 13.7561 51.3515 13.744 51.3518 13.7316C51.3522 13.7193 51.3499 13.7071 51.345 13.6958L51.1474 13.1791C51.1376 13.1544 51.1193 13.134 51.0958 13.1215C51.0723 13.109 51.0452 13.1053 51.0192 13.111Z" fill="black"/>
<path d="M50.1352 10.7995L49.6104 10.916C49.5985 10.9187 49.5874 10.9239 49.5778 10.9313C49.5682 10.9388 49.5603 10.9483 49.5548 10.9591C49.5493 10.9699 49.5463 10.9819 49.546 10.994C49.5456 11.0062 49.5479 11.0183 49.5528 11.0294L49.7517 11.5504C49.7613 11.5754 49.7795 11.5961 49.8029 11.609C49.8264 11.6219 49.8536 11.6262 49.8798 11.621L50.4034 11.4971C50.4153 11.4946 50.4265 11.4894 50.4361 11.482C50.4458 11.4745 50.4538 11.4651 50.4594 11.4542C50.4649 11.4434 50.468 11.4314 50.4684 11.4192C50.4687 11.4071 50.4665 11.3949 50.4616 11.3837L50.264 10.8677C50.2536 10.8433 50.2351 10.8232 50.2116 10.8108C50.1882 10.7984 50.1612 10.7944 50.1352 10.7995Z" fill="black"/>
<path d="M49.2511 8.48827L48.7226 8.59047C48.7106 8.59248 48.6994 8.59724 48.6896 8.60435C48.6797 8.61146 48.6717 8.62076 48.666 8.6315C48.6604 8.64223 48.6573 8.65413 48.657 8.66625C48.6568 8.67837 48.6592 8.69039 48.6644 8.70138L48.8627 9.22174C48.8726 9.24682 48.8907 9.26779 48.9142 9.28118C48.9376 9.29458 48.9649 9.29962 48.9915 9.29548L49.5187 9.18892C49.5307 9.18679 49.542 9.18195 49.5518 9.17478C49.5616 9.16761 49.5697 9.15831 49.5754 9.14756C49.5811 9.1368 49.5842 9.12489 49.5846 9.11273C49.5849 9.10058 49.5825 9.0885 49.5775 9.07742L49.3799 8.56136C49.3699 8.53639 49.3517 8.51557 49.3283 8.5023C49.3049 8.48902 49.2776 8.48408 49.2511 8.48827Z" fill="black"/>
<path d="M48.5349 13.7373L48.014 13.8692C48.0019 13.8724 47.9907 13.8782 47.9811 13.8862C47.9716 13.8941 47.9638 13.9041 47.9585 13.9154C47.9531 13.9266 47.9502 13.9389 47.9501 13.9513C47.9499 13.9638 47.9525 13.9762 47.9575 13.9875L48.1595 14.524C48.1689 14.5492 48.1869 14.5703 48.2104 14.5833C48.2339 14.5964 48.2614 14.6006 48.2877 14.5952L48.8082 14.459C48.8202 14.4557 48.8314 14.45 48.841 14.442C48.8506 14.434 48.8583 14.4241 48.8637 14.4128C48.8692 14.4016 48.872 14.3894 48.8723 14.3769C48.8725 14.3645 48.8701 14.3521 48.8651 14.3407L48.6638 13.8085C48.6544 13.7831 48.6362 13.762 48.6126 13.7489C48.5889 13.7359 48.5614 13.7317 48.5349 13.7373Z" fill="black"/>
<path d="M47.6341 11.3575L47.1099 11.4739C47.0977 11.4766 47.0864 11.4821 47.0766 11.4898C47.0668 11.4975 47.0589 11.5073 47.0534 11.5185C47.0479 11.5297 47.0451 11.5419 47.045 11.5544C47.0449 11.5668 47.0476 11.5791 47.053 11.5904L47.2549 12.1269C47.2644 12.1522 47.2826 12.1734 47.3061 12.1867C47.3297 12.2001 47.3571 12.2048 47.3837 12.2L47.9073 12.0761C47.9194 12.0733 47.9307 12.0678 47.9404 12.0601C47.9501 12.0524 47.9579 12.0425 47.9634 12.0314C47.9689 12.0202 47.9718 12.008 47.9719 11.9956C47.9721 11.9832 47.9694 11.9709 47.9642 11.9596L47.7629 11.4281C47.7529 11.4032 47.7346 11.3826 47.7111 11.3697C47.6876 11.3568 47.6604 11.3525 47.6341 11.3575Z" fill="black"/>
<path d="M46.7346 8.97712L46.2061 9.07937C46.1941 9.08169 46.1827 9.08673 46.1729 9.09412C46.1631 9.1015 46.1552 9.11101 46.1496 9.12194C46.1441 9.13288 46.141 9.14496 46.1408 9.15722C46.1407 9.16949 46.1433 9.18163 46.1485 9.19273L46.3505 9.7286C46.3607 9.75396 46.3789 9.77524 46.4024 9.78914C46.426 9.80303 46.4534 9.80877 46.4806 9.80543L47.0078 9.69888C47.0198 9.69645 47.031 9.69131 47.0408 9.68391C47.0505 9.6765 47.0584 9.66702 47.064 9.65611C47.0695 9.64521 47.0725 9.63318 47.0728 9.62095C47.073 9.60872 47.0705 9.5966 47.0654 9.58548L46.864 9.05335C46.8544 9.02776 46.8363 9.00623 46.8128 8.99236C46.7892 8.9785 46.7616 8.97311 46.7346 8.97712Z" fill="black"/>
<path d="M64.7679 12.059L61.6047 4.31507C61.5381 4.18045 61.4296 4.07098 61.2956 4.00309C61.1616 3.93519 61.0093 3.9125 60.8613 3.93839L42.8725 6.90773C42.7999 6.91833 42.7306 6.94515 42.6698 6.98623C42.609 7.02731 42.5583 7.08159 42.5213 7.145C42.4811 7.21853 42.4576 7.3001 42.4528 7.38378C42.448 7.46747 42.4619 7.55118 42.4934 7.62884L46.1442 17.4171C46.1911 17.5446 46.2753 17.655 46.3858 17.7339C46.4962 17.8129 46.6279 17.8569 46.7637 17.86C46.8165 17.8599 46.8691 17.8525 46.9198 17.8378L64.3987 12.7373C64.4757 12.7161 64.5474 12.6792 64.6093 12.6289C64.6713 12.5785 64.7221 12.5159 64.7586 12.4449C64.7874 12.3849 64.8031 12.3195 64.8047 12.2529C64.8063 12.1864 64.7938 12.1203 64.7679 12.059ZM62.8685 11.6309C62.849 11.666 62.8223 11.6968 62.7904 11.7212C62.7584 11.7456 62.7217 11.7631 62.6827 11.7727L47.5771 15.9427C47.4857 15.96 47.3913 15.944 47.3107 15.8976C47.2302 15.8512 47.1688 15.7776 47.1378 15.6899L44.4802 8.60084C44.4634 8.562 44.4554 8.51993 44.4567 8.47765C44.458 8.43536 44.4685 8.39387 44.4876 8.35612C44.5043 8.32709 44.5275 8.30228 44.5553 8.28359C44.5831 8.26491 44.6149 8.25287 44.6481 8.24835L60.0844 5.46921C60.1709 5.45375 60.26 5.46554 60.3395 5.50294C60.4189 5.54034 60.4848 5.60149 60.528 5.67797L62.8754 11.4648C62.8862 11.4914 62.8912 11.5199 62.89 11.5486C62.8888 11.5772 62.8815 11.6053 62.8685 11.6309Z" fill="black"/>
<path d="M47.2277 4.14774C47.2156 4.14859 47.204 4.15239 47.1937 4.15878C47.1834 4.16516 47.1748 4.17394 47.1687 4.18438C47.1626 4.19481 47.1592 4.20656 47.1587 4.21863C47.1582 4.23071 47.1606 4.24276 47.1657 4.25369L47.364 4.77284C47.374 4.79855 47.3923 4.82019 47.416 4.83433C47.4396 4.84847 47.4673 4.85428 47.4947 4.85089L48.0275 4.7722C48.0395 4.77135 48.0512 4.76758 48.0615 4.7612C48.0718 4.75482 48.0803 4.74603 48.0864 4.7356C48.0925 4.72516 48.096 4.71338 48.0965 4.7013C48.097 4.68923 48.0946 4.67722 48.0894 4.66629L47.8924 4.15148C47.8819 4.1262 47.8637 4.10491 47.8403 4.09075C47.8169 4.0766 47.7896 4.07032 47.7623 4.07279L47.2277 4.14774Z" fill="black"/>
<path d="M49.7759 3.79037C49.7641 3.791 49.7525 3.79452 49.7424 3.80062C49.7322 3.80672 49.7237 3.81524 49.7176 3.82538C49.7115 3.83553 49.7079 3.84702 49.7073 3.85885C49.7066 3.87068 49.7089 3.88247 49.7139 3.89322L49.9085 4.39687C49.9188 4.42189 49.937 4.44282 49.9604 4.45647C49.9838 4.47012 50.011 4.47574 50.0379 4.47246L50.5713 4.39317C50.5831 4.39254 50.5946 4.38902 50.6048 4.38292C50.615 4.37682 50.6235 4.36834 50.6296 4.35819C50.6357 4.34804 50.6392 4.33656 50.6399 4.32473C50.6405 4.3129 50.6382 4.30107 50.6332 4.29032L50.4399 3.79101C50.4292 3.76608 50.4109 3.74521 50.3875 3.7315C50.364 3.71778 50.3368 3.71196 50.3099 3.71482L49.7759 3.79037Z" fill="black"/>
<path d="M52.3239 3.43362C52.3123 3.43412 52.3009 3.43745 52.2909 3.44334C52.2809 3.44922 52.2724 3.45745 52.2663 3.46735C52.2602 3.47725 52.2566 3.48852 52.2558 3.50013C52.2551 3.51174 52.2572 3.52336 52.2619 3.53397L52.4527 4.02277C52.4636 4.04709 52.4819 4.06726 52.5052 4.08032C52.5284 4.09337 52.5552 4.09862 52.5816 4.09525L53.115 4.01596C53.1265 4.01542 53.1378 4.01205 53.1477 4.00621C53.1577 4.00036 53.1661 3.9922 53.1722 3.98238C53.1783 3.97257 53.1819 3.96139 53.1827 3.94987C53.1836 3.93834 53.1816 3.9268 53.1769 3.91621L52.9867 3.43237C52.9759 3.40805 52.9575 3.38784 52.9343 3.37478C52.9111 3.36173 52.8843 3.35651 52.8579 3.35988L52.3239 3.43362Z" fill="black"/>
<path d="M44.6797 4.50407C44.6678 4.50564 44.6564 4.51 44.6465 4.51682C44.6365 4.52363 44.6284 4.53271 44.6226 4.54329C44.6169 4.55386 44.6138 4.56563 44.6135 4.57766C44.6132 4.58969 44.6157 4.60162 44.6209 4.61248L44.8222 5.14714C44.8322 5.17321 44.8505 5.1953 44.8742 5.21006C44.8979 5.22482 44.9258 5.23142 44.9536 5.22889L45.4869 5.1496C45.4991 5.14848 45.5109 5.14443 45.5212 5.1378C45.5315 5.13118 45.5401 5.12216 45.5462 5.11152C45.5522 5.10088 45.5557 5.08894 45.5561 5.0767C45.5566 5.06445 45.5541 5.05228 45.5489 5.04119L45.3482 4.51028C45.3379 4.48455 45.3198 4.4628 45.2962 4.44819C45.2727 4.43358 45.2451 4.4269 45.2175 4.42913L44.6797 4.50407Z" fill="black"/>
<path d="M42.1311 4.86097C42.1189 4.8627 42.1073 4.86729 42.0973 4.87439C42.0872 4.88149 42.079 4.89087 42.0733 4.90177C42.0676 4.91266 42.0646 4.92479 42.0645 4.93708C42.0644 4.94937 42.0673 4.9615 42.0728 4.97247L42.2785 5.52321C42.2884 5.54945 42.3066 5.57177 42.3303 5.58684C42.3539 5.60192 42.3818 5.60893 42.4098 5.60685L42.9439 5.52755C42.956 5.52582 42.9676 5.52123 42.9776 5.51413C42.9876 5.50703 42.9959 5.49765 43.0016 5.48675C43.0073 5.47586 43.0103 5.46373 43.0103 5.45144C43.0104 5.43915 43.0076 5.42702 43.0021 5.41605L42.7976 4.86963C42.7875 4.84339 42.7692 4.82112 42.7454 4.80606C42.7217 4.79101 42.6937 4.78396 42.6657 4.78598L42.1311 4.86097Z" fill="black"/>
<path d="M41.9824 10.172L41.4546 10.2761C41.4422 10.2789 41.4307 10.2845 41.4208 10.2924C41.4109 10.3003 41.4029 10.3103 41.3974 10.3218C41.3919 10.3332 41.3891 10.3457 41.3891 10.3584C41.3891 10.3711 41.392 10.3836 41.3976 10.395L41.607 10.9612C41.6163 10.9878 41.6344 11.0103 41.6583 11.0251C41.6822 11.04 41.7104 11.0463 41.7383 11.043L42.2649 10.9346C42.2772 10.9318 42.2888 10.9262 42.2987 10.9183C42.3086 10.9104 42.3166 10.9003 42.3221 10.8889C42.3275 10.8774 42.3304 10.8649 42.3304 10.8522C42.3303 10.8396 42.3274 10.8271 42.3219 10.8157L42.1137 10.2537C42.1043 10.2272 42.0862 10.2047 42.0624 10.1898C42.0385 10.175 42.0103 10.1687 41.9824 10.172Z" fill="black"/>
<path d="M41.1813 7.74342C41.1718 7.71677 41.1536 7.69407 41.1297 7.67892C41.1058 7.66376 41.0775 7.65703 41.0493 7.65978L40.5184 7.74898C40.506 7.75136 40.4944 7.75658 40.4844 7.76422C40.4744 7.77186 40.4664 7.78174 40.4608 7.79303C40.4553 7.80433 40.4525 7.81672 40.4526 7.82929C40.4527 7.84187 40.4557 7.85427 40.4614 7.86548L40.6708 8.43107C40.6798 8.45804 40.6977 8.48115 40.7216 8.49649C40.7455 8.51183 40.7739 8.51846 40.8021 8.51532L41.3325 8.42117C41.3449 8.41887 41.3565 8.41372 41.3666 8.40612C41.3766 8.39851 41.3848 8.38865 41.3904 8.37734C41.396 8.36604 41.3989 8.35362 41.3988 8.341C41.3987 8.32839 41.3958 8.31596 41.3901 8.3047L41.1813 7.74342Z" fill="black"/>
<path d="M40.2502 5.2288C40.2404 5.2021 40.2223 5.17926 40.1985 5.16365C40.1748 5.14803 40.1466 5.14045 40.1182 5.14206L39.5836 5.217C39.5712 5.21885 39.5595 5.22364 39.5493 5.23095C39.5392 5.23826 39.5309 5.2479 39.5252 5.25905C39.5195 5.27019 39.5165 5.28253 39.5166 5.29504C39.5166 5.30756 39.5196 5.31989 39.5253 5.331L39.7347 5.89724C39.7444 5.92405 39.7624 5.94701 39.7862 5.96265C39.81 5.9783 39.8383 5.98579 39.8667 5.98398L40.4001 5.90469C40.4123 5.90263 40.424 5.89769 40.434 5.89032C40.444 5.88295 40.4521 5.87332 40.4577 5.86222C40.4633 5.85113 40.4663 5.83888 40.4663 5.82645C40.4663 5.81402 40.4633 5.80178 40.4577 5.79068L40.2502 5.2288Z" fill="black"/>
<path d="M55.1551 1.17897C55.0893 1.03935 54.982 0.92345 54.8478 0.847061C54.7136 0.770672 54.5592 0.737531 54.4056 0.752153L36.1919 2.78663C36.1201 2.79286 36.0507 2.81577 35.9893 2.85352C35.9279 2.89126 35.8761 2.94279 35.8381 3.00405C35.7946 3.08019 35.7691 3.16527 35.7636 3.25277C35.758 3.34028 35.7725 3.4279 35.8059 3.50895L39.585 13.8238C39.6318 13.9607 39.7186 14.0802 39.8343 14.167C39.95 14.2537 40.0892 14.3036 40.2336 14.3101C40.277 14.3103 40.3202 14.3056 40.3625 14.2959L43.9222 13.4577L43.3386 11.8866L41.0352 12.3934C40.9364 12.4025 40.8373 12.3779 40.7541 12.3238C40.6709 12.2696 40.6085 12.1889 40.5768 12.0948L37.8262 4.6179C37.8081 4.57646 37.7993 4.5315 37.8007 4.48628C37.8021 4.44106 37.8136 4.39672 37.8342 4.35647C37.8505 4.33027 37.8727 4.30826 37.8991 4.29222C37.9255 4.27619 37.9552 4.26659 37.986 4.26417L53.6144 2.28978C53.7081 2.28007 53.8024 2.29927 53.8848 2.34479C53.9672 2.39031 54.0337 2.45997 54.0754 2.5444L54.7741 4.3137L56.3062 4.07828L55.1551 1.17897Z" fill="black"/>
</g>
</g>
<defs>
<filter id="filter0_dd_269_12740" x="0.549664" y="0.748535" width="99.4708" height="87.5321" filterUnits="userSpaceOnUse" color-interpolation-filters="sRGB">
<feFlood flood-opacity="0" result="BackgroundImageFix"/>
<feColorMatrix in="SourceAlpha" type="matrix" values="0 0 0 0 0 0 0 0 0 0 0 0 0 0 0 0 0 0 127 0" result="hardAlpha"/>
<feMorphology radius="8.80272" operator="erode" in="SourceAlpha" result="effect1_dropShadow_269_12740"/>
<feOffset dy="17.6054"/>
<feGaussianBlur stdDeviation="8.80272"/>
<feComposite in2="hardAlpha" operator="out"/>
<feColorMatrix type="matrix" values="0 0 0 0 0 0 0 0 0 0 0 0 0 0 0 0 0 0 0.04 0"/>
<feBlend mode="normal" in2="BackgroundImageFix" result="effect1_dropShadow_269_12740"/>
<feColorMatrix in="SourceAlpha" type="matrix" values="0 0 0 0 0 0 0 0 0 0 0 0 0 0 0 0 0 0 127 0" result="hardAlpha"/>
<feMorphology radius="8.80272" operator="erode" in="SourceAlpha" result="effect2_dropShadow_269_12740"/>
<feOffset dy="35.2109"/>
<feGaussianBlur stdDeviation="22.0068"/>
<feComposite in2="hardAlpha" operator="out"/>
<feColorMatrix type="matrix" values="0 0 0 0 0 0 0 0 0 0 0 0 0 0 0 0 0 0 0.1 0"/>
<feBlend mode="normal" in2="effect1_dropShadow_269_12740" result="effect2_dropShadow_269_12740"/>
<feBlend mode="normal" in="SourceGraphic" in2="effect2_dropShadow_269_12740" result="shape"/>
</filter>
<clipPath id="clip0_269_12740">
<rect width="29.049" height="17.1103" fill="white" transform="translate(35.7606 0.748535)"/>
</clipPath>
<clipPath id="clip1_269_12740">
<rect width="29.0378" height="17.1103" fill="white" transform="translate(35.7664 0.748535)"/>
</clipPath>
</defs>
</svg>
