<svg width="37" height="38" viewBox="0 0 37 38" fill="none" xmlns="http://www.w3.org/2000/svg">
<path d="M27.8999 28.4L30.2624 30.7533M9.0336 28.4367L6.68032 30.7992M8.99687 9.57042L6.63441 7.21714M27.8632 9.53369L30.2165 7.17123M18.4744 32.3254L18.4809 35.6604M5.10824 19.0112L1.7732 19.0177M18.4224 5.64506L18.4159 2.31002M31.7885 18.9592L35.1236 18.9527M23.155 14.2603C22.5384 13.6244 21.8014 13.1177 20.987 12.7697C20.1725 12.4217 19.2969 12.2394 18.4112 12.2335C17.5256 12.2275 16.6476 12.398 15.8285 12.7349C15.0094 13.0719 14.2657 13.5686 13.6406 14.1961C13.0156 14.8236 12.5218 15.5693 12.188 16.3897C11.8542 17.2101 11.6871 18.0887 11.6966 18.9744C11.706 19.86 11.8917 20.7349 12.2428 21.548C12.594 22.3611 13.1036 23.0961 13.7418 23.7101C15.0022 24.9227 16.6884 25.5917 18.4372 25.5731C20.1861 25.5545 21.8576 24.8498 23.0919 23.6107C24.3262 22.3716 25.0244 20.6973 25.0362 18.9484C25.048 17.1995 24.3724 15.5159 23.155 14.2603Z" stroke="white" stroke-width="3.12625" stroke-linecap="round" stroke-linejoin="round"/>
</svg>
