<svg width="65" height="64" viewBox="0 0 65 64" fill="none" xmlns="http://www.w3.org/2000/svg">
<g clip-path="url(#clip0_269_12818)" filter="url(#filter0_dd_269_12818)">
<g clip-path="url(#clip1_269_12818)">
<path d="M22.791 7.33508H25.5966V11.8109H22.791V7.33508Z" fill="black"/>
<path d="M22.791 13.7158H25.5966V18.1916H22.791V13.7158Z" fill="black"/>
<path d="M28.088 7.33508H30.8936V11.8109H28.088V7.33508Z" fill="black"/>
<path d="M28.088 13.7158H30.8936V18.1916H28.088V13.7158Z" fill="black"/>
<path d="M22.7913 0.606567H25.5969V5.08239H22.7913V0.606567Z" fill="black"/>
<path d="M28.0655 0.606567H30.8711V5.08239H28.0655V0.606567Z" fill="black"/>
<path d="M33.3401 7.33508H36.1457V11.8109H33.3401V7.33508Z" fill="black"/>
<path d="M33.3401 13.7158H36.1457V18.1916H33.3401V13.7158Z" fill="black"/>
<path d="M38.637 7.33508H41.4426V11.8109H38.637V7.33508Z" fill="black"/>
<path d="M38.637 13.7158H41.4426V18.1916H38.637V13.7158Z" fill="black"/>
<path d="M33.3407 0.606567H36.1463V5.08239H33.3407V0.606567Z" fill="black"/>
<path d="M38.6152 0.606567H41.4207V5.08239H38.6152V0.606567Z" fill="black"/>
</g>
</g>
<defs>
<filter id="filter0_dd_269_12818" x="0.162674" y="0.606567" width="63.9083" height="62.8303" filterUnits="userSpaceOnUse" color-interpolation-filters="sRGB">
<feFlood flood-opacity="0" result="BackgroundImageFix"/>
<feColorMatrix in="SourceAlpha" type="matrix" values="0 0 0 0 0 0 0 0 0 0 0 0 0 0 0 0 0 0 127 0" result="hardAlpha"/>
<feMorphology radius="5.65561" operator="erode" in="SourceAlpha" result="effect1_dropShadow_269_12818"/>
<feOffset dy="11.3112"/>
<feGaussianBlur stdDeviation="5.65561"/>
<feComposite in2="hardAlpha" operator="out"/>
<feColorMatrix type="matrix" values="0 0 0 0 0 0 0 0 0 0 0 0 0 0 0 0 0 0 0.04 0"/>
<feBlend mode="normal" in2="BackgroundImageFix" result="effect1_dropShadow_269_12818"/>
<feColorMatrix in="SourceAlpha" type="matrix" values="0 0 0 0 0 0 0 0 0 0 0 0 0 0 0 0 0 0 127 0" result="hardAlpha"/>
<feMorphology radius="5.65561" operator="erode" in="SourceAlpha" result="effect2_dropShadow_269_12818"/>
<feOffset dy="22.6224"/>
<feGaussianBlur stdDeviation="14.139"/>
<feComposite in2="hardAlpha" operator="out"/>
<feColorMatrix type="matrix" values="0 0 0 0 0 0 0 0 0 0 0 0 0 0 0 0 0 0 0.1 0"/>
<feBlend mode="normal" in2="effect1_dropShadow_269_12818" result="effect2_dropShadow_269_12818"/>
<feBlend mode="normal" in="SourceGraphic" in2="effect2_dropShadow_269_12818" result="shape"/>
</filter>
<clipPath id="clip0_269_12818">
<rect width="18.6635" height="17.5854" fill="white" transform="translate(22.7851 0.606567)"/>
</clipPath>
<clipPath id="clip1_269_12818">
<rect width="18.6515" height="17.5854" fill="white" transform="translate(22.7913 0.606567)"/>
</clipPath>
</defs>
</svg>
