<svg width="68" height="66" viewBox="0 0 68 66" fill="none" xmlns="http://www.w3.org/2000/svg">
<g clip-path="url(#clip0_269_12837)" filter="url(#filter0_dd_269_12837)">
<g clip-path="url(#clip1_269_12837)">
<path d="M39.4921 7.97185C39.4921 6.91627 39.179 5.88441 38.5926 5.00673C38.0061 4.12905 37.1726 3.44499 36.1974 3.04103C35.2221 2.63708 34.149 2.53138 33.1137 2.73732C32.0784 2.94325 31.1275 3.45155 30.3811 4.19796C29.6347 4.94436 29.1264 5.89536 28.9204 6.93065C28.7145 7.96595 28.8202 9.03905 29.2241 10.0143C29.6281 10.9895 30.3122 11.823 31.1898 12.4095C32.0675 12.9959 33.0994 13.309 34.155 13.309C34.8559 13.3091 35.5499 13.1711 36.1975 12.9029C36.8451 12.6347 37.4335 12.2416 37.9291 11.746C38.4247 11.2504 38.8178 10.662 39.086 10.0144C39.3542 9.36683 39.4922 8.67275 39.4921 7.97185ZM34.1865 12.3481C33.0259 12.3481 31.9129 11.8871 31.0923 11.0665C30.2717 10.2458 29.8106 9.13283 29.8106 7.97229V7.96249C29.8124 7.09742 30.0705 6.25228 30.5524 5.53385C31.0343 4.81543 31.7184 4.25595 32.5181 3.92612C33.3178 3.5963 34.1974 3.51091 35.0456 3.68076C35.8939 3.85061 36.6727 4.26808 37.2838 4.8804C37.8949 5.49273 38.3108 6.27244 38.4789 7.12103C38.647 7.96962 38.5598 8.84898 38.2283 9.64804C37.8969 10.4471 37.336 11.13 36.6166 11.6104C35.8972 12.0909 35.0515 12.3473 34.1865 12.3473V12.3481Z" fill="black"/>
<path d="M28.2592 10.7362L27.5781 11.1083L27.5688 11.1142C27.5329 11.1348 27.5015 11.1622 27.4764 11.1949C27.4512 11.2277 27.4328 11.2651 27.4222 11.3049C27.4115 11.3448 27.4089 11.3864 27.4144 11.4273C27.4199 11.4683 27.4334 11.5077 27.4542 11.5433L27.6092 11.8235C27.6378 11.8727 27.6786 11.9137 27.7277 11.9425C27.7767 11.9714 27.8324 11.9871 27.8893 11.9882C27.9439 11.9885 27.9975 11.9737 28.0442 11.9456L28.7254 11.5446L28.748 11.5319C28.8173 11.4893 28.8669 11.421 28.8859 11.3419C28.9049 11.2628 28.8917 11.1794 28.8493 11.11L28.6939 10.8311C28.6458 10.7646 28.5749 10.7181 28.4947 10.7006C28.4145 10.683 28.3306 10.6957 28.2592 10.7362Z" fill="black"/>
<path d="M37.1651 2.44896L37.4444 2.60392C37.4911 2.63203 37.5447 2.64675 37.5993 2.64648C37.6565 2.64519 37.7124 2.62906 37.7615 2.59966C37.8106 2.57026 37.8513 2.52859 37.8794 2.47876L38.2519 1.79764L38.2574 1.7887C38.2969 1.7153 38.3056 1.62923 38.2816 1.54942C38.2577 1.46961 38.2031 1.40257 38.1297 1.363L37.8811 1.23911L37.8726 1.23399C37.7992 1.19456 37.7132 1.18586 37.6334 1.2098C37.5536 1.23374 37.4865 1.28837 37.4469 1.3617L37.0744 2.04284C37.0677 2.05215 37.0614 2.06181 37.0557 2.07179C37.038 2.10372 37.0268 2.13881 37.0228 2.17507C37.0187 2.21133 37.0218 2.24806 37.032 2.28311C37.0422 2.31815 37.0592 2.35084 37.082 2.3793C37.1048 2.40776 37.1331 2.43143 37.1651 2.44896Z" fill="black"/>
<path d="M40.712 7.47424H41.6545C41.7147 7.47424 41.7724 7.49815 41.815 7.5407C41.8575 7.58325 41.8814 7.64097 41.8814 7.70115V8.21199C41.8814 8.24185 41.8756 8.27141 41.8641 8.29899C41.8527 8.32657 41.836 8.35163 41.8149 8.37274C41.7937 8.39385 41.7687 8.41059 41.7411 8.42202C41.7135 8.43344 41.684 8.43932 41.6541 8.43932H40.712C40.6821 8.43932 40.6524 8.4334 40.6247 8.4219C40.5971 8.41039 40.5719 8.39353 40.5508 8.37229C40.5297 8.35104 40.513 8.32583 40.5016 8.2981C40.4903 8.27037 40.4845 8.24068 40.4847 8.21072V7.70157C40.4847 7.64128 40.5086 7.58346 40.5513 7.54083C40.5939 7.49819 40.6517 7.47424 40.712 7.47424Z" fill="black"/>
<path d="M30.4311 2.54182C30.4645 2.59166 30.5101 2.63201 30.5637 2.65901C30.6172 2.68601 30.6769 2.69874 30.7368 2.69593C30.7915 2.69579 30.8458 2.68553 30.8968 2.66569L31.1761 2.47965L31.1859 2.4737C31.2216 2.45307 31.2529 2.42559 31.278 2.39284C31.3031 2.36009 31.3214 2.32272 31.332 2.28285C31.3426 2.24298 31.3453 2.20141 31.3398 2.16052C31.3343 2.11964 31.3208 2.08023 31.3 2.04459L30.8968 1.39324L30.8909 1.38261C30.8702 1.34699 30.8428 1.31579 30.8101 1.29079C30.7774 1.26579 30.7401 1.24749 30.7003 1.23693C30.6606 1.22637 30.6191 1.22374 30.5783 1.22924C30.5375 1.23473 30.4982 1.24823 30.4626 1.26894L30.1825 1.4239L30.1731 1.42988C30.1374 1.4505 30.1061 1.47796 30.081 1.51071C30.0559 1.54346 30.0376 1.58085 30.027 1.62072C30.0164 1.66059 30.0137 1.70217 30.0192 1.74305C30.0247 1.78394 30.0383 1.82334 30.059 1.85899L30.4311 2.54182Z" fill="black"/>
<path d="M39.6785 4.96243C39.7068 5.01221 39.7476 5.05381 39.7967 5.0832C39.8459 5.11259 39.9018 5.12879 39.9591 5.13017C40.0133 5.12989 40.0664 5.11518 40.1131 5.08759L40.7943 4.71509C40.8644 4.67033 40.9157 4.60146 40.9385 4.52147C40.9613 4.44148 40.9541 4.35588 40.9181 4.28087L40.7632 4.00163L40.7585 3.99269C40.7378 3.95685 40.7103 3.92541 40.6775 3.90021C40.6447 3.87502 40.6072 3.85654 40.5672 3.84583C40.5273 3.83512 40.4856 3.83238 40.4445 3.83778C40.4035 3.84318 40.364 3.8566 40.3281 3.8773L39.647 4.24937L39.6363 4.25532C39.6007 4.27606 39.5695 4.30363 39.5446 4.33642C39.5196 4.36921 39.5014 4.40658 39.4908 4.44643C39.4803 4.48628 39.4778 4.52781 39.4833 4.56865C39.4888 4.60949 39.5024 4.64885 39.5231 4.68446L39.6785 4.96243Z" fill="black"/>
<path d="M40.1441 10.7336L40.1335 10.7272C40.0972 10.7076 40.0574 10.6953 40.0163 10.6911C39.9752 10.6869 39.9337 10.6908 39.8941 10.7027C39.8546 10.7145 39.8178 10.7341 39.7858 10.7602C39.7539 10.7864 39.7273 10.8185 39.7078 10.8549L39.5525 11.135L39.5473 11.1448C39.5277 11.1812 39.5155 11.221 39.5113 11.2621C39.5072 11.3031 39.5111 11.3446 39.523 11.3841C39.5348 11.4237 39.5544 11.4605 39.5805 11.4925C39.6066 11.5244 39.6387 11.551 39.675 11.5705L40.3562 11.9426C40.395 11.9712 40.4421 11.9861 40.4903 11.9852C40.5458 11.9825 40.5997 11.9657 40.647 11.9363C40.6942 11.907 40.7331 11.8661 40.7601 11.8175L40.9151 11.5382L40.9211 11.5275C40.9406 11.4911 40.9528 11.4511 40.9568 11.41C40.9609 11.3688 40.9568 11.3273 40.9447 11.2877C40.9327 11.2481 40.9129 11.2113 40.8865 11.1794C40.8602 11.1475 40.8278 11.1212 40.7912 11.1018L40.1441 10.7336Z" fill="black"/>
<path d="M33.6891 0.534623L33.6878 1.47629C33.6876 1.60184 33.7893 1.70375 33.9148 1.70392L34.4244 1.7046C34.5499 1.70477 34.6519 1.60313 34.652 1.47758L34.6533 0.535918C34.6535 0.410369 34.5518 0.308454 34.4263 0.308286L33.9167 0.307601C33.7911 0.307432 33.6892 0.409073 33.6891 0.534623Z" fill="black"/>
<path d="M26.863 8.4373H27.6386C27.6497 8.43788 27.6608 8.43788 27.6718 8.4373C27.7104 8.43518 27.7482 8.42548 27.783 8.40872C27.8179 8.39196 27.8491 8.36849 27.8748 8.33966C27.9005 8.31083 27.9204 8.27721 27.9331 8.24071C27.9458 8.20421 27.9512 8.16555 27.949 8.12696V7.78427C27.949 7.70192 27.9163 7.62295 27.8581 7.56469C27.7999 7.50642 27.721 7.47362 27.6386 7.47351H26.8634C26.781 7.47374 26.7022 7.50653 26.6439 7.56476C26.5857 7.62299 26.5529 7.70192 26.5526 7.78427V8.12696C26.5526 8.20927 26.5853 8.28821 26.6435 8.34641C26.7017 8.40461 26.7807 8.4373 26.863 8.4373Z" fill="black"/>
<path d="M27.6071 4.71484L28.2883 5.08733C28.3369 5.11577 28.3924 5.13048 28.4488 5.12989C28.5019 5.12929 28.5542 5.11661 28.6017 5.09279C28.6492 5.06896 28.6907 5.03462 28.7229 4.99239L28.8778 4.71226L28.883 4.70291C28.9026 4.66657 28.9148 4.62674 28.9189 4.58567C28.9231 4.54461 28.9192 4.50314 28.9073 4.4636C28.8954 4.42407 28.8759 4.38724 28.8498 4.35526C28.8237 4.32327 28.7916 4.29676 28.7552 4.2772L28.1039 3.87363L28.0941 3.86768C28.0578 3.8481 28.018 3.83587 27.9769 3.8317C27.9358 3.82752 27.8944 3.83145 27.8548 3.84331C27.8153 3.85517 27.7785 3.87472 27.7465 3.90081C27.7145 3.9269 27.688 3.95904 27.6684 3.99539L27.4824 4.27466L27.4764 4.28528C27.4564 4.32198 27.4439 4.36231 27.4397 4.4039C27.4354 4.44548 27.4395 4.48748 27.4517 4.52747C27.4638 4.56746 27.4839 4.60464 27.5106 4.63681C27.5372 4.66898 27.57 4.6955 27.6071 4.71484Z" fill="black"/>
<path d="M32.1273 13.798H30.5164L30.4363 14.3514H32.0859L32.1273 13.798Z" fill="black"/>
<path d="M30.1451 16.345L31.9391 16.342L31.9774 15.7886H30.2252L30.1451 16.345Z" fill="black"/>
<path d="M32.0544 14.7917H30.3703L30.2899 15.3452H32.0115L32.0544 14.7917Z" fill="black"/>
<path d="M29.1776 13.798H27.5663L27.4134 14.3514H29.0631L29.1776 13.798Z" fill="black"/>
<path d="M33.4652 13.798L33.458 14.3514H35.1072L35.0761 13.798H33.4652Z" fill="black"/>
<path d="M33.4431 15.3468H35.1651L35.1344 14.7933H33.4508L33.4431 15.3468Z" fill="black"/>
<path d="M26.8592 16.345L28.6531 16.342L28.7676 15.7886H27.0154L26.8592 16.345Z" fill="black"/>
<path d="M28.9694 14.7917H27.2899L27.1333 15.3452H28.8583L28.9694 14.7917Z" fill="black"/>
<path d="M36.4154 13.798L36.4805 14.3514H38.1314L38.0241 13.798H36.4154Z" fill="black"/>
<path d="M41.7912 16.342L41.6119 15.7886H39.8593L39.9968 16.3458L41.7912 16.342Z" fill="black"/>
<path d="M39.6138 14.7917L39.7513 15.3452H41.4728L41.2931 14.7917H39.6138Z" fill="black"/>
<path d="M39.3693 13.798L39.5068 14.3514H41.156L40.9759 13.798H39.3693Z" fill="black"/>
<path d="M36.5342 14.7917L36.5989 15.3452H38.3183L38.2136 14.7917H36.5342Z" fill="black"/>
<path d="M33.4265 16.3448H35.2204L35.1898 15.7914H33.4333L33.4265 16.3448Z" fill="black"/>
<path d="M38.5065 16.342L38.4026 15.7886H36.6508L36.7155 16.3458L38.5065 16.342Z" fill="black"/>
<path d="M43.9943 17.0138L42.3153 12.7823C42.2593 12.6399 42.1621 12.5175 42.036 12.4308C41.9099 12.3442 41.7607 12.2973 41.6077 12.2961H38.7742L37.7624 13.1531H41.4809L43.0134 17.0096H25.4134L26.6386 13.1544H30.4372L29.4939 12.2979H26.5092C26.3446 12.2972 26.1842 12.3497 26.0519 12.4476C25.9195 12.5455 25.8224 12.6835 25.7748 12.8411L24.4279 17.0496C24.3872 17.165 24.3749 17.2884 24.3919 17.4096C24.409 17.5307 24.4549 17.646 24.5259 17.7456C24.5969 17.8453 24.6907 17.9264 24.7996 17.9821C24.9086 18.0378 25.0293 18.0665 25.1516 18.0658H43.2867C43.3862 18.0659 43.4847 18.047 43.5771 18.01C43.764 17.9327 43.9129 17.7845 43.991 17.5979C44.0692 17.4113 44.0704 17.2013 43.9943 17.0138Z" fill="black"/>
</g>
</g>
<defs>
<filter id="filter0_dd_269_12837" x="0.526484" y="0.307616" width="67.3812" height="65.4619" filterUnits="userSpaceOnUse" color-interpolation-filters="sRGB">
<feFlood flood-opacity="0" result="BackgroundImageFix"/>
<feColorMatrix in="SourceAlpha" type="matrix" values="0 0 0 0 0 0 0 0 0 0 0 0 0 0 0 0 0 0 127 0" result="hardAlpha"/>
<feMorphology radius="5.96294" operator="erode" in="SourceAlpha" result="effect1_dropShadow_269_12837"/>
<feOffset dy="11.9259"/>
<feGaussianBlur stdDeviation="5.96294"/>
<feComposite in2="hardAlpha" operator="out"/>
<feColorMatrix type="matrix" values="0 0 0 0 0 0 0 0 0 0 0 0 0 0 0 0 0 0 0.04 0"/>
<feBlend mode="normal" in2="BackgroundImageFix" result="effect1_dropShadow_269_12837"/>
<feColorMatrix in="SourceAlpha" type="matrix" values="0 0 0 0 0 0 0 0 0 0 0 0 0 0 0 0 0 0 127 0" result="hardAlpha"/>
<feMorphology radius="5.96294" operator="erode" in="SourceAlpha" result="effect2_dropShadow_269_12837"/>
<feOffset dy="23.8517"/>
<feGaussianBlur stdDeviation="14.9073"/>
<feComposite in2="hardAlpha" operator="out"/>
<feColorMatrix type="matrix" values="0 0 0 0 0 0 0 0 0 0 0 0 0 0 0 0 0 0 0.1 0"/>
<feBlend mode="normal" in2="effect1_dropShadow_269_12837" result="effect2_dropShadow_269_12837"/>
<feBlend mode="normal" in="SourceGraphic" in2="effect2_dropShadow_269_12837" result="shape"/>
</filter>
<clipPath id="clip0_269_12837">
<rect width="19.6777" height="17.7584" fill="white" transform="translate(24.3782 0.307617)"/>
</clipPath>
<clipPath id="clip1_269_12837">
<rect width="19.6677" height="17.7584" fill="white" transform="translate(24.3834 0.307495)"/>
</clipPath>
</defs>
</svg>
