<svg width="487" height="699" viewBox="0 0 487 699" fill="none" xmlns="http://www.w3.org/2000/svg">
<mask id="path-1-inside-1_269_12889" fill="white">
<path d="M327.905 697.129C328.958 698.547 330.965 698.843 332.375 697.777C403.383 644.115 453.814 567.646 475.153 481.17C496.748 393.657 487.203 301.357 448.157 220.116C409.11 138.875 342.998 73.7613 261.173 35.9556C180.316 -1.4024 89.0995 -9.79274 2.83737 12.133C1.12481 12.5683 0.102231 14.3198 0.551626 16.0287V16.0287C1.00102 17.7376 2.7522 18.7568 4.46482 18.3218C89.2893 -3.22611 178.981 5.02993 258.489 41.7645C338.965 78.9468 403.987 142.986 442.389 222.888C480.792 302.789 490.18 393.568 468.941 479.637C447.957 564.669 398.374 639.865 328.559 692.64C327.149 693.706 326.851 695.71 327.905 697.129V697.129Z"/>
</mask>
<path d="M327.905 697.129C328.958 698.547 330.965 698.843 332.375 697.777C403.383 644.115 453.814 567.646 475.153 481.17C496.748 393.657 487.203 301.357 448.157 220.116C409.11 138.875 342.998 73.7613 261.173 35.9556C180.316 -1.4024 89.0995 -9.79274 2.83737 12.133C1.12481 12.5683 0.102231 14.3198 0.551626 16.0287V16.0287C1.00102 17.7376 2.7522 18.7568 4.46482 18.3218C89.2893 -3.22611 178.981 5.02993 258.489 41.7645C338.965 78.9468 403.987 142.986 442.389 222.888C480.792 302.789 490.18 393.568 468.941 479.637C447.957 564.669 398.374 639.865 328.559 692.64C327.149 693.706 326.851 695.71 327.905 697.129V697.129Z" stroke="#FAD401" stroke-width="10" stroke-linejoin="round" mask="url(#path-1-inside-1_269_12889)"/>
</svg>
