<?xml version="1.0" encoding="utf-8"?>
<!-- Generator: Adobe Illustrator 27.0.1, SVG Export Plug-In . SVG Version: 6.00 Build 0)  -->
<svg version="1.1" id="new" xmlns="http://www.w3.org/2000/svg" xmlns:xlink="http://www.w3.org/1999/xlink" x="0px" y="0px"
	 viewBox="0 0 152 67" style="enable-background:new 0 0 152 67;" xml:space="preserve">
<style type="text/css">
	.st0{fill:#FFFFFF;}
	.st1{fill:#F18A00;}
</style>
<g>
	<g>
		<g>
			<path class="st0" d="M4.8,58.1h8.9v1.1H4.8v6h9.6v1.1H3.7V51.1h10.5v1.1H4.8V58.1z"/>
			<path class="st0" d="M33.3,51.1l-6.3,15.3h-1.3l-6.3-15.3h1.3l5.7,14l5.7-14H33.3z"/>
			<path class="st0" d="M50.3,66.4h-11c0-5.1,0-10.2,0-15.3h10.8v1.4h-9.2V58h8.8v1.4h-8.8v5.5h9.4V66.4z"/>
			<path class="st0" d="M62.5,60.9h-3.7v5.5h-1.9V51.1h6.9c3.4,0,5.2,2.4,5.2,4.9c0,2.3-1.2,4.5-4.4,4.7l5,5.7h-2.4L62.5,60.9z
				 M67.1,56c0-1.5-1.1-3.2-3.3-3.2h-5v6.4h5C66,59.2,67.1,57.7,67.1,56z"/>
			<path class="st0" d="M84.7,54.5c-0.7-1-2.2-1.7-3.8-1.7c-2.1,0-3.5,0.9-3.5,2.3c0,1.5,1.7,1.9,3.7,2.2c3.1,0.4,6.1,1.3,6.1,4.7
				c0,3.4-3.1,4.7-6.3,4.7c-2.9,0-5.2-0.9-6.6-3.5l1.8-1.2c1.1,1.9,3,2.5,4.8,2.5c1.8,0,3.9-0.6,3.9-2.5c0-1.7-1.8-2.2-3.9-2.5
				c-3-0.4-5.9-1.2-5.9-4.5c0-3.2,3.1-4.4,5.9-4.4c2.2,0,4.4,0.5,5.7,2.6L84.7,54.5z"/>
			<path class="st0" d="M103.5,63.1h-8.3l-1.4,3.2h-2.6l6.9-15.3h2.7l6.9,15.3H105L103.5,63.1z M99.4,53.7l-3.2,7.3h6.5L99.4,53.7z"
				/>
			<path class="st0" d="M123.5,61.9V51.1h2.4v15.3h-1.9l-8.7-10.8v10.8H113V51.1h1.9L123.5,61.9z"/>
			<path class="st0" d="M143.7,63.1h-8.3l-1.4,3.2h-2.6l6.9-15.3h2.7l6.9,15.3h-2.6L143.7,63.1z M139.6,53.7l-3.2,7.3h6.5
				L139.6,53.7z"/>
		</g>
		<g>
			<g>
				<polygon class="st1" points="74.3,33.7 70,26.1 68.4,26.1 71.7,32.1 70.1,32.1 66.7,26.1 65.1,26.1 68.4,32.1 66.8,32.1 
					63.4,26.1 61.7,26.1 66,33.7 				"/>
				<polygon class="st1" points="89.5,26.5 80.7,26.5 79.9,27.9 86.8,27.9 86,29.4 79.1,29.4 78.3,30.8 85.2,30.8 84.3,32.3 
					77.5,32.3 76.7,33.7 85.4,33.7 				"/>
				<polygon class="st1" points="77.2,0.3 81.5,7.9 83.1,7.9 79.8,1.9 81.4,1.9 84.8,7.9 86.4,7.9 83.1,1.9 84.7,1.9 88.1,7.9 
					89.7,7.9 85.4,0.3 				"/>
				<polygon class="st1" points="62,7.5 70.7,7.5 71.5,6.1 64.7,6.1 65.5,4.6 72.3,4.6 73.1,3.2 66.3,3.2 67.1,1.7 73.9,1.7 
					74.7,0.3 66,0.3 				"/>
				<polygon class="st1" points="60.7,24.1 65,16.5 64.2,15.1 60.8,21 59.9,19.6 63.3,13.7 62.4,12.2 59.1,18.2 58.2,16.8 
					61.6,10.8 60.7,9.4 56.4,17 				"/>
				<polygon class="st1" points="90.7,9.9 86.4,17.5 87.3,18.9 90.6,13 91.5,14.4 88.1,20.3 89,21.7 92.3,15.8 93.2,17.2 89.8,23.2 
					90.7,24.6 95,17 				"/>
				<polygon class="st1" points="75.3,18.1 74.5,19.5 78,25.7 77.2,27.1 73.7,21 72.9,22.4 76.4,28.6 75.5,30 72.1,23.8 71.3,25.3 
					75.5,32.9 79.6,25.7 				"/>
				<polygon class="st1" points="74.4,17.2 72.8,17.2 69.1,23.3 67.4,23.3 71.1,17.2 69.5,17.2 65.8,23.3 64.1,23.3 67.8,17.2 
					66.2,17.2 61.6,24.7 69.9,24.7 				"/>
				<polygon class="st1" points="75.1,15.9 74.2,14.5 67.1,14.5 66.3,13.1 73.4,13.1 72.5,11.7 65.4,11.7 64.5,10.3 71.6,10.2 
					70.8,8.8 62,8.9 66.3,15.9 				"/>
				<polygon class="st1" points="76.6,18.1 77.4,19.5 84.5,19.5 85.4,20.9 78.3,20.9 79.2,22.3 86.2,22.3 87.1,23.7 80,23.7 
					80.9,25.1 89.6,25.1 85.3,18 				"/>
				<polygon class="st1" points="76.9,16.7 78.6,16.7 82.3,10.6 83.9,10.6 80.3,16.7 81.9,16.7 85.6,10.6 87.2,10.6 83.6,16.7 
					85.2,16.7 89.7,9.2 81.5,9.2 				"/>
				<polygon class="st1" points="76.2,15.4 77,14 73.6,7.8 74.4,6.4 77.9,12.6 78.7,11.1 75.2,5 76,3.5 79.5,9.7 80.3,8.2 76,0.6 
					71.9,7.8 				"/>
			</g>
		</g>
	</g>
	<path class="st0" d="M151.5,52.8c0,1.1-0.7,2.1-2.1,2.1c-1.3,0-2.1-1-2.1-2.1c0-1.1,0.7-2.1,2.1-2.1
		C150.7,50.8,151.5,51.7,151.5,52.8z M147.8,52.8c0,0.9,0.6,1.7,1.6,1.7c1,0,1.6-0.8,1.6-1.7c0-0.9-0.6-1.7-1.6-1.7
		C148.4,51.1,147.8,51.9,147.8,52.8L147.8,52.8z M149.8,53.1c0.8-0.1,0.7-1.4-0.2-1.4h-1v2.1h0.4v-0.7h0.4l0.6,0.7h0.4v-0.1
		L149.8,53.1L149.8,53.1z M149.6,52.1c0.5,0,0.5,0.7,0,0.7H149v-0.7H149.6z"/>
</g>
</svg>
