<?xml version="1.0" standalone="no"?>
<!DOCTYPE svg PUBLIC "-//W3C//DTD SVG 20010904//EN"
 "http://www.w3.org/TR/2001/REC-SVG-20010904/DTD/svg10.dtd">
<svg version="1.0" xmlns="http://www.w3.org/2000/svg"
 width="116.000000pt" height="116.000000pt" viewBox="0 0 116.000000 116.000000"
 preserveAspectRatio="xMidYMid meet">
<metadata>
Created by potrace 1.14, written by Peter Selinger 2001-2017
</metadata>
<g transform="translate(0.000000,116.000000) scale(0.100000,-0.100000)"
fill="#000000" stroke="none">
<path d="M246 1108 c27 -76 134 -270 180 -328 7 -8 22 -26 33 -40 27 -35 37
-19 20 32 -23 71 -166 313 -216 366 -24 25 -32 12 -17 -30z"/>
<path d="M551 894 c-15 -56 -3 -154 19 -154 26 0 32 152 7 177 -14 14 -17 12
-26 -23z"/>
<path d="M727 884 c-14 -15 -31 -38 -39 -53 -7 -14 -16 -28 -20 -31 -3 -3 -9
-22 -13 -43 -6 -28 -4 -37 6 -37 13 0 74 73 74 88 0 4 4 13 8 20 15 23 26 72
17 77 -5 3 -20 -7 -33 -21z"/>
<path d="M60 871 c0 -35 295 -211 354 -211 19 0 19 0 0 22 -56 63 -354 222
-354 189z"/>
<path d="M908 789 c-78 -21 -214 -118 -188 -134 15 -9 143 54 189 93 40 33 39
52 -1 41z"/>
<path d="M180 603 c-8 -1 -36 -5 -62 -8 -59 -8 -65 -31 -10 -37 44 -6 238 -3
266 4 37 9 28 27 -16 33 -48 6 -155 12 -178 8z"/>
<path d="M771 588 c-85 -19 -11 -40 139 -39 82 0 120 4 140 11 3 1 8 2 13 1
11 -2 8 17 -5 25 -18 12 -238 13 -287 2z"/>
<path d="M360 481 c-104 -47 -186 -113 -156 -124 28 -11 238 114 221 131 -11
11 -30 9 -65 -7z"/>
<path d="M716 477 c6 -16 138 -105 224 -149 123 -65 171 -69 105 -9 -19 17
-37 31 -40 31 -2 0 -30 16 -60 36 -71 45 -194 104 -217 104 -10 0 -15 -5 -12
-13z"/>
<path d="M426 377 c-37 -53 -60 -113 -50 -129 9 -13 33 11 71 69 67 105 48
160 -21 60z"/>
<path d="M650 411 c0 -29 91 -204 159 -307 60 -92 91 -120 91 -85 0 25 -82
191 -130 261 -22 32 -40 62 -40 65 0 10 -64 85 -72 85 -5 0 -8 -9 -8 -19z"/>
<path d="M552 393 c-10 -27 -6 -137 5 -158 10 -17 11 -17 23 4 13 25 17 115 6
149 -9 26 -24 29 -34 5z"/>
</g>
</svg>
