<svg width="19" height="19" viewBox="0 0 19 19" fill="none" xmlns="http://www.w3.org/2000/svg">
<g id="&#240;&#159;&#166;&#134; icon &#34;clock&#34;">
<path id="Vector" d="M9.5 0C4.2655 0 0 4.2655 0 9.5C0 14.7345 4.2655 19 9.5 19C14.7345 19 19 14.7345 19 9.5C19 4.2655 14.7345 0 9.5 0ZM13.6325 12.8915C13.4995 13.1195 13.262 13.243 13.015 13.243C12.8915 13.243 12.768 13.2145 12.654 13.1385L9.709 11.381C8.9775 10.944 8.436 9.9845 8.436 9.139V5.244C8.436 4.8545 8.759 4.5315 9.1485 4.5315C9.538 4.5315 9.861 4.8545 9.861 5.244V9.139C9.861 9.481 10.146 9.9845 10.4405 10.1555L13.3855 11.913C13.7275 12.1125 13.8415 12.5495 13.6325 12.8915Z" fill="#CCCCCC"/>
</g>
</svg>
