<svg width="304" height="304" viewBox="0 0 304 304" fill="none" xmlns="http://www.w3.org/2000/svg">
<path d="M304 232.499H0V232.651H304V232.499Z" fill="#EBEBEB"/>
<path d="M273.539 242.282H253.402V242.434H273.539V242.282Z" fill="#EBEBEB"/>
<path d="M201.382 243.936H196.098V244.088H201.382V243.936Z" fill="#EBEBEB"/>
<path d="M252.794 236.64H241.127V236.792H252.794V236.64Z" fill="#EBEBEB"/>
<path d="M58.1553 237.661H31.8958V237.813H58.1553V237.661Z" fill="#EBEBEB"/>
<path d="M67.4212 237.661H63.5725V237.813H67.4212V237.661Z" fill="#EBEBEB"/>
<path d="M136.891 240.227H79.9338V240.379H136.891V240.227Z" fill="#EBEBEB"/>
<path d="M144.096 205.382H26.6973C25.7776 205.381 24.8961 205.014 24.2464 204.363C23.5966 203.712 23.2317 202.83 23.2317 201.911V36.8812C23.2397 35.9668 23.6082 35.0925 24.257 34.4481C24.9059 33.8038 25.7828 33.4415 26.6973 33.4399H144.096C145.017 33.4399 145.9 33.8057 146.551 34.4568C147.202 35.1078 147.568 35.9909 147.568 36.9116V201.911C147.568 202.831 147.202 203.714 146.551 204.366C145.9 205.017 145.017 205.382 144.096 205.382ZM26.6973 33.5615C25.8179 33.5632 24.9751 33.9136 24.3539 34.536C23.7326 35.1584 23.3837 36.0018 23.3837 36.8812V201.911C23.3837 202.79 23.7326 203.633 24.3539 204.256C24.9751 204.878 25.8179 205.229 26.6973 205.23H144.096C144.976 205.229 145.819 204.878 146.442 204.256C147.064 203.634 147.414 202.791 147.416 201.911V36.8812C147.414 36.0013 147.064 35.1578 146.442 34.5356C145.819 33.9134 144.976 33.5631 144.096 33.5615H26.6973Z" fill="#EBEBEB"/>
<path d="M275.613 205.382H158.208C157.288 205.381 156.405 205.014 155.755 204.364C155.104 203.713 154.738 202.831 154.736 201.911V36.8812C154.746 35.9663 155.115 35.0919 155.765 34.4478C156.415 33.8036 157.293 33.4415 158.208 33.4399H275.613C276.526 33.4431 277.401 33.8061 278.049 34.4503C278.696 35.0944 279.064 35.9679 279.072 36.8812V201.911C279.072 202.829 278.708 203.711 278.06 204.361C277.411 205.012 276.531 205.379 275.613 205.382ZM158.208 33.5615C157.328 33.5631 156.484 33.9134 155.862 34.5356C155.24 35.1578 154.89 36.0013 154.888 36.8812V201.911C154.89 202.791 155.24 203.634 155.862 204.256C156.484 204.878 157.328 205.229 158.208 205.23H275.613C276.493 205.229 277.336 204.878 277.958 204.256C278.58 203.634 278.931 202.791 278.932 201.911V36.8812C278.931 36.0013 278.58 35.1578 277.958 34.5356C277.336 33.9134 276.493 33.5631 275.613 33.5615H158.208Z" fill="#EBEBEB"/>
<path d="M188.17 228.955H175.335L182.084 174.01C182.246 172.862 182.809 171.809 183.674 171.038C184.539 170.266 185.649 169.826 186.808 169.796H242.805L234.597 228.955H188.17Z" fill="#F5F5F5"/>
<path d="M228.869 228.955H241.704L248.453 174.01C248.536 173.481 248.502 172.941 248.353 172.427C248.204 171.914 247.944 171.439 247.592 171.037C247.239 170.635 246.802 170.315 246.312 170.101C245.822 169.887 245.291 169.782 244.756 169.796H240.348C239.189 169.825 238.077 170.264 237.211 171.036C236.345 171.807 235.78 172.861 235.618 174.01L228.869 228.955Z" fill="#F0F0F0"/>
<path d="M224.145 228.894L226.468 202.312C226.521 201.739 226.768 201.2 227.168 200.786C227.568 200.371 228.097 200.106 228.669 200.032L229.629 199.91C230.393 199.814 231.102 199.46 231.639 198.908C232.176 198.355 232.509 197.637 232.584 196.87L233.004 192.006C233.045 191.537 232.988 191.065 232.837 190.618C232.686 190.172 232.444 189.762 232.126 189.415C231.808 189.067 231.422 188.79 230.991 188.599C230.56 188.409 230.094 188.311 229.623 188.31H251.067C251.539 188.31 252.005 188.408 252.437 188.598C252.869 188.787 253.256 189.065 253.574 189.413C253.893 189.76 254.136 190.171 254.287 190.617C254.438 191.064 254.495 191.537 254.454 192.006L254.028 196.87C253.954 197.637 253.621 198.356 253.084 198.909C252.547 199.461 251.838 199.815 251.074 199.91L250.119 200.032C249.546 200.106 249.015 200.374 248.615 200.791C248.215 201.207 247.969 201.749 247.918 202.324L245.589 228.906C245.507 229.84 245.079 230.709 244.388 231.343C243.697 231.976 242.794 232.328 241.856 232.329H220.406C221.346 232.328 222.251 231.975 222.944 231.339C223.636 230.703 224.065 229.83 224.145 228.894Z" fill="#E6E6E6"/>
<path d="M165.121 195.66C164.944 193.647 164.02 191.773 162.53 190.408C161.04 189.043 159.092 188.285 157.071 188.285H175.742C177.763 188.285 179.711 189.043 181.201 190.408C182.692 191.773 183.616 193.647 183.792 195.66L185.616 216.728H166.963L165.121 195.66Z" fill="#E6E6E6"/>
<path d="M148.778 188.285H157.071C159.092 188.285 161.039 189.043 162.53 190.408C164.02 191.773 164.944 193.647 165.121 195.66L166.945 216.728H211.414L213.238 195.66C213.416 193.643 214.344 191.767 215.839 190.401C217.334 189.036 219.287 188.281 221.312 188.285H229.611C230.082 188.286 230.548 188.385 230.979 188.575C231.41 188.765 231.796 189.043 232.114 189.391C232.432 189.738 232.674 190.148 232.825 190.594C232.976 191.04 233.033 191.513 232.992 191.982L232.572 196.846C232.497 197.613 232.164 198.331 231.627 198.883C231.09 199.436 230.381 199.789 229.617 199.886L228.657 200.008C228.083 200.082 227.553 200.349 227.152 200.766C226.752 201.183 226.506 201.724 226.456 202.3L224.133 228.882C224.05 229.816 223.62 230.685 222.928 231.319C222.236 231.952 221.332 232.304 220.394 232.305H157.989C157.051 232.304 156.148 231.952 155.457 231.318C154.766 230.685 154.338 229.815 154.256 228.882L151.927 202.3C151.876 201.724 151.63 201.183 151.23 200.766C150.83 200.349 150.299 200.082 149.726 200.008L148.771 199.886C148.007 199.79 147.298 199.437 146.761 198.884C146.224 198.332 145.891 197.613 145.817 196.846L145.391 191.982C145.35 191.512 145.407 191.039 145.558 190.593C145.709 190.146 145.952 189.736 146.271 189.388C146.589 189.041 146.976 188.763 147.408 188.573C147.84 188.383 148.306 188.285 148.778 188.285Z" fill="#F0F0F0"/>
<path d="M56.246 79.8608C56.246 79.8608 55.5346 75.1609 58.9577 72.1513C62.3807 69.1417 62.0828 67.3481 61.1039 67.111C60.125 66.8739 59.2252 69.8896 57.7173 70.7164C57.7173 70.7164 57.6687 66.424 59.2009 64.8432C60.733 63.2624 61.5356 59.1888 60.0764 59.1219C58.6172 59.055 58.4713 61.5539 58.1673 63.3049C57.8633 65.056 56.246 67.5609 56.246 67.5609C56.246 67.5609 55.9298 63.7244 54.9388 62.1376C53.9477 60.5507 56.5865 56.9452 55.5468 55.3644C54.5071 53.7836 52.75 56.7872 52.8959 60.192C53.0418 63.5968 55.3279 67.1961 54.7807 70.7347C54.7807 70.7347 53.7836 68.254 52.8898 68.0291C51.9961 67.8041 51.0658 66.1564 50.4882 65.5484C49.9106 64.9404 49.1324 67.0502 50.4882 69.008C51.8441 70.9657 55.3279 76.1824 54.7807 80.414L56.246 79.8608Z" fill="#E6E6E6"/>
<path d="M58.2951 77.7205L59.4199 84.7611C59.5006 85.2727 59.4696 85.7958 59.329 86.2943C59.1884 86.7929 58.9415 87.255 58.6052 87.649C58.269 88.0431 57.8514 88.3596 57.3812 88.5768C56.911 88.7941 56.3993 88.907 55.8813 88.9077H54.6653C54.1475 88.9071 53.636 88.7943 53.166 88.577C52.696 88.3597 52.2788 88.043 51.943 87.6489C51.6072 87.2547 51.3609 86.7924 51.221 86.2939C51.0811 85.7953 51.0511 85.2724 51.1328 84.7611L52.288 77.7205H58.2951Z" fill="#E6E6E6"/>
<path d="M41.3258 90.3853L120.633 90.3853V86.3117L41.3258 86.3117V90.3853Z" fill="#E0E0E0"/>
<path d="M113.483 86.3054H116.979V71.2878H113.483V86.3054Z" fill="#EBEBEB"/>
<path d="M96.5929 86.3054H100.089V71.2878H96.5929V86.3054Z" fill="#EBEBEB"/>
<path d="M74.8612 85.714L78.3064 86.3079L80.8574 71.5085L77.4122 70.9147L74.8612 85.714Z" fill="#EBEBEB"/>
<path d="M109.154 86.3115H112.65V73.2699H109.154V86.3115Z" fill="#EBEBEB"/>
<path d="M101.123 86.3115H104.619V73.2699H101.123V86.3115Z" fill="#EBEBEB"/>
<path d="M80.858 86.3115H84.354V73.2699H80.858V86.3115Z" fill="#EBEBEB"/>
<path d="M89.1805 85.5416L92.5933 86.3L95.4226 73.5691L92.0099 72.8106L89.1805 85.5416Z" fill="#EBEBEB"/>
<path d="M106.139 86.3115H107.884V70.5461H106.139V86.3115Z" fill="#EBEBEB"/>
<path d="M85.3571 86.3115H87.1021V70.5461H85.3571V86.3115Z" fill="#EBEBEB"/>
<path d="M120.633 116.724H41.3257V120.797H120.633V116.724Z" fill="#E0E0E0"/>
<path d="M48.4699 101.706H44.9739V116.724H48.4699V101.706Z" fill="#EBEBEB"/>
<path d="M65.3661 101.706H61.8701V116.724H65.3661V101.706Z" fill="#EBEBEB"/>
<path d="M84.5428 101.329L81.0977 101.923L83.6486 116.722L87.0938 116.129L84.5428 101.329Z" fill="#EBEBEB"/>
<path d="M52.7987 103.688H49.3027V116.73H52.7987V103.688Z" fill="#EBEBEB"/>
<path d="M60.8305 103.688H57.3345V116.73H60.8305V103.688Z" fill="#EBEBEB"/>
<path d="M81.1012 103.688H77.6052V116.73H81.1012V103.688Z" fill="#EBEBEB"/>
<path d="M69.9572 103.236L66.5444 103.994L69.3738 116.725L72.7866 115.967L69.9572 103.236Z" fill="#EBEBEB"/>
<path d="M55.8204 100.958H54.0754V116.724H55.8204V100.958Z" fill="#EBEBEB"/>
<path d="M76.6019 100.958H74.8569V116.724H76.6019V100.958Z" fill="#EBEBEB"/>
<path d="M113.021 104.837H95.9971V116.59H113.021V104.837Z" fill="#EBEBEB"/>
<path d="M249.481 75.5195H181.269V150.96H249.481V75.5195Z" fill="#E0E0E0"/>
<path d="M251.657 75.5195H180.91V150.96H251.657V75.5195Z" fill="#F0F0F0"/>
<path d="M248.666 77.9272H183.792V147.495H248.666V77.9272Z" fill="white"/>
<path d="M248.666 77.9272H246.787V147.495H248.666V77.9272Z" fill="#E0E0E0"/>
<path d="M183.622 127.947V129.826H246.988V127.947H183.622Z" fill="#E0E0E0"/>
<path d="M248.666 124.804H182.783V127.954H248.666V124.804Z" fill="#F0F0F0"/>
<path d="M152 259.957C217.106 259.957 269.885 256.875 269.885 253.074C269.885 249.273 217.106 246.191 152 246.191C86.894 246.191 34.115 249.273 34.115 253.074C34.115 256.875 86.894 259.957 152 259.957Z" fill="#F5F5F5"/>
<path d="M198.919 243.048C199.006 242.862 199.046 242.658 199.038 242.453C199.03 242.248 198.972 242.049 198.871 241.87C198.77 241.692 198.628 241.54 198.457 241.428C198.285 241.315 198.09 241.246 197.886 241.224C198.07 240.689 198.085 240.11 197.928 239.566C197.771 239.022 197.451 238.539 197.01 238.184C196.906 238.088 196.774 238.028 196.633 238.014C196.481 238.029 196.339 238.093 196.226 238.196L193.794 239.923C193.601 240.042 193.439 240.205 193.32 240.397C192.827 241.352 194.596 242.574 193.867 243.358C193.66 243.583 193.326 243.632 193.064 243.796C192.487 244.154 192.42 244.939 192.152 245.559C191.885 246.179 190.936 246.666 190.596 246.088C190.857 245.48 190.067 244.981 189.416 244.908C188.766 244.835 188.097 244.793 187.738 244.191C186.82 244.987 184.765 242.75 184.814 241.85C184.451 241.915 184.118 242.092 183.861 242.356C183.604 242.62 183.435 242.957 183.379 243.322C183.273 244.066 183.247 244.821 183.3 245.571C183.3 247.03 182.807 248.459 182.832 249.918C182.832 251.055 183.294 252.32 184.333 252.776C184.852 252.959 185.402 253.033 185.951 252.995L197.801 252.916C198.085 252.937 198.37 252.891 198.634 252.782C199.169 252.502 199.278 251.797 199.327 251.195L199.965 243.474L198.919 243.048Z" fill="#B0EF8F"/>
<path opacity="0.3" d="M198.919 243.048C199.006 242.862 199.046 242.658 199.038 242.453C199.03 242.248 198.972 242.049 198.871 241.87C198.77 241.692 198.628 241.54 198.457 241.428C198.285 241.315 198.09 241.246 197.886 241.224C198.07 240.689 198.085 240.11 197.928 239.566C197.771 239.022 197.451 238.539 197.01 238.184C196.906 238.088 196.774 238.028 196.633 238.014C196.481 238.029 196.339 238.093 196.226 238.196L193.794 239.923C193.601 240.042 193.439 240.205 193.32 240.397C192.827 241.352 194.596 242.574 193.867 243.358C193.66 243.583 193.326 243.632 193.064 243.796C192.487 244.154 192.42 244.939 192.152 245.559C191.885 246.179 190.936 246.666 190.596 246.088C190.857 245.48 190.067 244.981 189.416 244.908C188.766 244.835 188.097 244.793 187.738 244.191C186.82 244.987 184.765 242.75 184.814 241.85C184.451 241.915 184.118 242.092 183.861 242.356C183.604 242.62 183.435 242.957 183.379 243.322C183.273 244.066 183.247 244.821 183.3 245.571C183.3 247.03 182.807 248.459 182.832 249.918C182.832 251.055 183.294 252.32 184.333 252.776C184.852 252.959 185.402 253.033 185.951 252.995L197.801 252.916C198.085 252.937 198.37 252.891 198.634 252.782C199.169 252.502 199.278 251.797 199.327 251.195L199.965 243.474L198.919 243.048Z" fill="white"/>
<path d="M199.606 230.523H181.22L181.372 232.384L181.482 233.709L181.762 237.156L181.92 239.145L182.132 241.783L182.224 242.914L182.254 243.249L182.364 244.58L182.509 246.404L182.601 247.535L182.692 248.684L182.801 250.016L182.886 251.025L182.978 252.156L183.014 252.648H199.886L199.929 252.156L200.02 251.025L200.099 250.01L200.208 248.678L200.306 247.535L200.397 246.404L200.543 244.58L200.652 243.255V242.92L200.743 241.789L200.956 239.151L201.12 237.169L201.394 233.715L201.503 232.39L201.655 230.529L199.606 230.523ZM200.713 231.739L200.36 231.387H200.743L200.713 231.739ZM200.64 232.864L200.61 233.314L198.962 234.956L197.071 233.071L198.761 231.38H199.163L200.64 232.864ZM200.166 238.749L198.95 239.965L197.059 238.075L198.95 236.196L200.251 237.497L200.166 238.749ZM182.668 237.485L183.975 236.184L185.86 238.062L183.975 239.953L182.759 238.737L182.668 237.485ZM198.354 235.57L196.463 237.454L194.578 235.57L196.463 233.679L198.354 235.57ZM195.387 231.38H197.545L196.463 232.463L195.387 231.38ZM195.849 238.068L193.964 239.959L192.079 238.068L193.964 236.19L195.849 238.068ZM189.58 240.567L191.471 238.683L193.356 240.567L191.471 242.458L189.58 240.567ZM190.857 243.066L188.966 244.951L187.088 243.066L188.972 241.181L190.857 243.066ZM193.964 241.181L195.849 243.066L193.964 244.951L192.079 243.066L193.964 241.181ZM191.471 237.46L189.58 235.576L191.471 233.685L193.356 235.576L191.471 237.46ZM190.863 238.068L188.979 239.959L187.094 238.068L188.979 236.19L190.863 238.068ZM186.48 237.46L184.595 235.576L186.48 233.685L188.364 235.576L186.48 237.46ZM186.48 238.676L188.364 240.561L186.48 242.452L184.595 240.561L186.48 238.676ZM188.364 245.559L186.48 247.444L184.595 245.559L186.48 243.674L188.364 245.559ZM188.972 246.167L190.863 248.058L188.979 249.943L187.094 248.058L188.972 246.167ZM189.58 245.559L191.471 243.674L193.356 245.559L191.471 247.444L189.58 245.559ZM193.964 246.167L195.849 248.058L193.964 249.943L192.079 248.058L193.964 246.167ZM196.445 248.672L198.336 250.563L197.12 251.779H195.776L194.56 250.563L196.445 248.672ZM194.56 245.565L196.445 243.68L198.336 245.565L196.445 247.456L194.56 245.565ZM194.56 240.567L196.445 238.683L198.336 240.567L196.445 242.458L194.56 240.567ZM195.831 233.077L193.946 234.962L192.061 233.077L193.751 231.387H194.147L195.831 233.077ZM191.453 232.469L190.371 231.387H192.529L191.453 232.469ZM190.845 233.077L188.96 234.962L187.076 233.077L188.76 231.387H189.161L190.845 233.077ZM187.538 231.387L186.461 232.469L185.385 231.387H187.538ZM184.163 231.387L185.847 233.077L183.963 234.962L182.321 233.32L182.284 232.87L183.762 231.387H184.163ZM182.546 231.387L182.193 231.739V231.387H182.546ZM182.43 234.652L183.355 235.576L182.564 236.36L182.43 234.652ZM182.941 240.981L182.868 240.087L183.355 240.573L182.941 240.987V240.981ZM183.032 242.112L183.963 241.181L185.847 243.066L183.963 244.951L183.203 244.191L183.032 242.112ZM183.312 245.608V245.523L183.355 245.565L183.312 245.608ZM183.64 249.627L183.403 246.732L183.963 246.173L185.847 248.064L183.963 249.949L183.64 249.627ZM183.817 251.785L183.78 251.353L183.963 251.171L184.571 251.779L183.817 251.785ZM184.577 250.569L186.461 248.678L188.346 250.569L187.13 251.785H185.799L184.577 250.569ZM188.346 251.785L188.954 251.177L189.562 251.785H188.346ZM190.778 251.785L189.562 250.569L191.453 248.678L193.338 250.569L192.122 251.785H190.778ZM193.332 251.785L193.94 251.177L194.548 251.785H193.332ZM199.084 251.785H198.33L198.938 251.177L199.12 251.359L199.084 251.785ZM199.26 249.627L198.938 249.949L197.053 248.064L198.944 246.173L199.503 246.732L199.26 249.627ZM199.594 245.516V245.608L199.558 245.565L199.606 245.516H199.594ZM199.704 244.191L198.938 244.951L197.047 243.066L198.938 241.181L199.868 242.112L199.704 244.191ZM199.959 240.981L199.546 240.567L200.032 240.087L199.959 240.981ZM200.476 234.645L200.336 236.366L199.546 235.576L200.476 234.645Z" fill="#B0EF8F"/>
<g opacity="0.6">
<path d="M199.606 230.523H181.22L181.372 232.384L181.482 233.709L181.762 237.156L181.92 239.145L182.132 241.783L182.224 242.914L182.254 243.249L182.364 244.58L182.509 246.404L182.601 247.535L182.692 248.684L182.801 250.016L182.886 251.025L182.978 252.156L183.014 252.648H199.886L199.929 252.156L200.02 251.025L200.099 250.01L200.208 248.678L200.306 247.535L200.397 246.404L200.543 244.58L200.652 243.255V242.92L200.743 241.789L200.956 239.151L201.12 237.169L201.394 233.715L201.503 232.39L201.655 230.529L199.606 230.523ZM200.713 231.739L200.36 231.387H200.743L200.713 231.739ZM200.64 232.864L200.61 233.314L198.962 234.956L197.071 233.071L198.761 231.38H199.163L200.64 232.864ZM200.166 238.749L198.95 239.965L197.059 238.075L198.95 236.196L200.251 237.497L200.166 238.749ZM182.668 237.485L183.975 236.184L185.86 238.062L183.975 239.953L182.759 238.737L182.668 237.485ZM198.354 235.57L196.463 237.454L194.578 235.57L196.463 233.679L198.354 235.57ZM195.387 231.38H197.545L196.463 232.463L195.387 231.38ZM195.849 238.068L193.964 239.959L192.079 238.068L193.964 236.19L195.849 238.068ZM189.58 240.567L191.471 238.683L193.356 240.567L191.471 242.458L189.58 240.567ZM190.857 243.066L188.966 244.951L187.088 243.066L188.972 241.181L190.857 243.066ZM193.964 241.181L195.849 243.066L193.964 244.951L192.079 243.066L193.964 241.181ZM191.471 237.46L189.58 235.576L191.471 233.685L193.356 235.576L191.471 237.46ZM190.863 238.068L188.979 239.959L187.094 238.068L188.979 236.19L190.863 238.068ZM186.48 237.46L184.595 235.576L186.48 233.685L188.364 235.576L186.48 237.46ZM186.48 238.676L188.364 240.561L186.48 242.452L184.595 240.561L186.48 238.676ZM188.364 245.559L186.48 247.444L184.595 245.559L186.48 243.674L188.364 245.559ZM188.972 246.167L190.863 248.058L188.979 249.943L187.094 248.058L188.972 246.167ZM189.58 245.559L191.471 243.674L193.356 245.559L191.471 247.444L189.58 245.559ZM193.964 246.167L195.849 248.058L193.964 249.943L192.079 248.058L193.964 246.167ZM196.445 248.672L198.336 250.563L197.12 251.779H195.776L194.56 250.563L196.445 248.672ZM194.56 245.565L196.445 243.68L198.336 245.565L196.445 247.456L194.56 245.565ZM194.56 240.567L196.445 238.683L198.336 240.567L196.445 242.458L194.56 240.567ZM195.831 233.077L193.946 234.962L192.061 233.077L193.751 231.387H194.147L195.831 233.077ZM191.453 232.469L190.371 231.387H192.529L191.453 232.469ZM190.845 233.077L188.96 234.962L187.076 233.077L188.76 231.387H189.161L190.845 233.077ZM187.538 231.387L186.461 232.469L185.385 231.387H187.538ZM184.163 231.387L185.847 233.077L183.963 234.962L182.321 233.32L182.284 232.87L183.762 231.387H184.163ZM182.546 231.387L182.193 231.739V231.387H182.546ZM182.43 234.652L183.355 235.576L182.564 236.36L182.43 234.652ZM182.941 240.981L182.868 240.087L183.355 240.573L182.941 240.987V240.981ZM183.032 242.112L183.963 241.181L185.847 243.066L183.963 244.951L183.203 244.191L183.032 242.112ZM183.312 245.608V245.523L183.355 245.565L183.312 245.608ZM183.64 249.627L183.403 246.732L183.963 246.173L185.847 248.064L183.963 249.949L183.64 249.627ZM183.817 251.785L183.78 251.353L183.963 251.171L184.571 251.779L183.817 251.785ZM184.577 250.569L186.461 248.678L188.346 250.569L187.13 251.785H185.799L184.577 250.569ZM188.346 251.785L188.954 251.177L189.562 251.785H188.346ZM190.778 251.785L189.562 250.569L191.453 248.678L193.338 250.569L192.122 251.785H190.778ZM193.332 251.785L193.94 251.177L194.548 251.785H193.332ZM199.084 251.785H198.33L198.938 251.177L199.12 251.359L199.084 251.785ZM199.26 249.627L198.938 249.949L197.053 248.064L198.944 246.173L199.503 246.732L199.26 249.627ZM199.594 245.516V245.608L199.558 245.565L199.606 245.516H199.594ZM199.704 244.191L198.938 244.951L197.047 243.066L198.938 241.181L199.868 242.112L199.704 244.191ZM199.959 240.981L199.546 240.567L200.032 240.087L199.959 240.981ZM200.476 234.645L200.336 236.366L199.546 235.576L200.476 234.645Z" fill="white"/>
</g>
<path d="M181.038 232.159H201.856C202.407 232.159 202.853 231.712 202.853 231.162V230.748C202.853 230.197 202.407 229.751 201.856 229.751H181.038C180.488 229.751 180.041 230.197 180.041 230.748V231.162C180.041 231.712 180.488 232.159 181.038 232.159Z" fill="#B0EF8F"/>
<path d="M200.214 251.353H182.686C182.135 251.353 181.689 251.8 181.689 252.35V252.764C181.689 253.315 182.135 253.761 182.686 253.761H200.214C200.765 253.761 201.212 253.315 201.212 252.764V252.35C201.212 251.8 200.765 251.353 200.214 251.353Z" fill="#B0EF8F"/>
<path d="M261.087 56.854H110.267C108.88 56.854 107.756 57.9782 107.756 59.365V168.167C107.756 169.553 108.88 170.678 110.267 170.678H261.087C262.474 170.678 263.598 169.553 263.598 168.167V59.365C263.598 57.9782 262.474 56.854 261.087 56.854Z" fill="#B0EF8F"/>
<path opacity="0.4" d="M263.598 63.0071H107.756V165.747H263.598V63.0071Z" fill="black"/>
<path d="M259.95 61.3168C260.76 61.3168 261.416 60.6608 261.416 59.8515C261.416 59.0423 260.76 58.3862 259.95 58.3862C259.141 58.3862 258.485 59.0423 258.485 59.8515C258.485 60.6608 259.141 61.3168 259.95 61.3168Z" fill="white"/>
<path d="M255.007 61.3168C255.817 61.3168 256.473 60.6608 256.473 59.8515C256.473 59.0423 255.817 58.3862 255.007 58.3862C254.198 58.3862 253.542 59.0423 253.542 59.8515C253.542 60.6608 254.198 61.3168 255.007 61.3168Z" fill="white"/>
<path d="M250.064 61.3168C250.874 61.3168 251.53 60.6608 251.53 59.8515C251.53 59.0423 250.874 58.3862 250.064 58.3862C249.255 58.3862 248.599 59.0423 248.599 59.8515C248.599 60.6608 249.255 61.3168 250.064 61.3168Z" fill="white"/>
<path d="M158.974 116.402H108.333V160.773H158.974V116.402Z" fill="#263238"/>
<path d="M158.974 71.0508H108.333V115.423H158.974V71.0508Z" fill="#263238"/>
<path d="M210.775 71.0508H160.135V115.423H210.775V71.0508Z" fill="#B0EF8F"/>
<path d="M262.583 71.0508H211.943V115.423H262.583V71.0508Z" fill="white"/>
<path d="M210.775 116.402H160.135V160.773H210.775V116.402Z" fill="#263238"/>
<path d="M262.583 116.402H211.943V160.773H262.583V116.402Z" fill="#B0EF8F"/>
<path d="M253.907 115.423L255.056 105.743C255.209 104.493 254.893 103.231 254.168 102.201C253.444 101.171 252.363 100.446 251.134 100.168C237.989 97.2433 230.146 100.137 230.146 100.137C227.204 104.899 224.932 110.042 223.391 115.423H253.907Z" fill="#263238"/>
<path d="M244.416 99.7482C245.542 99.6245 246.678 99.6021 247.808 99.6814C244.951 97.2919 246.368 91.2241 247.529 87.9287L238.695 92.9204C238.797 93.3425 238.87 93.7711 238.913 94.2033C239.025 94.9756 238.932 95.7635 238.646 96.4894C238.125 97.4212 237.41 98.2299 236.548 98.8606L240.087 100.435L244.416 99.7482Z" fill="#E4897B"/>
<path opacity="0.2" d="M245.504 91.1025C245.152 95.1518 240.798 96.2645 238.664 96.4894C238.951 95.7636 239.043 94.9757 238.932 94.2033L245.504 91.1025Z" fill="black"/>
<path d="M233.885 78.8514C233.885 78.8514 233.192 84.6091 236.536 87.035C239.88 89.461 239.157 75.3918 239.157 75.3918L233.885 78.8514Z" fill="#263238"/>
<path d="M246.848 91.0174C246.673 91.3735 246.47 91.7151 246.24 92.0389C245.588 93.0049 244.656 93.7479 243.569 94.1676C242.482 94.5872 241.292 94.6634 240.16 94.3857C239.999 94.3504 239.841 94.3058 239.686 94.252C238.195 93.7855 236.929 92.7825 236.135 91.4369C236.135 91.3944 236.08 91.3397 236.05 91.2971C235.94 91.1025 235.843 90.9019 235.746 90.6891C235.559 90.2417 235.394 89.7851 235.253 89.3211C234.037 85.4117 234.183 78.8756 237.813 76.6321C240.701 74.8081 245.267 75.4161 247.085 78.3163C247.608 79.1371 247.024 81.2833 247.116 82.25C247.547 86.1777 247.985 88.6766 246.848 91.0174Z" fill="#E4897B"/>
<path d="M240.549 84.6578C240.634 85.0105 240.47 85.3449 240.227 85.3874C239.984 85.43 239.747 85.1625 239.686 84.7794C239.625 84.3964 239.765 84.0863 240.002 84.0498C240.239 84.0134 240.482 84.293 240.549 84.6578Z" fill="#263238"/>
<path d="M236.439 85.3568C236.524 85.7155 236.354 86.0499 236.117 86.0864C235.88 86.1229 235.643 85.8615 235.576 85.4784C235.509 85.0954 235.661 84.7853 235.892 84.7488C236.123 84.7123 236.378 85.0163 236.439 85.3568Z" fill="#263238"/>
<path d="M237.777 85.3145C237.531 86.5002 237.122 87.6461 236.561 88.7192C236.844 88.8576 237.154 88.932 237.469 88.9373C237.784 88.9425 238.097 88.8785 238.385 88.7496L237.777 85.3145Z" fill="#DE5753"/>
<path d="M241.595 83.1074C241.556 83.1196 241.515 83.1216 241.476 83.1131C241.436 83.1045 241.4 83.0858 241.37 83.0587C241.176 82.8699 240.942 82.7283 240.684 82.645C240.427 82.5617 240.154 82.5389 239.886 82.5784C239.831 82.5913 239.772 82.5821 239.723 82.5525C239.675 82.523 239.639 82.4756 239.625 82.4203C239.618 82.3932 239.616 82.3648 239.62 82.337C239.624 82.3092 239.634 82.2825 239.649 82.2586C239.664 82.2347 239.683 82.2141 239.706 82.198C239.729 82.1819 239.755 82.1706 239.783 82.165C240.123 82.1065 240.472 82.1312 240.8 82.2371C241.128 82.343 241.426 82.5269 241.668 82.773C241.707 82.8138 241.729 82.8683 241.729 82.925C241.729 82.9817 241.707 83.0362 241.668 83.077C241.645 83.0908 241.62 83.1011 241.595 83.1074Z" fill="#263238"/>
<path d="M234.433 84.2443C234.394 84.2666 234.35 84.2771 234.305 84.2747C234.278 84.267 234.252 84.254 234.23 84.2363C234.208 84.2186 234.189 84.1966 234.176 84.1717C234.162 84.1468 234.154 84.1194 234.151 84.0911C234.148 84.0629 234.151 84.0343 234.159 84.0072C234.247 83.674 234.414 83.3669 234.646 83.1118C234.878 82.8568 235.167 82.6613 235.491 82.5419C235.545 82.5267 235.604 82.5334 235.654 82.5607C235.704 82.5879 235.741 82.6335 235.758 82.6878C235.773 82.7426 235.767 82.8012 235.739 82.8512C235.712 82.9011 235.667 82.9385 235.612 82.9553C235.361 83.0575 235.137 83.2166 234.957 83.4203C234.778 83.6239 234.648 83.8665 234.579 84.1288C234.564 84.1571 234.543 84.182 234.518 84.2019C234.493 84.2218 234.464 84.2362 234.433 84.2443Z" fill="#263238"/>
<path d="M248.818 79.4837C248.818 79.3621 248.867 79.2405 248.885 79.1067C249.493 74.796 243.176 72.2606 237.473 72.7957C234.986 73.0328 235.558 77.2827 235.558 77.2827C235.558 77.2827 234.147 77.2827 233.509 78.14C232.384 79.66 234.117 83.004 234.117 83.004C233.247 78.14 235.764 77.8725 235.764 77.8725C235.764 77.8725 236.372 79.7573 237.497 79.587C238.622 79.4168 241.467 76.6625 242.866 76.9909C243.307 77.0845 243.716 77.2928 244.051 77.5949C244.386 77.897 244.636 78.2822 244.775 78.7115C244.795 79.143 244.723 79.5739 244.564 79.9754C244.404 80.377 244.161 80.7399 243.851 81.0401C242.635 82.3838 244.678 85.2536 246.082 86.1291C246.082 86.1291 246.033 85.4056 246.66 85.5211C247.286 85.6366 247.584 89.4001 246.611 91.3397C246.611 91.3397 248.21 89.5157 248.745 85.4299C249.048 83.461 249.072 81.4594 248.818 79.4837Z" fill="#263238"/>
<path d="M239.284 90.531C239.817 90.5193 240.339 90.3802 240.806 90.1252C241.274 89.8703 241.674 89.507 241.972 89.0657C241.981 89.0532 241.987 89.0389 241.989 89.0239C241.992 89.0089 241.992 88.9935 241.989 88.9786C241.985 88.9637 241.979 88.9497 241.969 88.9375C241.96 88.9252 241.949 88.9151 241.935 88.9076C241.923 88.8996 241.91 88.8941 241.896 88.8913C241.882 88.8885 241.867 88.8885 241.853 88.8913C241.839 88.8941 241.825 88.8997 241.814 88.9077C241.802 88.9157 241.791 88.926 241.783 88.938C241.499 89.3418 241.125 89.6739 240.69 89.9081C240.255 90.1424 239.772 90.2723 239.278 90.2878C239.249 90.2878 239.22 90.2991 239.199 90.3194C239.177 90.3398 239.164 90.3677 239.163 90.3972C239.163 90.4268 239.174 90.4553 239.195 90.4768C239.215 90.4983 239.243 90.5112 239.272 90.5128L239.284 90.531Z" fill="#263238"/>
<path d="M249.681 85.5819C249.358 86.6749 248.615 87.5952 247.614 88.1416C246.283 88.859 245.292 87.7464 245.377 86.3176C245.474 85.0469 246.258 83.1013 247.736 82.9918C249.213 82.8824 250.058 84.2321 249.681 85.5819Z" fill="#E4897B"/>
<path opacity="0.1" d="M240.16 94.3857C239.999 94.3504 239.841 94.3057 239.686 94.2519C238.194 93.7855 236.929 92.7824 236.135 91.4369C237.193 91.3214 239.4 91.1025 239.85 91.2971C240.3 91.4916 240.221 93.4859 240.16 94.3857Z" fill="black"/>
<path d="M233.484 115.422H236.445L239.667 103.542L242.598 100.435H237.467L238.664 103.427L233.484 115.422Z" fill="#B0EF8F"/>
<path d="M222.583 113.203L222.394 115.423H227.203C231.32 105.652 235.144 98.5688 235.144 98.5688L230.146 100.137C218.594 103.518 217.621 111.081 219.591 113.015C221.561 114.948 222.583 113.203 222.583 113.203Z" fill="#B0EF8F"/>
<path opacity="0.5" d="M222.583 113.203L222.394 115.423H227.203C231.32 105.652 235.144 98.5688 235.144 98.5688L230.146 100.137C218.594 103.518 217.621 111.081 219.591 113.015C221.561 114.948 222.583 113.203 222.583 113.203Z" fill="white"/>
<path d="M226.176 115.422H227.295C231.04 107.354 237.26 97.8877 237.26 97.8877C234.71 97.8818 232.184 98.3754 229.824 99.3409L231.107 102.916L228.012 103.524L226.176 115.422Z" fill="#B0EF8F"/>
<path opacity="0.4" d="M226.176 115.422H227.295C231.04 107.354 237.26 97.8877 237.26 97.8877C234.71 97.8818 232.184 98.3754 229.824 99.3409L231.107 102.916L228.012 103.524L226.176 115.422Z" fill="white"/>
<path opacity="0.2" d="M224.875 115.423C225.512 114.054 225.851 112.566 225.872 111.057L222.583 113.203L222.394 115.423H224.875Z" fill="black"/>
<path d="M235.63 99.0674L237.995 96.9272L240.105 99.8031L246.793 96.9272L248.471 99.6389L241.99 102.855L239.838 100.782L237.467 102.278L235.63 99.0674Z" fill="#263238"/>
<path opacity="0.2" d="M235.63 99.0674L237.995 96.9272L240.105 99.8031L246.793 96.9272L248.471 99.6389L241.99 102.855L239.838 100.782L237.467 102.278L235.63 99.0674Z" fill="white"/>
<path d="M228 106.211L235.138 98.5688C236.06 98.5524 236.946 98.2074 237.637 97.596C238.695 96.5988 240.136 92.1848 239.783 91.899C239.43 91.6132 235.174 91.2606 234.773 91.7592C234.372 92.2577 232.609 96.7204 232.609 96.7204L224.96 102.703L228 106.211Z" fill="#E4897B"/>
<path d="M228.79 99.5294L230.201 98.283L233.581 100.903L232.049 102.94L228.79 99.5294Z" fill="#263238"/>
<path opacity="0.2" d="M228.79 99.5294L230.201 98.283L233.581 100.903L232.049 102.94L228.79 99.5294Z" fill="white"/>
<path d="M229.174 98.7329L233.223 101.937C233.223 101.937 223.811 116.845 220.388 113.696C216.965 110.546 218.716 105.615 229.174 98.7329Z" fill="#B0EF8F"/>
<path opacity="0.6" d="M229.174 98.7329L233.223 101.937C233.223 101.937 223.811 116.845 220.388 113.696C216.965 110.546 218.716 105.615 229.174 98.7329Z" fill="white"/>
<path d="M255.135 115.423L255.743 104.734C255.79 103.698 255.508 102.673 254.938 101.806C254.368 100.939 253.539 100.274 252.569 99.9065L247.237 97.8879C247.237 97.8879 247.462 105.914 248.082 115.404L255.135 115.423Z" fill="#B0EF8F"/>
<path opacity="0.5" d="M255.135 115.423L255.743 104.734C255.79 103.698 255.508 102.673 254.938 101.806C254.368 100.939 253.539 100.274 252.569 99.9065L247.237 97.8879C247.237 97.8879 247.462 105.914 248.082 115.404L255.135 115.423Z" fill="white"/>
<path d="M250.265 115.423L252.229 109.908L249.28 107.221L252.654 106.211C250.508 99.5963 247.03 97.3467 247.03 97.3467C246.167 101.603 247.03 109.999 247.717 115.423H250.265Z" fill="#B0EF8F"/>
<path opacity="0.4" d="M250.265 115.423L252.229 109.908L249.28 107.221L252.654 106.211C250.508 99.5963 247.03 97.3467 247.03 97.3467C246.167 101.603 247.03 109.999 247.717 115.423H250.265Z" fill="white"/>
<path d="M223.428 114.121C224.036 114.353 228.809 114.669 228.809 114.669L229.921 115.423H237.692L229.788 111.696C229.49 110.823 228.893 110.085 228.103 109.61C226.827 108.905 222.181 108.887 222.023 109.306C221.865 109.726 222.826 113.884 223.428 114.121Z" fill="#E4897B"/>
<path d="M235.247 115.423L235.965 114.134L233.01 112.839L231.958 115.423H235.247Z" fill="#263238"/>
<path opacity="0.2" d="M235.247 115.423L235.965 114.134L233.01 112.839L231.958 115.423H235.247Z" fill="white"/>
<path d="M251.317 115.422C254.843 109.908 257.324 103.196 254.442 101.244C254.442 101.244 252.229 100.636 243.09 114.577C243.09 114.577 242.087 116.73 234.578 113.361L233.6 115.429L251.317 115.422Z" fill="#B0EF8F"/>
<path opacity="0.6" d="M251.317 115.422C254.843 109.908 257.324 103.196 254.442 101.244C254.442 101.244 252.229 100.636 243.09 114.577C243.09 114.577 242.087 116.73 234.578 113.361L233.6 115.429L251.317 115.422Z" fill="white"/>
<path opacity="0.3" d="M210.775 116.402H160.135V160.773H210.775V116.402Z" fill="white"/>
<path d="M117.046 115.423C118.262 112.255 125.406 106.084 125.406 106.084V99.7119C121.758 100.393 112.826 108.078 112.595 115.404L117.046 115.423Z" fill="#B0EF8F"/>
<path opacity="0.6" d="M117.046 115.423C117.654 113.915 119.545 111.732 121.387 109.853C123.436 107.786 125.406 106.09 125.406 106.09V99.7119C121.758 100.393 112.82 108.078 112.595 115.404L117.046 115.423Z" fill="white"/>
<path opacity="0.2" d="M121.387 109.854C123.436 107.786 125.406 106.09 125.406 106.09V104.236C125.406 104.236 121.892 105.981 121.387 109.854Z" fill="black"/>
<path d="M151.137 115.423C152.049 109.817 152.961 105.196 153.356 103.105C153.421 102.783 153.358 102.449 153.179 102.174C153.001 101.899 152.721 101.705 152.401 101.633C151.094 101.348 149.744 101.104 148.389 100.898C142.256 100.038 136.068 99.6314 129.875 99.6816C127.127 99.6816 125.406 99.7607 125.406 99.7607C124.154 104.248 123.406 109.835 122.974 115.453L151.137 115.423Z" fill="#B0EF8F"/>
<path opacity="0.7" d="M151.143 115.423L151.216 114.955C152.097 109.562 152.948 105.135 153.35 103.105C153.368 102.994 153.368 102.881 153.35 102.77C153.338 102.5 153.236 102.242 153.061 102.036C152.886 101.83 152.648 101.688 152.383 101.633C151.07 101.348 149.726 101.104 148.37 100.898C142.237 100.038 136.049 99.6314 129.857 99.6816C127.108 99.6816 125.388 99.7607 125.388 99.7607C124.135 104.248 123.387 109.835 122.956 115.453L151.143 115.423Z" fill="white"/>
<path d="M135.292 106.874C143.196 107.713 148.492 100.977 148.492 100.977L148.388 100.898C142.255 100.038 136.067 99.6314 129.875 99.6816C129.875 99.6816 127.856 106.084 135.292 106.874Z" fill="#B0EF8F"/>
<path d="M144.047 100.278C141.822 102.302 136.368 101.554 136.368 101.554C136.368 101.554 132.964 100.624 133.675 99.5601C135.681 99.2257 136.654 98.2894 137.055 97.0916C137.274 96.3507 137.343 95.5733 137.256 94.8056C137.225 94.3752 137.17 93.9469 137.092 93.5227L143.835 88.531C142.953 91.8081 141.871 97.8881 144.047 100.278Z" fill="#E4897B"/>
<path opacity="0.2" d="M142.272 91.7046C142.005 95.7478 138.679 96.8665 137.049 97.0915C137.268 96.3505 137.336 95.5732 137.25 94.8054L142.272 91.7046Z" fill="black"/>
<path d="M143.056 97.7117L136.611 100.618L136.228 98.2893L133.863 99.104C133.449 99.2493 133.096 99.53 132.861 99.9006C132.626 100.271 132.523 100.71 132.568 101.147L132.836 103.7L136.107 101.913L137.736 104.217L145.482 100.49L143.056 97.7117Z" fill="#B0EF8F"/>
<path opacity="0.3" d="M143.056 97.7117L136.611 100.618L136.228 98.2893L133.863 99.104C133.449 99.2493 133.096 99.53 132.861 99.9006C132.626 100.271 132.523 100.71 132.568 101.147L132.836 103.7L136.107 101.913L137.736 104.217L145.482 100.49L143.056 97.7117Z" fill="white"/>
<path d="M131.985 78.3772C131.985 78.3772 130.161 84.6882 133.243 87.6188C136.326 90.5494 137.919 78.5596 137.919 78.5596L131.985 78.3772Z" fill="#263238"/>
<path opacity="0.2" d="M131.985 78.3772C131.985 78.3772 130.161 84.6882 133.243 87.6188C136.326 90.5494 137.919 78.5596 137.919 78.5596L131.985 78.3772Z" fill="white"/>
<path d="M131.936 91.2487C132.003 91.4737 132.076 91.6986 132.161 91.9114C132.783 93.4623 133.969 94.7202 135.481 95.4318C136.837 96.0829 138.387 96.2043 139.828 95.7722C140.854 95.4492 141.775 94.8547 142.491 94.0516C144.765 91.5831 144.601 88.8289 144.698 84.1594C144.741 83.0685 144.503 81.9848 144.007 81.012C143.512 80.0391 142.775 79.2096 141.867 78.6028C140.96 77.9959 139.912 77.6319 138.823 77.5456C137.735 77.4593 136.643 77.6536 135.651 78.1098C131.152 80.1345 130.775 87.09 131.936 91.2487Z" fill="#E4897B"/>
<path d="M137.669 85.728C137.706 86.0988 137.493 86.4211 137.244 86.4271C136.994 86.4332 136.782 86.1353 136.763 85.7584C136.745 85.3814 136.946 85.0591 137.189 85.0531C137.432 85.047 137.651 85.3449 137.669 85.728Z" fill="#263238"/>
<path d="M133.371 85.8923C133.413 86.2692 133.194 86.5915 132.945 86.5976C132.696 86.6036 132.489 86.3057 132.471 85.9227C132.453 85.5396 132.647 85.2296 132.897 85.2235C133.146 85.2174 133.359 85.5336 133.371 85.8923Z" fill="#263238"/>
<path d="M134.745 86.032C134.336 87.2118 133.765 88.329 133.049 89.3517C133.316 89.5247 133.617 89.6382 133.931 89.6844C134.246 89.7305 134.567 89.7083 134.873 89.6192L134.745 86.032Z" fill="#DE5753"/>
<path d="M131.711 84.1167C131.745 84.139 131.786 84.1508 131.827 84.1508C131.868 84.1508 131.908 84.139 131.942 84.1167C132.171 83.9559 132.433 83.8497 132.71 83.8065C132.986 83.7633 133.268 83.7841 133.535 83.8674C133.562 83.8794 133.591 83.886 133.62 83.8866C133.649 83.8873 133.678 83.8821 133.705 83.8713C133.733 83.8606 133.757 83.8444 133.778 83.8239C133.799 83.8034 133.816 83.7789 133.827 83.7519C133.849 83.6978 133.85 83.637 133.828 83.5825C133.807 83.528 133.765 83.4841 133.711 83.4601C133.377 83.3444 133.021 83.3101 132.671 83.3597C132.321 83.4094 131.988 83.5418 131.699 83.7458C131.649 83.7782 131.614 83.829 131.601 83.8871C131.589 83.9452 131.6 84.0059 131.632 84.0559C131.653 84.0818 131.68 84.1026 131.711 84.1167Z" fill="#263238"/>
<path d="M138.454 83.9832C138.498 83.9787 138.54 83.9618 138.575 83.9345C138.616 83.8917 138.638 83.8352 138.638 83.7764C138.638 83.7177 138.616 83.6612 138.575 83.6184C138.302 83.3917 137.978 83.2341 137.631 83.159C137.284 83.0838 136.924 83.0934 136.581 83.1867C136.526 83.2061 136.481 83.2461 136.455 83.2983C136.429 83.3504 136.424 83.4107 136.441 83.4664C136.462 83.5218 136.503 83.5673 136.556 83.5933C136.609 83.6193 136.671 83.6239 136.727 83.6062C136.999 83.5437 137.283 83.5447 137.555 83.609C137.827 83.6733 138.08 83.7992 138.296 83.9771C138.346 83.9967 138.402 83.9988 138.454 83.9832Z" fill="#263238"/>
<path d="M141.056 78.4685L140.782 80.5235C141.13 80.6915 141.401 80.985 141.541 81.3449C141.681 81.7048 141.679 82.1044 141.536 82.4631C140.855 84.1898 141.81 86.8832 143.129 87.9655C143.129 87.9655 143.178 87.2176 143.81 87.4C144.442 87.5824 144.224 91.4919 142.971 93.3402C142.971 93.3402 144.856 91.6743 145.95 87.5824C146.966 83.8007 147.118 80.6391 146.352 79.1677L141.056 78.4685Z" fill="#263238"/>
<path d="M135.584 92.0695C135.556 92.0783 135.526 92.0783 135.499 92.0695C135.466 92.0462 135.443 92.0111 135.435 91.9716C135.427 91.932 135.435 91.8909 135.456 91.8567C135.95 91.1231 136.693 90.5938 137.548 90.3671C137.568 90.3627 137.588 90.3624 137.609 90.3661C137.629 90.3699 137.648 90.3777 137.665 90.3891C137.682 90.4004 137.696 90.4151 137.708 90.4322C137.719 90.4493 137.727 90.4685 137.73 90.4887C137.737 90.5273 137.729 90.5673 137.708 90.6001C137.686 90.633 137.653 90.6563 137.615 90.665C136.839 90.8789 136.164 91.3616 135.712 92.0269C135.695 92.043 135.675 92.0551 135.652 92.0625C135.63 92.0698 135.607 92.0722 135.584 92.0695Z" fill="#263238"/>
<path opacity="0.1" d="M133.474 93.9724C134.043 94.5837 134.724 95.0792 135.481 95.4316C136.837 96.0827 138.387 96.2041 139.828 95.7721C139.187 95.1969 138.408 94.7987 137.566 94.6169C136.228 94.261 134.857 94.045 133.474 93.9724Z" fill="black"/>
<path opacity="0.2" d="M141.056 78.4685L140.782 80.5235C141.13 80.6915 141.401 80.985 141.541 81.3449C141.681 81.7048 141.679 82.1044 141.536 82.4631C140.855 84.1898 141.81 86.8832 143.129 87.9655C143.129 87.9655 143.178 87.2176 143.81 87.4C144.442 87.5824 144.224 91.4919 142.971 93.3402C142.971 93.3402 144.856 91.6743 145.95 87.5824C146.966 83.8007 147.118 80.6391 146.352 79.1677L141.056 78.4685Z" fill="white"/>
<path d="M146.674 80.1101C146.674 80.1101 147.179 77.4106 142.929 75.3008C138.679 73.191 134.021 75.5987 131.182 73.7808C128.343 71.9629 128.239 79.4352 134.307 80.2742C138.419 80.7511 142.576 80.6959 146.674 80.1101Z" fill="#263238"/>
<path opacity="0.3" d="M146.674 80.1101C146.674 80.1101 147.179 77.4106 142.929 75.3008C138.679 73.191 134.021 75.5987 131.182 73.7808C128.343 71.9629 128.239 79.4352 134.307 80.2742C138.419 80.7511 142.576 80.6959 146.674 80.1101Z" fill="white"/>
<path d="M146.881 87.9107C146.41 88.9808 145.536 89.822 144.449 90.2515C142.989 90.7987 142.126 89.528 142.406 88.081C142.673 86.792 143.743 84.9133 145.269 84.9984C146.795 85.0835 147.452 86.5792 146.881 87.9107Z" fill="#E4897B"/>
<path d="M139.664 102.959L139.019 99.5297C139.019 99.5297 140.357 98.265 140.199 97.0977C140.041 95.9303 134.119 93.9969 133.049 93.9178C131.979 93.8388 132.398 98.1191 132.72 98.9034C133.043 99.6877 136.612 100.624 136.612 100.624L137.055 104.242L139.664 102.959Z" fill="#E4897B"/>
<path opacity="0.2" d="M150.34 115.423C150.65 115.271 150.948 115.113 151.216 114.955C152.097 109.562 152.948 105.135 153.35 103.105C153.368 102.994 153.368 102.881 153.35 102.77C149.507 106.686 143.524 113.234 144.23 115.423H150.34Z" fill="black"/>
<path d="M148.255 115.423C152.675 111.459 156.517 105.993 153.8 102.302C151.416 99.0554 145.288 110.814 143.421 111.623C141.555 112.431 139.937 101.646 139.937 101.646L136.289 102.728C136.289 102.728 136.958 110.498 138.831 115.423H148.255Z" fill="#B0EF8F"/>
<path opacity="0.6" d="M148.255 115.423C152.675 111.459 156.517 105.993 153.8 102.302C151.416 99.0554 145.288 110.814 143.421 111.623C141.555 112.431 139.937 101.646 139.937 101.646L136.289 102.728C136.289 102.728 136.958 110.498 138.831 115.423H148.255Z" fill="white"/>
<path d="M175.809 115.423C177.092 114.128 177.925 113.216 177.925 113.216L177.22 102.436C175.189 103.518 169.103 111.641 165.905 115.423H175.809Z" fill="#B0EF8F"/>
<path opacity="0.5" d="M175.809 115.423C177.092 114.128 177.925 113.216 177.925 113.216L177.22 102.436C175.189 103.518 169.103 111.641 165.905 115.423H175.809Z" fill="white"/>
<path opacity="0.2" d="M175.803 115.423C177.092 114.128 177.925 113.216 177.925 113.216L177.761 110.656L176.928 108.175C175.055 110.119 174.028 112.724 174.07 115.423H175.803Z" fill="black"/>
<path d="M197.12 115.423C197.418 114.353 197.728 113.216 198.141 111.975C198.555 110.735 198.925 109.489 199.388 108.096C199.732 107.047 200.111 105.932 200.524 104.752C198.056 103.964 195.535 103.354 192.979 102.928C190.287 102.449 187.565 102.162 184.832 102.071C181.3 102.071 177.232 102.436 177.232 102.436C177.232 102.436 176.624 102.576 176.29 106.327C176.113 108.218 175.937 111.136 175.925 115.447L197.12 115.423Z" fill="#B0EF8F"/>
<path opacity="0.5" d="M197.12 115.423C197.418 114.353 197.728 113.216 198.141 111.975C198.555 110.735 198.925 109.489 199.388 108.096C199.732 107.047 200.111 105.932 200.524 104.752C198.056 103.964 195.535 103.354 192.979 102.928C190.287 102.449 187.565 102.162 184.832 102.071C181.3 102.071 177.232 102.436 177.232 102.436C177.232 102.436 176.624 102.576 176.29 106.327C176.113 108.218 175.937 111.136 175.925 115.447L197.12 115.423Z" fill="white"/>
<path d="M185.823 115.423L190.809 106.497L185.045 109.726L181.701 105.531L182.923 115.423H185.823Z" fill="#263238"/>
<path d="M191.003 101.797C194.298 102.576 195.296 105.214 194.931 107.616L192.529 106.813C189.761 107.815 187.165 109.238 184.832 111.033C184.832 111.033 183.008 107.689 181.269 106.595L178.801 106.886C178.801 106.886 182.649 99.8397 191.003 101.797Z" fill="#263238"/>
<path opacity="0.1" d="M191.003 101.797C194.298 102.576 195.296 105.214 194.931 107.616L192.529 106.813C189.761 107.815 187.165 109.238 184.832 111.033C184.832 111.033 183.008 107.689 181.269 106.595L178.801 106.886C178.801 106.886 182.649 99.8397 191.003 101.797Z" fill="white"/>
<path d="M185.027 102.849C185.204 102.755 185.389 102.676 185.58 102.612C185.999 102.284 186.51 101.481 186.486 99.572C186.467 98.8101 186.395 98.0504 186.273 97.2981L191.666 96.2949C191.666 96.2949 189.842 99.9429 191.362 102.612C191.885 102.849 192.201 103.184 192.146 103.621C191.739 106.734 185.045 109.75 185.045 109.75C185.045 109.75 181.792 104.637 185.027 102.849Z" fill="#EEC1BB"/>
<path opacity="0.2" d="M186.273 97.2798C186.395 98.0321 186.466 98.7918 186.486 99.5537C190.134 99.5537 191.666 96.2766 191.666 96.2766L186.273 97.2798Z" fill="black"/>
<path d="M188.681 79.4899C188.681 79.4899 182.357 78.6874 181.19 83.7459C180.856 85.1902 180.939 86.6994 181.429 88.0984C181.919 89.4974 182.795 90.7289 183.956 91.6499L188.681 79.4899Z" fill="#263238"/>
<path d="M189.252 82.2016C184.564 81.9463 182.923 84.3722 182.315 89.1815C181.555 95.1946 182.655 99.5539 188.589 98.5872C196.639 97.28 197.034 82.6272 189.252 82.2016Z" fill="#EEC1BB"/>
<path d="M185.355 89.084C184.943 89.7626 184.451 90.3893 183.89 90.9505C184.016 91.1551 184.196 91.3205 184.411 91.4279C184.626 91.5353 184.866 91.5806 185.106 91.5585L185.355 89.084Z" fill="#D4827D"/>
<path d="M188.249 88.8592C188.219 89.2422 188.401 89.5705 188.656 89.5888C188.912 89.607 189.143 89.3152 189.173 88.9321C189.203 88.5491 189.021 88.2208 188.766 88.1964C188.51 88.1721 188.279 88.4761 188.249 88.8592Z" fill="#263238"/>
<path d="M188.869 88.2267L188.061 87.8315C188.061 87.8315 188.419 88.5672 188.869 88.2267Z" fill="#263238"/>
<path d="M183.47 88.403C183.47 88.7861 183.628 89.1144 183.884 89.1387C184.139 89.1631 184.37 88.8591 184.4 88.476C184.431 88.093 184.248 87.7647 183.993 87.7464C183.738 87.7282 183.501 88.02 183.47 88.403Z" fill="#263238"/>
<path d="M184.096 87.7707L183.288 87.3755C183.288 87.3755 183.646 88.1172 184.096 87.7707Z" fill="#263238"/>
<path d="M190.462 86.652C190.43 86.652 190.398 86.6443 190.37 86.6295C190.341 86.6147 190.316 86.5932 190.298 86.5669C190.069 86.3145 189.786 86.1172 189.47 85.9898C189.154 85.8624 188.814 85.8081 188.474 85.8312C188.42 85.8332 188.367 85.8151 188.325 85.7802C188.284 85.7454 188.256 85.6964 188.249 85.6427C188.246 85.5872 188.264 85.5326 188.3 85.4906C188.337 85.4486 188.388 85.4224 188.443 85.4178C188.852 85.3887 189.261 85.4555 189.639 85.6128C190.017 85.7701 190.353 86.0135 190.62 86.3237C190.652 86.3684 190.666 86.4238 190.658 86.4782C190.65 86.5326 190.621 86.5818 190.578 86.6155C190.543 86.6368 190.503 86.6493 190.462 86.652Z" fill="#263238"/>
<path d="M183.184 85.7279C183.148 85.7275 183.113 85.7177 183.082 85.6996C183.051 85.6815 183.026 85.6556 183.008 85.6246C182.994 85.6011 182.984 85.575 182.98 85.5478C182.976 85.5207 182.978 85.493 182.984 85.4664C182.991 85.4398 183.003 85.4148 183.02 85.3929C183.036 85.371 183.057 85.3526 183.081 85.3388C183.383 85.1369 183.727 85.0053 184.087 84.9538C184.447 84.9022 184.813 84.932 185.16 85.0409C185.185 85.0521 185.207 85.068 185.226 85.0878C185.244 85.1076 185.259 85.1309 185.269 85.1563C185.278 85.1817 185.283 85.2087 185.282 85.2359C185.281 85.263 185.275 85.2898 185.264 85.3145C185.254 85.3401 185.24 85.3636 185.221 85.3832C185.202 85.4029 185.179 85.4184 185.154 85.4287C185.129 85.4391 185.102 85.444 185.075 85.4431C185.047 85.4423 185.021 85.4358 184.996 85.4239C184.71 85.3401 184.408 85.3212 184.114 85.3685C183.819 85.4159 183.539 85.5283 183.294 85.6975C183.26 85.716 183.223 85.7264 183.184 85.7279Z" fill="#263238"/>
<path d="M193.952 90.3792C193.952 90.3792 191.976 86.4089 192.468 83.454C192.468 83.454 183.391 79.1494 182.412 88.5552C182.412 88.5552 181.968 80.1344 190.03 80.3897C198.092 80.6451 197.418 92.4281 193.07 95.7113C193.052 95.7113 195.168 92.8598 193.952 90.3792Z" fill="#263238"/>
<path d="M187.872 79.125C187.872 79.125 184.023 78.1766 182.929 79.198C181.835 80.2194 189.617 87.4121 193.691 88.1356C193.691 88.1356 195.071 92.6409 193.976 94.7506C193.976 94.7506 198.561 93.1516 198.774 86.1718C198.986 79.1919 191.66 76.6079 187.872 79.125Z" fill="#263238"/>
<path d="M193.125 91.3276C193.162 91.0601 193.251 90.8024 193.387 90.5693C193.523 90.3362 193.704 90.1322 193.919 89.969C194.134 89.8058 194.38 89.6866 194.641 89.6183C194.902 89.5499 195.174 89.5336 195.442 89.5705C196.883 89.8076 197.412 92.8294 193.757 93.3462C193.235 93.4191 192.973 92.8963 193.125 91.3276Z" fill="#EEC1BB"/>
<path d="M195.168 81.8852C195.168 81.8852 196.767 77.8177 201.053 78.1035C205.34 78.3893 205.996 85.0833 203.741 90.0264C201.485 94.9694 203.017 96.5684 203.017 96.5684C203.017 96.5684 200.616 96.2766 200.616 91.8443C200.484 92.7826 200.436 93.7307 200.47 94.6776C200.47 94.6776 198.871 92.4219 200.397 88.1355C201.923 83.8491 197.053 85.8129 197.053 85.8129L195.168 81.8852Z" fill="#263238"/>
<path d="M190.784 88.2694C190.762 88.2748 190.74 88.2748 190.718 88.2694C185.246 86.2994 183.124 79.7026 183.099 79.6358C183.084 79.5825 183.09 79.5255 183.116 79.4767C183.142 79.4279 183.186 79.3911 183.239 79.3743C183.265 79.3658 183.292 79.3625 183.32 79.3646C183.347 79.3668 183.373 79.3743 183.398 79.3867C183.422 79.3991 183.444 79.4163 183.461 79.4371C183.479 79.4579 183.492 79.4821 183.501 79.5081C183.501 79.575 185.568 85.9772 190.857 87.8802C190.909 87.8995 190.952 87.9382 190.975 87.9881C190.999 88.0381 191.003 88.0953 190.985 88.1478C190.968 88.186 190.94 88.2181 190.904 88.2398C190.868 88.2615 190.826 88.2718 190.784 88.2694Z" fill="#263238"/>
<path d="M186.206 94.5257H186.048C186.021 94.5257 185.993 94.5202 185.968 94.5093C185.943 94.4985 185.92 94.4826 185.902 94.4627C185.883 94.4427 185.868 94.4192 185.859 94.3934C185.85 94.3676 185.846 94.3402 185.847 94.3129C185.85 94.2575 185.875 94.2055 185.916 94.1681C185.957 94.1306 186.011 94.1105 186.066 94.1122C187.01 94.11 187.917 93.7417 188.595 93.0847C188.634 93.0461 188.687 93.0244 188.741 93.0244C188.796 93.0244 188.849 93.0461 188.887 93.0847C188.926 93.1235 188.948 93.1759 188.948 93.2306C188.948 93.2853 188.926 93.3378 188.887 93.3765C188.17 94.0839 187.213 94.4943 186.206 94.5257Z" fill="#263238"/>
<path d="M186.881 90.7925C186.624 90.8121 186.367 90.7536 186.143 90.6248C185.919 90.496 185.74 90.3028 185.628 90.0704C185.516 89.838 185.477 89.5772 185.515 89.3221C185.554 89.067 185.668 88.8295 185.844 88.6404C186.019 88.4514 186.248 88.3196 186.499 88.2624C186.751 88.2052 187.014 88.2252 187.254 88.3197C187.494 88.4142 187.7 88.5789 187.845 88.7923C187.99 89.0056 188.067 89.2578 188.066 89.5157C188.075 89.6779 188.05 89.8401 187.995 89.9927C187.939 90.1454 187.854 90.2853 187.743 90.4043C187.633 90.5233 187.499 90.619 187.351 90.6857C187.203 90.7523 187.043 90.7887 186.881 90.7925ZM186.881 88.5429C186.684 88.5233 186.486 88.5637 186.313 88.6589C186.139 88.7541 185.999 88.8996 185.91 89.0762C185.821 89.2529 185.787 89.4523 185.814 89.6483C185.84 89.8444 185.925 90.0277 186.058 90.1743C186.191 90.3209 186.365 90.4238 186.558 90.4694C186.75 90.5151 186.952 90.5013 187.136 90.43C187.321 90.3587 187.48 90.2332 187.591 90.07C187.703 89.9068 187.763 89.7135 187.762 89.5157C187.774 89.27 187.688 89.0296 187.523 88.8473C187.357 88.665 187.127 88.5555 186.881 88.5429Z" fill="#263238"/>
<path d="M183.209 90.5918C182.952 90.6052 182.698 90.5415 182.479 90.4089C182.259 90.2763 182.084 90.0809 181.977 89.848C181.869 89.6151 181.834 89.3553 181.876 89.1022C181.918 88.8491 182.034 88.6143 182.211 88.4282C182.387 88.242 182.615 88.113 182.866 88.0579C183.116 88.0027 183.378 88.0239 183.616 88.1187C183.854 88.2135 184.059 88.3776 184.203 88.5898C184.347 88.8019 184.424 89.0525 184.425 89.309C184.434 89.4742 184.409 89.6395 184.352 89.7949C184.295 89.9502 184.207 90.0923 184.093 90.2124C183.979 90.3325 183.842 90.4281 183.69 90.4933C183.538 90.5586 183.374 90.5921 183.209 90.5918ZM183.209 88.3362C183.012 88.3178 182.814 88.3593 182.642 88.4553C182.469 88.5514 182.329 88.6974 182.241 88.8743C182.153 89.0511 182.121 89.2505 182.148 89.4462C182.175 89.6418 182.261 89.8247 182.394 89.9706C182.528 90.1166 182.702 90.2188 182.894 90.2639C183.086 90.3089 183.288 90.2947 183.472 90.2232C183.656 90.1516 183.814 90.0259 183.926 89.8628C184.037 89.6996 184.097 89.5065 184.096 89.309C184.101 89.0663 184.011 88.8313 183.845 88.6541C183.68 88.4769 183.451 88.3715 183.209 88.3605V88.3362Z" fill="#263238"/>
<path d="M185.847 89.6679C185.818 89.6693 185.789 89.6619 185.764 89.6468C185.739 89.6316 185.72 89.6093 185.708 89.5827C185.654 89.4688 185.576 89.3672 185.481 89.2846C185.386 89.2019 185.275 89.1399 185.154 89.1024C185.003 89.0936 184.851 89.1203 184.712 89.1805C184.572 89.2407 184.449 89.3326 184.352 89.449C184.322 89.4772 184.283 89.493 184.242 89.493C184.201 89.493 184.162 89.4772 184.133 89.449C184.105 89.4206 184.089 89.3824 184.089 89.3426C184.089 89.3028 184.105 89.2646 184.133 89.2362C184.265 89.0863 184.431 88.9701 184.617 88.8971C184.803 88.8242 185.004 88.7966 185.203 88.8167C185.371 88.8635 185.526 88.9458 185.66 89.058C185.793 89.1703 185.9 89.3098 185.975 89.4672C185.984 89.4851 185.989 89.5046 185.991 89.5246C185.992 89.5446 185.989 89.5646 185.982 89.5834C185.975 89.6022 185.965 89.6194 185.951 89.634C185.937 89.6485 185.921 89.66 185.902 89.6679H185.847Z" fill="#263238"/>
<path d="M187.915 89.6678C187.875 89.6678 187.838 89.6526 187.809 89.6254C187.781 89.5982 187.764 89.5611 187.763 89.5219C187.763 89.482 187.778 89.4435 187.805 89.4142C187.832 89.3849 187.869 89.3669 187.909 89.3638C188.152 89.3638 193.739 89.1875 194.426 89.2179C194.467 89.221 194.505 89.2398 194.533 89.2705C194.56 89.3011 194.574 89.3411 194.572 89.382C194.569 89.4213 194.551 89.4578 194.521 89.4839C194.492 89.5099 194.454 89.5236 194.414 89.5219C193.733 89.4915 187.982 89.6678 187.921 89.6678H187.915Z" fill="#263238"/>
<path d="M205.005 115.423C202.792 109.61 200.524 104.752 200.524 104.752C200.524 104.752 196.822 110.139 196.487 115.423H205.005Z" fill="#B0EF8F"/>
<path opacity="0.5" d="M205.005 115.423C202.792 109.61 200.524 104.752 200.524 104.752C200.524 104.752 196.822 110.139 196.487 115.423H205.005Z" fill="white"/>
<path d="M206.392 160.779C205.176 157.448 203.96 154.626 203.96 154.626L198.877 159.077L199.765 160.779H206.392Z" fill="#E4897B"/>
<path d="M170.502 160.779C171.718 159.308 172.575 158.226 172.575 158.226L167.607 154.104C167.607 154.104 165.175 157.855 163.193 160.792L170.502 160.779Z" fill="#E4897B"/>
<path d="M171.717 160.779L174.666 158.712L173.523 144.984C169.766 145.592 164.306 156.536 164.306 156.536L168.562 160.792L171.717 160.779Z" fill="#B0EF8F"/>
<path opacity="0.2" d="M168.568 160.779H171.717L173.833 159.296L174.666 158.688L173.523 144.953C169.766 145.598 164.306 156.505 164.306 156.505L168.063 160.232L168.568 160.779Z" fill="white"/>
<path d="M169.492 160.779L164.306 155.338L163.412 156.834L167.565 160.779H169.492Z" fill="#B0EF8F"/>
<path opacity="0.2" d="M171.718 160.779L173.833 159.296L172.83 153.344C172.83 153.344 168.903 155.824 168.063 160.275L168.568 160.779H171.718Z" fill="black"/>
<path d="M199.205 160.779C200.458 153.046 201.68 147.16 201.68 147.16C189.647 144.254 173.493 144.984 173.493 144.984C172.228 149.495 171.48 155.119 171.061 160.792L199.205 160.779Z" fill="#B0EF8F"/>
<path opacity="0.2" d="M199.205 160.779C199.29 160.238 199.375 159.703 199.46 159.18C200.622 152.249 201.68 147.16 201.68 147.16C189.647 144.254 173.493 144.984 173.493 144.984C172.228 149.495 171.486 155.119 171.061 160.792L199.205 160.779Z" fill="white"/>
<path opacity="0.2" d="M199.205 160.779C199.29 160.238 199.375 159.703 199.46 159.18L197.685 157.514C197.255 158.557 196.981 159.657 196.87 160.779H199.205Z" fill="black"/>
<path d="M180.345 160.779H182.254C182.462 157.299 182.957 153.842 183.732 150.443L187.106 147.683L184.449 146.826L182.017 146.959L182.668 150.151C182.668 150.151 181.512 155.04 180.345 160.779Z" fill="#263238"/>
<path d="M192.128 145.531C189.903 147.555 184.443 146.808 184.443 146.808C184.443 146.808 181.038 145.871 181.756 144.807C183.762 144.479 184.735 143.543 185.13 142.375C185.351 141.633 185.421 140.853 185.337 140.083C185.304 139.655 185.247 139.228 185.166 138.806L191.915 133.809C191.034 137.074 189.951 143.141 192.128 145.531Z" fill="#E4897B"/>
<path opacity="0.2" d="M190.359 136.952C190.091 141.001 186.765 142.114 185.136 142.345C185.357 141.602 185.427 140.823 185.343 140.053L190.359 136.952Z" fill="black"/>
<path d="M191.137 142.959L184.692 145.871L184.315 143.537L181.944 144.37C181.53 144.515 181.178 144.796 180.944 145.167C180.71 145.538 180.608 145.976 180.655 146.412L180.923 148.972L184.194 147.148L185.823 149.452L193.563 145.725L191.137 142.959Z" fill="#B0EF8F"/>
<path opacity="0.3" d="M191.137 142.959L184.692 145.871L184.315 143.537L181.944 144.37C181.53 144.515 181.178 144.796 180.944 145.167C180.71 145.538 180.608 145.976 180.655 146.412L180.923 148.972L184.194 147.148L185.823 149.452L193.563 145.725L191.137 142.959Z" fill="white"/>
<path d="M178.089 124.409C178.089 124.409 177.086 130.902 180.521 133.413C183.956 135.924 183.999 123.831 183.999 123.831L178.089 124.409Z" fill="#263238"/>
<path d="M190.523 138.624C189.796 139.691 188.74 140.491 187.516 140.9C186.291 141.31 184.966 141.307 183.744 140.892C182.158 140.388 180.822 139.301 180.005 137.852C179.891 137.654 179.787 137.451 179.695 137.244C178.01 133.267 177.487 126.3 181.695 123.734C182.622 123.164 183.68 122.839 184.768 122.792C185.855 122.744 186.937 122.975 187.911 123.462C188.885 123.948 189.718 124.676 190.333 125.574C190.947 126.473 191.323 127.514 191.423 128.598C191.946 133.152 192.463 135.863 190.523 138.624Z" fill="#E4897B"/>
<path d="M184.668 130.975C184.759 131.346 184.589 131.687 184.34 131.729C184.09 131.772 183.847 131.498 183.78 131.121C183.713 130.744 183.865 130.41 184.109 130.373C184.352 130.337 184.601 130.598 184.668 130.975Z" fill="#263238"/>
<path d="M180.43 131.687C180.521 132.057 180.345 132.398 180.102 132.441C179.859 132.483 179.603 132.203 179.543 131.833C179.482 131.462 179.628 131.121 179.871 131.079C180.114 131.036 180.369 131.328 180.43 131.687Z" fill="#263238"/>
<path d="M181.792 131.644C181.538 132.865 181.116 134.046 180.54 135.152C180.823 135.288 181.133 135.362 181.448 135.368C181.762 135.375 182.075 135.313 182.364 135.189L181.792 131.644Z" fill="#DE5753"/>
<path d="M178.558 130.142C178.596 130.154 178.636 130.156 178.675 130.148C178.714 130.141 178.751 130.124 178.783 130.1C178.989 129.911 179.236 129.772 179.505 129.694C179.774 129.616 180.057 129.601 180.333 129.65C180.361 129.658 180.391 129.66 180.42 129.657C180.45 129.653 180.478 129.644 180.503 129.629C180.529 129.614 180.551 129.595 180.569 129.571C180.587 129.547 180.599 129.52 180.607 129.492C180.622 129.435 180.614 129.375 180.586 129.324C180.558 129.273 180.51 129.235 180.455 129.218C180.108 129.146 179.749 129.157 179.407 129.252C179.066 129.346 178.752 129.52 178.491 129.759C178.449 129.801 178.426 129.858 178.426 129.917C178.426 129.977 178.449 130.033 178.491 130.075C178.509 130.102 178.531 130.124 178.558 130.142Z" fill="#263238"/>
<path d="M185.227 129.139C185.271 129.13 185.311 129.109 185.343 129.078C185.373 129.027 185.382 128.966 185.368 128.909C185.355 128.851 185.319 128.801 185.27 128.768C184.97 128.579 184.629 128.464 184.275 128.435C183.922 128.405 183.566 128.461 183.239 128.598C183.186 128.624 183.146 128.67 183.126 128.726C183.107 128.782 183.11 128.843 183.136 128.896C183.163 128.948 183.209 128.987 183.265 129.005C183.321 129.023 183.381 129.019 183.434 128.993C183.696 128.896 183.977 128.86 184.255 128.888C184.534 128.917 184.802 129.009 185.039 129.157C185.07 129.169 185.102 129.173 185.135 129.17C185.168 129.167 185.199 129.156 185.227 129.139Z" fill="#263238"/>
<path d="M187.1 123.339V125.412C187.465 125.535 187.77 125.791 187.955 126.129C188.14 126.467 188.191 126.862 188.097 127.236C187.641 129.03 188.936 131.583 190.377 132.489C190.377 132.489 190.334 131.735 190.985 131.838C191.636 131.942 191.927 135.839 190.918 137.839C190.918 137.839 192.572 135.942 193.137 131.759C193.654 127.874 193.405 124.725 192.456 123.363L187.1 123.339Z" fill="#263238"/>
<path d="M194.092 131.936C193.756 133.064 192.986 134.013 191.952 134.575C190.578 135.31 189.55 134.155 189.647 132.684C189.751 131.377 190.572 129.376 192.079 129.261C193.587 129.145 194.487 130.568 194.092 131.936Z" fill="#E4897B"/>
<path d="M182.899 136.326C183.224 136.821 183.512 137.339 183.762 137.876L184.066 137.791C185.428 137.396 185.927 136.757 186.066 136.18C186.131 135.893 186.131 135.596 186.066 135.31C186.027 135.148 185.966 134.993 185.884 134.848C185.154 135.468 184.3 135.924 183.379 136.186C183.081 136.283 182.899 136.326 182.899 136.326Z" fill="#263238"/>
<path d="M183.361 136.192L183.628 136.642C184.911 136.265 185.756 135.827 186.06 135.316C186.021 135.155 185.96 134.999 185.878 134.854C185.145 135.476 184.286 135.932 183.361 136.192Z" fill="white"/>
<path d="M184.066 137.791C185.428 137.396 185.926 136.757 186.066 136.18C185.551 136.338 185.069 136.59 184.644 136.921C184.365 137.144 184.163 137.448 184.066 137.791Z" fill="#DE5753"/>
<path d="M189.872 130.908L189.264 130.55C189.264 130.55 189.647 133.036 188.857 133.735C188.857 133.735 186.121 134.027 185.166 134.283C184.512 134.537 183.97 135.018 183.64 135.639C183.64 135.639 181.494 135.183 180.564 136.794C179.792 136.105 179.181 135.253 178.776 134.301C178.776 134.301 178.849 138.849 181.397 141.269C183.944 143.688 188.085 142.485 190.03 140.594C191.976 138.703 189.872 130.908 189.872 130.908ZM188.048 138.077C187.884 138.32 187.659 138.517 187.396 138.646C187.132 138.776 186.839 138.835 186.546 138.816C186.253 138.798 185.97 138.703 185.724 138.541C185.479 138.38 185.281 138.156 185.148 137.894L184.297 138.362C184.297 138.362 185.233 139.153 184.522 139.882C183.811 140.612 181.61 140.351 181.385 138.253C181.16 136.155 183.817 135.918 183.817 135.918C184.148 135.584 184.543 135.319 184.979 135.141C185.414 134.962 185.881 134.873 186.352 134.879C186.718 134.893 187.074 135.003 187.385 135.198C187.696 135.392 187.951 135.664 188.124 135.987C188.298 136.31 188.385 136.672 188.375 137.039C188.366 137.405 188.262 137.763 188.073 138.077H188.048Z" fill="#263238"/>
<path d="M187.094 125.412C187.094 125.412 176.758 128.938 177.974 121.971C177.974 121.971 183.549 118.688 188.407 119.606C193.265 120.524 192.888 125.564 192.888 125.564L187.094 125.412Z" fill="#263238"/>
<path d="M207.723 160.779C207.115 158.797 203.704 148.218 201.68 147.16C200.484 148.288 199.523 149.641 198.853 151.143C197.472 153.952 197.175 159.582 197.175 159.582L198.068 160.798L207.723 160.779Z" fill="#B0EF8F"/>
<path opacity="0.2" d="M207.723 160.779C207.115 158.797 203.704 148.218 201.68 147.16C200.484 148.288 199.523 149.641 198.853 151.143C197.472 153.952 197.175 159.582 197.175 159.582L198.068 160.798L207.723 160.779Z" fill="white"/>
<path opacity="0.6" d="M262.583 116.402H211.943V160.773H262.583V116.402Z" fill="white"/>
<path d="M224.65 160.779C226.565 158.919 227.903 157.448 227.903 157.448L227.198 146.674C224.936 147.89 217.622 157.849 214.904 160.779H224.65Z" fill="#263238"/>
<path opacity="0.3" d="M224.65 160.779C226.565 158.919 227.903 157.448 227.903 157.448L227.198 146.674C224.936 147.89 217.622 157.849 214.904 160.779H224.65Z" fill="white"/>
<path opacity="0.2" d="M224.65 160.779C226.565 158.925 227.903 157.448 227.903 157.448L227.739 154.894L226.93 152.407C225.873 153.508 225.074 154.83 224.594 156.279C224.113 157.727 223.962 159.265 224.151 160.779H224.65Z" fill="black"/>
<path d="M247.578 132.678C247.055 134.684 249.925 140.229 248.763 150.31C247.602 160.39 236.536 159.782 231.563 156.39C226.59 152.997 227.453 134.781 229.161 131.182C230.87 127.583 247.578 132.678 247.578 132.678Z" fill="#263238"/>
<path d="M246.793 160.779C247.158 159.399 247.596 157.885 248.119 156.207C248.492 154.991 248.907 153.7 249.365 152.334C249.714 151.301 250.091 150.176 250.496 148.96C248.027 148.174 245.506 147.565 242.951 147.136C240.254 146.662 237.528 146.375 234.791 146.279C231.259 146.279 227.191 146.649 227.191 146.649C227.191 146.649 226.614 146.783 226.255 150.535C226.06 152.59 225.866 155.848 225.89 160.755L246.793 160.779Z" fill="#263238"/>
<path opacity="0.3" d="M246.793 160.779C247.158 159.399 247.596 157.885 248.119 156.207C248.492 154.991 248.907 153.7 249.365 152.334C249.714 151.301 250.091 150.176 250.496 148.96C248.027 148.174 245.506 147.565 242.951 147.136C240.254 146.662 237.528 146.375 234.791 146.279C231.259 146.279 227.191 146.649 227.191 146.649C227.191 146.649 226.614 146.783 226.255 150.535C226.06 152.59 225.866 155.848 225.89 160.755L246.793 160.779Z" fill="white"/>
<path d="M238.062 145.78C240.245 145.914 243.735 145.89 245.966 149.38H241.832L244.082 152.128C244.082 152.128 236.84 153.854 234.579 158.603C234.579 158.603 231.332 152.973 229.569 151.666C230.644 150.595 231.874 149.691 233.217 148.984C232.046 148.485 230.822 148.121 229.569 147.902C229.569 147.902 235.114 145.604 238.062 145.78Z" fill="white"/>
<path d="M242.124 147.829C242.124 147.829 236.518 154.152 234.785 157.204C233.998 153.865 234.079 150.38 235.022 147.081L242.124 147.829Z" fill="#B0EF8F"/>
<path opacity="0.6" d="M242.124 147.829C242.124 147.829 236.518 154.152 234.785 157.204C233.998 153.865 234.079 150.38 235.022 147.081L242.124 147.829Z" fill="white"/>
<path d="M236.299 150.316C240.78 149.744 242.124 147.829 242.124 147.829C239.278 145.148 241.644 140.533 241.644 140.533L236.251 141.542C236.373 142.292 236.444 143.05 236.463 143.81C236.5 147.081 235.022 147.112 235.022 147.112C234.08 148.856 236.299 150.316 236.299 150.316Z" fill="#EEC1BB"/>
<path opacity="0.2" d="M236.25 141.512C236.373 142.262 236.444 143.02 236.463 143.78C240.111 143.78 241.643 140.503 241.643 140.503L236.25 141.512Z" fill="black"/>
<path d="M239.23 126.464C234.542 126.208 232.901 128.634 232.293 133.444C231.533 139.457 232.633 143.816 238.567 142.849C246.617 141.506 247.012 126.859 239.23 126.464Z" fill="#EEC1BB"/>
<path d="M235.332 133.316C234.922 133.998 234.43 134.626 233.867 135.189C233.993 135.393 234.174 135.559 234.389 135.666C234.603 135.774 234.844 135.819 235.083 135.797L235.332 133.316Z" fill="#D4827D"/>
<path d="M238.226 133.091C238.196 133.48 238.378 133.802 238.634 133.827C238.889 133.851 239.12 133.547 239.151 133.164C239.181 132.781 238.999 132.453 238.743 132.434C238.488 132.416 238.257 132.708 238.226 133.091Z" fill="#263238"/>
<path d="M238.847 132.459L238.038 132.07C238.038 132.07 238.397 132.805 238.847 132.459Z" fill="#263238"/>
<path d="M233.472 132.641C233.442 133.024 233.624 133.353 233.879 133.371C234.135 133.389 234.366 133.097 234.396 132.714C234.427 132.331 234.244 131.997 233.989 131.979C233.734 131.96 233.472 132.252 233.472 132.641Z" fill="#263238"/>
<path d="M234.08 132.009L233.271 131.614C233.271 131.614 233.624 132.349 234.08 132.009Z" fill="#263238"/>
<path d="M240.446 130.89C240.412 130.891 240.378 130.883 240.348 130.867C240.319 130.851 240.293 130.828 240.275 130.799C240.047 130.546 239.764 130.349 239.448 130.223C239.132 130.096 238.791 130.044 238.451 130.069C238.396 130.071 238.343 130.052 238.301 130.016C238.259 129.98 238.233 129.929 238.226 129.875C238.223 129.819 238.242 129.765 238.278 129.723C238.314 129.681 238.366 129.654 238.421 129.65C238.829 129.621 239.239 129.688 239.616 129.845C239.994 130.003 240.33 130.246 240.598 130.556C240.63 130.6 240.643 130.656 240.635 130.71C240.627 130.765 240.599 130.814 240.555 130.847C240.523 130.871 240.485 130.886 240.446 130.89Z" fill="#263238"/>
<path d="M233.162 129.966C233.126 129.966 233.091 129.956 233.06 129.938C233.029 129.92 233.004 129.894 232.986 129.863C232.971 129.839 232.962 129.813 232.958 129.786C232.954 129.759 232.955 129.731 232.962 129.705C232.969 129.678 232.981 129.653 232.998 129.631C233.014 129.609 233.035 129.591 233.059 129.577C233.36 129.372 233.704 129.239 234.064 129.188C234.425 129.138 234.792 129.171 235.138 129.285C235.188 129.308 235.227 129.349 235.248 129.4C235.268 129.451 235.268 129.508 235.247 129.559C235.225 129.609 235.184 129.648 235.133 129.668C235.082 129.689 235.025 129.689 234.974 129.668C234.688 129.581 234.387 129.56 234.092 129.606C233.797 129.652 233.516 129.765 233.271 129.936C233.238 129.954 233.2 129.964 233.162 129.966Z" fill="#263238"/>
<path d="M235.655 137.669C235.846 138.209 235.998 138.762 236.111 139.323C236.212 139.329 236.314 139.329 236.415 139.323C237.789 139.262 238.403 138.782 238.67 138.265C238.791 138.009 238.852 137.728 238.847 137.444C238.847 137.284 238.827 137.125 238.786 136.97C237.958 137.386 237.049 137.618 236.123 137.651L235.655 137.669Z" fill="#263238"/>
<path d="M236.123 137.639L236.269 138.125C237.558 138.058 238.464 137.846 238.847 137.432C238.847 137.272 238.827 137.113 238.786 136.958C237.957 137.374 237.049 137.606 236.123 137.639Z" fill="white"/>
<path d="M236.415 139.311C237.789 139.25 238.403 138.77 238.67 138.253C238.148 138.286 237.635 138.411 237.157 138.624C236.843 138.769 236.584 139.01 236.415 139.311Z" fill="#DE5753"/>
<path d="M243.924 134.611C243.924 134.611 241.941 130.641 242.434 127.686C242.434 127.686 233.356 123.387 232.384 132.787C232.384 132.787 231.934 124.366 239.996 124.622C248.058 124.877 247.383 136.66 243.036 139.943C243.03 139.943 245.146 137.098 243.924 134.611Z" fill="#263238"/>
<path d="M243.103 135.584C243.139 135.316 243.228 135.059 243.365 134.826C243.501 134.593 243.682 134.389 243.897 134.225C244.112 134.062 244.357 133.943 244.618 133.875C244.88 133.806 245.152 133.79 245.419 133.827C246.86 134.064 247.389 137.086 243.735 137.603C243.2 137.657 242.951 137.134 243.103 135.584Z" fill="#EEC1BB"/>
<path d="M241.188 127.224C240.87 131.1 241.829 134.973 243.918 138.253C246.556 142.235 243.528 145.719 243.528 145.719C243.528 145.719 249.785 143.561 247.055 134.684C247.055 134.684 249.998 126.75 244.209 124.616C244.209 124.616 244.179 122.184 238.944 122.658C233.709 123.132 229.502 127.601 228.699 133.316C227.897 139.031 230.882 145.409 230.882 145.409C230.882 145.409 227.714 125.151 241.188 127.224Z" fill="#263238"/>
<path d="M241.479 127.315C241.135 128.673 241.003 130.076 241.09 131.474C241.172 132.89 241.399 134.293 241.765 135.663C242.13 137.043 242.658 138.373 243.34 139.627C244.007 140.892 244.907 142.02 245.991 142.953C244.868 142.052 243.923 140.948 243.206 139.7C242.474 138.456 241.892 137.13 241.473 135.748C241.047 134.362 240.766 132.936 240.634 131.492C240.491 130.028 240.58 128.551 240.896 127.115L241.479 127.315Z" fill="#263238"/>
<path opacity="0.2" d="M246.793 160.779C246.872 160.488 246.951 160.171 247.037 159.892C246.471 157.91 245.887 159.46 245.887 159.46C245.793 159.895 245.724 160.336 245.681 160.779H246.793Z" fill="black"/>
<path d="M254.703 160.779C252.587 155.137 250.496 148.96 250.496 148.96C246.155 150.675 245.918 159.557 245.918 159.557L246.599 160.773L254.703 160.779Z" fill="#263238"/>
<path opacity="0.3" d="M254.703 160.779C252.587 155.137 250.496 148.96 250.496 148.96C246.155 150.675 245.918 159.557 245.918 159.557L246.599 160.773L254.703 160.779Z" fill="white"/>
<path opacity="0.5" d="M158.974 116.402H108.333V160.773H158.974V116.402Z" fill="white"/>
<path d="M134.35 123.618L129.267 128.707H128.215V123.618H134.35Z" fill="white"/>
<path d="M135.414 125.138V128.707H131.845L135.414 125.138Z" fill="white"/>
<path d="M137.98 128.215L136.052 127.607V124.798L137.98 124.19V128.215Z" fill="white"/>
<path d="M133.097 133.371C131.429 133.371 129.812 132.793 128.522 131.735C127.232 130.676 126.349 129.203 126.023 127.567C125.698 125.931 125.95 124.232 126.736 122.76C127.523 121.289 128.795 120.136 130.337 119.498C131.878 118.859 133.594 118.775 135.19 119.26C136.787 119.745 138.166 120.768 139.092 122.155C140.019 123.543 140.436 125.209 140.272 126.869C140.107 128.53 139.373 130.082 138.192 131.261C137.525 131.932 136.73 132.464 135.856 132.826C134.981 133.188 134.044 133.373 133.097 133.371ZM133.097 119.563C132.011 119.562 130.941 119.829 129.983 120.341C129.024 120.853 128.207 121.593 127.603 122.496C126.999 123.399 126.628 124.437 126.521 125.519C126.415 126.6 126.576 127.69 126.992 128.694C127.408 129.698 128.066 130.583 128.906 131.272C129.746 131.961 130.743 132.432 131.809 132.643C132.874 132.854 133.976 132.799 135.015 132.483C136.054 132.166 136.999 131.598 137.767 130.829C138.688 129.906 139.315 128.729 139.569 127.45C139.823 126.17 139.691 124.843 139.192 123.638C138.692 122.432 137.847 121.402 136.762 120.677C135.677 119.952 134.402 119.564 133.097 119.563Z" fill="white"/>
<path d="M137.765 121.071L128.001 130.834L128.431 131.264L138.195 121.501L137.765 121.071Z" fill="white"/>
<path d="M50.9199 241.863L65.9862 240.385V219.208H71.9567V240.379L87.0898 241.863C87.815 241.935 88.4873 242.274 88.9761 242.815C89.4649 243.355 89.7352 244.058 89.7346 244.787V247.049H48.269V244.787C48.27 244.058 48.5417 243.355 49.0315 242.814C49.5212 242.274 50.1942 241.935 50.9199 241.863Z" fill="#263238"/>
<path opacity="0.3" d="M50.9199 241.863L65.9862 240.385V219.208H71.9567V240.379L87.0898 241.863C87.815 241.935 88.4873 242.274 88.9761 242.815C89.4649 243.355 89.7352 244.058 89.7346 244.787V247.049H48.269V244.787C48.27 244.058 48.5417 243.355 49.0315 242.814C49.5212 242.274 50.1942 241.935 50.9199 241.863Z" fill="white"/>
<path d="M84.2383 249.852C84.2383 250.624 84.4672 251.378 84.8961 252.02C85.325 252.662 85.9346 253.162 86.6479 253.458C87.3611 253.753 88.146 253.831 88.9031 253.68C89.6603 253.529 90.3558 253.158 90.9017 252.612C91.4476 252.066 91.8194 251.37 91.97 250.613C92.1206 249.856 92.0433 249.071 91.7479 248.358C91.4524 247.645 90.9521 247.035 90.3102 246.606C89.6683 246.177 88.9137 245.948 88.1416 245.948C87.1064 245.948 86.1136 246.359 85.3815 247.092C84.6495 247.824 84.2383 248.816 84.2383 249.852Z" fill="#B0EF8F"/>
<path d="M53.7715 249.852C53.7727 250.625 53.5446 251.381 53.116 252.025C52.6875 252.668 52.0777 253.17 51.3638 253.467C50.6499 253.764 49.8639 253.843 49.1053 253.693C48.3468 253.544 47.6496 253.172 47.102 252.626C46.5544 252.08 46.181 251.384 46.0289 250.626C45.8769 249.868 45.9531 249.082 46.2479 248.367C46.5427 247.652 47.0428 247.041 47.6851 246.611C48.3273 246.18 49.0828 245.949 49.856 245.948C50.3694 245.947 50.8779 246.048 51.3525 246.244C51.8272 246.439 52.2586 246.727 52.6222 247.089C52.9858 247.451 53.2744 247.882 53.4716 248.356C53.6688 248.83 53.7707 249.338 53.7715 249.852Z" fill="#B0EF8F"/>
<path d="M70.4612 223.756H67.4577C66.7917 223.756 66.153 223.492 65.6821 223.021C65.2112 222.55 64.9466 221.911 64.9466 221.245V204.908H72.9905L72.9905 221.245C72.9905 221.577 72.9249 221.905 72.7976 222.21C72.6703 222.516 72.4837 222.794 72.2486 223.027C72.0135 223.261 71.7345 223.445 71.4277 223.57C71.121 223.696 70.7925 223.759 70.4612 223.756Z" fill="#263238"/>
<path opacity="0.5" d="M70.4612 223.756H67.4577C66.7917 223.756 66.153 223.492 65.6821 223.021C65.2112 222.55 64.9466 221.911 64.9466 221.245V204.908H72.9905L72.9905 221.245C72.9905 221.577 72.9249 221.905 72.7976 222.21C72.6703 222.516 72.4837 222.794 72.2486 223.027C72.0135 223.261 71.7345 223.445 71.4277 223.57C71.121 223.696 70.7925 223.759 70.4612 223.756Z" fill="white"/>
<path d="M54.72 171.791C54.72 171.791 53.5587 200.032 61.408 204.896H52.446C52.446 204.896 45.4905 195.278 47.4544 171.791H54.72Z" fill="#263238"/>
<path opacity="0.5" d="M54.72 171.791C54.72 171.791 53.5587 200.032 61.408 204.896H52.446C52.446 204.896 45.4905 195.278 47.4544 171.791H54.72Z" fill="white"/>
<path d="M52.4279 200.944H86.5793C87.3856 200.944 88.1588 201.264 88.7289 201.834C89.299 202.405 89.6193 203.178 89.6193 203.984V207.061H49.3879V203.984C49.3879 203.178 49.7082 202.405 50.2783 201.834C50.8484 201.264 51.6217 200.944 52.4279 200.944Z" fill="#B0EF8F"/>
<path d="M90.0691 204.002H48.9318C48.2569 204.002 47.7097 204.55 47.7097 205.225V205.839C47.7097 206.514 48.2569 207.061 48.9318 207.061H90.0691C90.744 207.061 91.2911 206.514 91.2911 205.839V205.225C91.2911 204.55 90.744 204.002 90.0691 204.002Z" fill="#B0EF8F"/>
<path opacity="0.6" d="M90.0691 204.002H48.9318C48.2569 204.002 47.7097 204.55 47.7097 205.225V205.839C47.7097 206.514 48.2569 207.061 48.9318 207.061H90.0691C90.744 207.061 91.2911 206.514 91.2911 205.839V205.225C91.2911 204.55 90.744 204.002 90.0691 204.002Z" fill="white"/>
<path d="M46.4878 177.53H58.3924C63.2882 177.53 67.2571 173.561 67.2571 168.665V165.516C67.2571 160.62 63.2882 156.651 58.3924 156.651H46.4878C41.592 156.651 37.6232 160.62 37.6232 165.516V168.665C37.6232 173.561 41.592 177.53 46.4878 177.53Z" fill="#B0EF8F"/>
<path d="M84.2932 152.316C85.9044 152.979 95.0426 164.634 95.2798 167.091C95.5777 170.07 92.5559 170.635 89.2666 169.863C85.9774 169.091 88.4702 165.862 88.4702 165.862L83.4055 158.773L84.2932 152.316Z" fill="#263238"/>
<path d="M82.834 181.342H71.282C71.282 181.342 73.5073 166.081 73.8721 165.863C74.2369 165.644 82.3111 165.103 82.3111 165.103V173.615L82.834 181.342Z" fill="#263238"/>
<path d="M69.6647 148.176C70.0842 148.091 74.4922 146.267 76.8877 148.109C79.2832 149.951 81.9827 156.086 77.6903 158.311C73.3978 160.536 67.9197 159.375 67.2631 156.025C66.6064 152.675 69.6647 148.176 69.6647 148.176Z" fill="#263238"/>
<path d="M66.2293 134.417C66.2293 134.417 63.3353 141.105 65.3599 143.585C67.3845 146.066 80.5903 148.036 82.8825 145.707C85.1746 143.379 82.1711 134.155 82.1711 134.155L66.2293 134.417Z" fill="#263238"/>
<path d="M118.141 232.487L114.699 233.314L112.96 228.565L111.38 224.249L115.295 222.577L116.803 227.818L118.141 232.487Z" fill="#E4897B"/>
<path opacity="0.2" d="M116.803 227.818L112.96 228.565L111.38 224.249L115.295 222.577L116.803 227.818Z" fill="black"/>
<path d="M116.456 225.313L111.69 227.082C111.69 227.082 98.9641 195.272 96.3497 195.162C93.7353 195.053 67.1049 207.286 60.4351 200.5C53.7654 193.715 63.4083 177.36 63.4083 177.36C63.4083 177.36 79.4595 175.074 80.6694 178.697C80.9684 179.765 81.1959 180.852 81.3503 181.95C81.5327 183.057 81.6543 183.987 81.6543 183.987C82.1529 183.865 98.2649 179.731 104.612 183.987C111.075 188.353 116.456 225.313 116.456 225.313Z" fill="#263238"/>
<path opacity="0.2" d="M116.456 225.313L111.69 227.082C111.69 227.082 98.9641 195.272 96.3497 195.162C93.7353 195.053 67.1049 207.286 60.4351 200.5C53.7654 193.715 63.4083 177.36 63.4083 177.36C63.4083 177.36 79.4595 175.074 80.6694 178.697C80.9684 179.765 81.1959 180.852 81.3503 181.95C81.5327 183.057 81.6543 183.987 81.6543 183.987C82.1529 183.865 98.2649 179.731 104.612 183.987C111.075 188.353 116.456 225.313 116.456 225.313Z" fill="white"/>
<path d="M89.0234 246.058L85.5942 245.176L86.257 240.264L86.865 235.752L91.1027 236.135L90.0022 241.388L89.0234 246.058Z" fill="#E4897B"/>
<path opacity="0.2" d="M89.9779 241.492L86.2327 240.355L86.8528 235.801L91.0967 236.16L89.9779 241.492Z" fill="black"/>
<path d="M109.72 225.319L116.663 222.96L116.961 225.805L111.696 227.666L109.72 225.319Z" fill="#263238"/>
<path d="M71.9629 202.13C71.9629 202.13 73.0451 202.16 89.8807 201.376C89.8807 201.376 87.3696 222.419 85.9955 238.178L91.0298 239.035C91.0298 239.035 103.056 205.297 102.928 199.935C102.801 194.572 96.672 193.004 96.672 193.004C96.672 193.004 84.6579 199.935 71.9629 202.13Z" fill="#263238"/>
<path opacity="0.1" d="M71.9629 202.13C71.9629 202.13 73.0451 202.16 89.8807 201.376C89.8807 201.376 87.3696 222.419 85.9955 238.178L91.0298 239.035C91.0298 239.035 103.056 205.297 102.928 199.935C102.801 194.572 96.672 193.004 96.672 193.004C96.672 193.004 84.6579 199.935 71.9629 202.13Z" fill="white"/>
<path d="M85.2599 236.652L92.179 237.436L90.8414 240.148L85.2417 239.43L85.2599 236.652Z" fill="#263238"/>
<path opacity="0.3" d="M81.6544 183.987L72.2668 185.945C72.2668 185.945 77.4592 183.081 81.3504 181.95C81.5328 183.057 81.6544 183.987 81.6544 183.987Z" fill="black"/>
<path d="M63.7973 174.867L63.4082 177.366L80.6693 178.697L81.1253 175.742L63.7973 174.867Z" fill="#263238"/>
<path opacity="0.2" d="M63.7973 174.867L63.4082 177.366L80.6693 178.697L81.1253 175.742L63.7973 174.867Z" fill="black"/>
<path d="M69.6851 174.702L68.8323 174.614L68.3858 178.957L69.2386 179.044L69.6851 174.702Z" fill="#263238"/>
<path d="M77.0762 175.744L73.2961 175.501L73.1116 178.371L76.8916 178.614L77.0762 175.744Z" fill="white"/>
<path d="M80.2883 175.169L79.4355 175.082L78.9891 179.424L79.8419 179.512L80.2883 175.169Z" fill="#263238"/>
<path opacity="0.2" d="M69.6851 174.702L68.8323 174.614L68.3858 178.957L69.2386 179.044L69.6851 174.702Z" fill="white"/>
<path opacity="0.2" d="M80.2883 175.169L79.4355 175.082L78.9891 179.424L79.8419 179.512L80.2883 175.169Z" fill="white"/>
<path d="M83.1622 151.939C80.2794 150.106 76.9781 149.034 73.568 148.826C68.0291 148.54 63.0496 151.593 63.0496 151.593L63.7852 174.867L81.1132 175.742C81.1132 175.742 86.5913 160.214 83.1622 151.939Z" fill="#B0EF8F"/>
<path d="M82.3172 136.387C82.3172 136.387 84.8161 125.145 74.4132 126.257C61.3594 127.656 66.3146 143.889 72.7898 142.874C79.265 141.859 82.3172 136.387 82.3172 136.387Z" fill="#263238"/>
<path opacity="0.2" d="M80.1708 151.447L80.4809 156.347L76.7234 152.979C76.7234 152.979 76.4681 155.411 75.5986 159.454C75.3252 157.349 74.7306 155.299 73.8354 153.374L70.2847 156.986L67.9622 151.447C67.9622 151.447 75.0758 146.291 80.1708 151.447Z" fill="black"/>
<path d="M75.4345 155.423L73.568 150.815L70.1206 149.27C73.1606 147.167 71.6345 142.461 71.6345 142.461L76.5532 144.193C76.3262 144.879 76.1494 145.58 76.0243 146.291C75.5136 149.331 76.8937 149.599 76.8937 149.599L75.9452 150.973L75.4345 155.423Z" fill="#E4897B"/>
<path opacity="0.2" d="M76.5471 144.193C76.3201 144.879 76.1433 145.58 76.0182 146.291C73.6652 145.349 71.6284 142.461 71.6284 142.461L76.5471 144.193Z" fill="black"/>
<path d="M76.7174 129.504C81.1619 129.887 82.384 132.386 82.3171 136.989C82.232 142.746 80.6147 146.717 75.167 145.002C67.7677 142.698 69.3424 128.896 76.7174 129.504Z" fill="#E4897B"/>
<path d="M79.4655 136.496C79.7651 137.19 80.1469 137.845 80.6025 138.448C80.4572 138.621 80.2664 138.751 80.0516 138.821C79.8368 138.892 79.6064 138.902 79.3865 138.849L79.4655 136.496Z" fill="#DE5753"/>
<path d="M76.7783 135.9C76.7783 136.265 76.5412 136.551 76.298 136.508C76.0548 136.466 75.8724 136.186 75.8967 135.821C75.921 135.456 76.1338 135.171 76.377 135.183C76.6202 135.195 76.8026 135.535 76.7783 135.9Z" fill="#263238"/>
<path d="M76.2798 135.219L77.0945 134.958C77.0945 134.958 76.6567 135.584 76.2798 135.219Z" fill="#263238"/>
<path d="M81.3321 136.107C81.3321 136.472 81.0889 136.758 80.8457 136.715C80.6025 136.672 80.4262 136.393 80.4444 136.028C80.4627 135.663 80.6876 135.377 80.9308 135.39C81.174 135.402 81.3503 135.742 81.3321 136.107Z" fill="#263238"/>
<path d="M80.8276 135.426L81.6424 135.165C81.6424 135.165 81.2046 135.809 80.8276 135.426Z" fill="#263238"/>
<path d="M75.0149 133.553C74.9868 133.554 74.9589 133.549 74.9329 133.538C74.9068 133.528 74.883 133.512 74.8629 133.493C74.8418 133.473 74.8249 133.449 74.8134 133.422C74.8018 133.395 74.7959 133.367 74.7959 133.338C74.7959 133.309 74.8018 133.28 74.8134 133.253C74.8249 133.226 74.8418 133.202 74.8629 133.183C75.1579 132.923 75.5094 132.736 75.8895 132.637C76.2696 132.538 76.6676 132.529 77.0517 132.611C77.1084 132.624 77.1578 132.659 77.1895 132.707C77.2213 132.756 77.2329 132.815 77.222 132.872C77.2162 132.901 77.2048 132.928 77.1885 132.952C77.1722 132.976 77.1512 132.997 77.1269 133.012C77.1026 133.028 77.0753 133.039 77.0468 133.044C77.0182 133.049 76.9889 133.049 76.9605 133.043C76.6493 132.979 76.3278 132.986 76.0195 133.063C75.7112 133.139 75.4241 133.284 75.1791 133.487C75.1575 133.508 75.1319 133.525 75.1037 133.536C75.0755 133.548 75.0454 133.554 75.0149 133.553Z" fill="#263238"/>
<path d="M81.9828 133.657C81.9323 133.656 81.8834 133.639 81.843 133.608C81.6378 133.418 81.3926 133.276 81.1253 133.193C80.8581 133.11 80.5756 133.087 80.2987 133.128C80.243 133.143 80.1838 133.135 80.1337 133.107C80.0836 133.078 80.0468 133.031 80.0311 132.976C80.016 132.919 80.0234 132.859 80.0517 132.808C80.0801 132.757 80.1272 132.719 80.1831 132.702C80.5267 132.643 80.8792 132.663 81.2141 132.76C81.5491 132.857 81.8576 133.028 82.1166 133.262C82.1395 133.279 82.1587 133.302 82.173 133.327C82.1873 133.352 82.1964 133.38 82.1998 133.409C82.2032 133.438 82.2008 133.467 82.1928 133.495C82.1848 133.523 82.1712 133.549 82.153 133.572C82.1332 133.598 82.1075 133.62 82.078 133.634C82.0484 133.649 82.0158 133.657 81.9828 133.657Z" fill="#263238"/>
<path d="M71.2212 136.569C71.2212 136.569 73.6106 133.103 73.5377 130.258C73.5377 130.258 82.6577 127.419 82.3172 136.387C82.3172 136.387 83.8554 128.531 76.2372 127.698C68.619 126.865 67.6887 138.034 71.3732 141.682C71.3489 141.707 69.7377 138.746 71.2212 136.569Z" fill="#263238"/>
<path d="M71.8656 137.572C71.8696 137.314 71.8223 137.057 71.7265 136.817C71.6307 136.576 71.4882 136.358 71.3073 136.173C71.1264 135.988 70.9106 135.841 70.6725 135.74C70.4344 135.639 70.1786 135.586 69.92 135.584C68.5337 135.621 67.6339 138.387 70.9961 139.36C71.4825 139.524 71.7987 139.068 71.8656 137.572Z" fill="#E4897B"/>
<path d="M79.6481 140.661C79.3812 141.137 79.1476 141.63 78.9489 142.138L78.6692 142.078C77.3924 141.792 76.8999 141.245 76.7357 140.716C76.6581 140.457 76.6455 140.184 76.6993 139.919C76.7233 139.77 76.7683 139.624 76.833 139.488C77.5414 140.011 78.3543 140.376 79.2164 140.558C79.4657 140.631 79.6481 140.661 79.6481 140.661Z" fill="#263238"/>
<path d="M79.2041 140.558L78.9853 140.989C77.7693 140.722 76.9789 140.381 76.687 139.919C76.711 139.77 76.7561 139.624 76.8208 139.488C77.5292 140.011 78.3421 140.376 79.2041 140.558Z" fill="white"/>
<path d="M78.6571 142.077C77.3803 141.792 76.8878 141.245 76.7236 140.716C77.2056 140.838 77.6624 141.044 78.0734 141.324C78.3398 141.51 78.5434 141.773 78.6571 142.077Z" fill="#DE5753"/>
<path d="M76.6079 129.832C76.6079 129.832 74.1759 136.983 69.5976 136.52C65.0194 136.058 72.8991 127.4 72.8991 127.4C72.8991 127.4 80.6572 125.212 84.0194 129.516C87.3816 133.821 82.3292 136.423 82.3292 136.423C82.3292 136.423 83.0831 130.751 76.6079 129.832Z" fill="#263238"/>
<path d="M72.9175 135.937C72.8871 135.936 72.8575 135.927 72.8326 135.91C72.8077 135.892 72.7885 135.868 72.7776 135.84C72.7637 135.801 72.7654 135.758 72.7825 135.721C72.7995 135.683 72.8305 135.654 72.8688 135.639C76.5168 134.259 76.4439 129.358 76.4439 129.31C76.4439 129.269 76.4599 129.231 76.4884 129.202C76.5169 129.174 76.5555 129.158 76.5959 129.158C76.6155 129.157 76.6352 129.16 76.6536 129.167C76.672 129.174 76.6888 129.184 76.703 129.198C76.7172 129.212 76.7285 129.228 76.7362 129.246C76.7439 129.264 76.7479 129.284 76.7479 129.304C76.7479 129.352 76.8208 134.465 72.9722 135.925L72.9175 135.937Z" fill="#263238"/>
<path d="M71.4461 147.47L73.5619 150.814L70.911 155.423L68.9897 149.507L71.4461 147.47Z" fill="#B0EF8F"/>
<path d="M75.9392 148.109V150.973L79.0704 154.432L78.049 149.465L75.9392 148.109Z" fill="#B0EF8F"/>
<path d="M123.831 239.163C123.31 238.924 122.75 238.781 122.178 238.744C122.178 238.744 120.189 237.576 118.219 233.034H116.006C115.632 233.038 115.268 233.157 114.964 233.374C114.659 233.592 114.429 233.898 114.304 234.25C114.269 234.348 114.248 234.451 114.243 234.554C114.266 235.09 114.323 235.625 114.413 236.153C114.74 237.913 115.172 239.651 115.708 241.358L116.079 241.267L115.398 237.959C115.173 236.841 116.353 237.923 116.9 239.054C117.447 240.184 118.286 241.328 120.731 240.768C123.582 240.087 124.725 239.68 123.831 239.163Z" fill="#263238"/>
<path d="M117.818 231.843C117.818 231.843 120.585 237.625 122.178 238.743C122.178 238.743 120.043 240.014 117.818 237.181C114.942 233.533 114.243 234.542 114.243 234.542C114.301 233.911 114.417 233.286 114.59 232.676C115.021 231.496 117.818 231.843 117.818 231.843Z" fill="#E4897B"/>
<path d="M93.3826 252.928C92.9327 252.572 92.4218 252.3 91.8748 252.126C91.8748 252.126 90.221 250.521 89.382 245.638L87.2357 245.103C86.8717 245.019 86.4904 245.048 86.1435 245.187C85.7966 245.326 85.5008 245.569 85.2962 245.882C85.236 245.969 85.1908 246.065 85.1625 246.167C85.058 246.691 84.9869 247.221 84.9497 247.754C84.8397 249.542 84.8397 251.335 84.9497 253.123H85.3327L85.4543 249.754C85.5029 248.611 86.3906 249.943 86.6703 251.171C86.95 252.399 87.4789 253.706 89.9839 253.743C92.9205 253.786 94.1305 253.658 93.3826 252.928Z" fill="#263238"/>
<path d="M89.2788 244.416C89.2788 244.416 90.592 250.697 91.8749 252.156C91.8749 252.156 89.4976 252.886 88.008 249.609C86.0868 245.353 85.1626 246.198 85.1626 246.198C85.3673 245.597 85.6278 245.017 85.9408 244.465C86.64 243.407 89.2788 244.416 89.2788 244.416Z" fill="#E4897B"/>
<path d="M68.4304 149.234C68.4304 149.234 73.8234 165.254 66.2234 183.446L58.8423 182.485L63.4084 172.149L62.4112 151.331L68.4304 149.234Z" fill="#263238"/>
<path d="M78.657 149.805C78.657 149.805 81.1255 153.781 80.8275 165.862L82.3171 182.965L83.752 181.95L82.5786 173.608C82.5786 173.608 85.6976 158.925 84.2931 152.328L78.657 149.805Z" fill="#263238"/>
<path d="M76.8877 148.109C76.8877 148.109 81.0768 150.31 83.217 153.319L81.6544 154.76L83.752 157.8L80.8275 165.832C80.8275 165.832 79.2407 150.784 76.8877 148.109Z" fill="#263238"/>
<path opacity="0.2" d="M76.8877 148.109C76.8877 148.109 81.0768 150.31 83.217 153.319L81.6544 154.76L83.752 157.8L80.8275 165.832C80.8275 165.832 79.2407 150.784 76.8877 148.109Z" fill="white"/>
<path d="M69.6647 148.176C69.6647 148.176 71.5859 159.12 70.1146 166.726L65.5181 156.311L68.1507 153.782L64.6426 151.277C66.0467 149.859 67.7682 148.796 69.6647 148.176Z" fill="#263238"/>
<path opacity="0.2" d="M69.6647 148.176C69.6647 148.176 71.5859 159.12 70.1146 166.726L65.5181 156.311L68.1507 153.782L64.6426 151.277C66.0467 149.859 67.7682 148.796 69.6647 148.176Z" fill="white"/>
<path d="M75.1062 167.461L81.326 167.899C81.8296 167.567 82.3784 167.309 82.9555 167.133C83.7155 166.951 88.1356 166.47 88.9382 166.78C89.7408 167.091 90.4582 169.711 90.3852 170.252C90.3123 170.793 83.6304 170.976 83.4176 170.994C83.2048 171.012 82.4448 170.307 82.4448 170.307L75.1062 170.24V167.461Z" fill="#E4897B"/>
<path d="M62.4112 151.307C58.3619 153.739 56.1549 166.841 58.8423 168.89C61.5296 170.939 79.9946 170.994 79.9946 170.994L80.6026 167.091C80.6026 167.091 64.7399 165.504 63.9312 163.965C63.1226 162.427 63.4083 156.347 63.4083 156.347L62.4112 151.307Z" fill="#263238"/>
<path d="M134.027 253.761H137.232L142.989 173.608H138.739L134.027 253.761Z" fill="#263238"/>
<path opacity="0.7" d="M134.027 253.761H137.232L142.71 177.591L142.989 173.742H138.739L138.508 177.591L134.027 253.761Z" fill="white"/>
<path opacity="0.2" d="M138.508 177.402H142.71L142.989 173.742H138.739L138.508 177.402Z" fill="black"/>
<path d="M110.516 253.761H113.72L114.243 173.608H109.993L110.516 253.761Z" fill="#263238"/>
<path opacity="0.7" d="M109.987 173.742L110.072 186.668L110.51 253.761H113.72L114.158 186.668L114.243 173.742H109.987Z" fill="white"/>
<path opacity="0.2" d="M109.987 173.742L110.072 186.814H114.158L114.243 173.742H109.987Z" fill="black"/>
<path d="M76.4985 253.761H79.7027L85.4605 173.608H81.2105L76.4985 253.761Z" fill="#263238"/>
<path opacity="0.7" d="M76.4985 253.761H79.7027L85.1808 177.591L85.4605 173.742H81.2105L80.9795 177.591L76.4985 253.761Z" fill="white"/>
<path opacity="0.2" d="M80.9795 177.402H85.1808L85.4604 173.742H81.2105L80.9795 177.402Z" fill="black"/>
<path d="M170.684 253.761H173.888L169.176 173.608H164.926L170.684 253.761Z" fill="#263238"/>
<path opacity="0.7" d="M164.926 173.742L165.206 177.591L170.684 253.761H173.882L169.407 177.591L169.176 173.742H164.926Z" fill="white"/>
<path opacity="0.2" d="M169.176 173.742H164.926L165.206 177.402H169.407L169.176 173.742Z" fill="black"/>
<path d="M171.231 175.621H79.1555C78.8072 175.621 78.4731 175.482 78.2268 175.236C77.9805 174.99 77.8422 174.656 77.8422 174.307V171.608H172.562V174.307C172.563 174.481 172.528 174.654 172.461 174.814C172.394 174.975 172.295 175.12 172.171 175.243C172.048 175.365 171.901 175.461 171.739 175.526C171.578 175.591 171.405 175.623 171.231 175.621Z" fill="#B0EF8F"/>
<path opacity="0.6" d="M171.231 175.621H79.1555C78.8072 175.621 78.4731 175.482 78.2268 175.236C77.9805 174.99 77.8422 174.656 77.8422 174.307V171.608H172.562V174.307C172.563 174.481 172.528 174.654 172.461 174.814C172.394 174.975 172.295 175.12 172.171 175.243C172.048 175.365 171.901 175.461 171.739 175.526C171.578 175.591 171.405 175.623 171.231 175.621Z" fill="white"/>
<path opacity="0.2" d="M77.8421 173.615H172.55V171.608H77.8421V173.615Z" fill="black"/>
<path d="M75.854 172.125H174.532C174.832 172.125 175.12 172.006 175.332 171.794C175.544 171.581 175.663 171.294 175.663 170.994C175.662 170.694 175.542 170.408 175.33 170.196C175.119 169.984 174.832 169.865 174.532 169.863H75.854C75.5541 169.863 75.2664 169.982 75.0544 170.194C74.8423 170.406 74.7231 170.694 74.7231 170.994C74.7231 171.294 74.8423 171.581 75.0544 171.794C75.2664 172.006 75.5541 172.125 75.854 172.125Z" fill="#B0EF8F"/>
<path opacity="0.6" d="M75.854 172.125H174.532C174.832 172.125 175.12 172.006 175.332 171.794C175.544 171.581 175.663 171.294 175.663 170.994C175.662 170.694 175.542 170.408 175.33 170.196C175.119 169.984 174.832 169.865 174.532 169.863H75.854C75.5541 169.863 75.2664 169.982 75.0544 170.194C74.8423 170.406 74.7231 170.694 74.7231 170.994C74.7231 171.294 74.8423 171.581 75.0544 171.794C75.2664 172.006 75.5541 172.125 75.854 172.125Z" fill="white"/>
<path d="M134.064 169.863L133.547 167.917H112.34L102.576 168.89L102.199 169.863H134.064Z" fill="#263238"/>
<path opacity="0.4" d="M112.34 167.917V169.863H134.064L133.547 167.917H112.34Z" fill="black"/>
<path d="M116.602 158.578C116.574 158.815 116.596 159.055 116.668 159.282C116.74 159.509 116.86 159.718 117.019 159.895C117.179 160.072 117.375 160.213 117.593 160.308C117.812 160.403 118.048 160.449 118.286 160.445H150.784C151.292 160.435 151.78 160.239 152.154 159.896C152.529 159.552 152.766 159.084 152.821 158.578L154.748 137.779C154.775 137.543 154.751 137.303 154.678 137.077C154.606 136.851 154.486 136.643 154.327 136.466C154.167 136.29 153.972 136.149 153.755 136.053C153.537 135.958 153.302 135.91 153.064 135.912H120.566C120.057 135.92 119.569 136.114 119.193 136.458C118.818 136.802 118.582 137.272 118.53 137.779L116.602 158.578Z" fill="#263238"/>
<path opacity="0.4" d="M118.396 160.445H150.784C151.292 160.435 151.779 160.24 152.154 159.896C152.529 159.552 152.766 159.084 152.821 158.579L154.748 137.779C154.771 137.575 154.757 137.369 154.705 137.171H122.323C121.815 137.181 121.328 137.376 120.953 137.72C120.578 138.064 120.341 138.532 120.287 139.037L118.359 159.837C118.337 160.04 118.35 160.246 118.396 160.445Z" fill="black"/>
<path d="M140.722 147.689H133.997L135.791 166.932L125.163 168.525V169.863H147.543V168.525L142.959 166.932L140.722 147.689Z" fill="#263238"/>
<path opacity="0.1" d="M133.997 147.689L138.977 169.559L142.959 169.443L140.722 147.689H133.997Z" fill="white"/>
<path d="M137.584 134.496H136.289V136.751H137.584V134.496Z" fill="#263238"/>
<path d="M136.289 134.411H134.727C134.568 134.092 134.49 133.739 134.502 133.383C134.484 133.029 134.562 132.676 134.727 132.362H136.289V134.411Z" fill="#263238"/>
<path d="M138.958 133.298C138.958 133.671 138.848 134.035 138.641 134.345C138.434 134.655 138.139 134.897 137.795 135.039C137.45 135.182 137.071 135.219 136.706 135.146C136.34 135.074 136.004 134.894 135.741 134.631C135.477 134.367 135.298 134.031 135.225 133.666C135.152 133.3 135.19 132.921 135.332 132.577C135.475 132.232 135.716 131.938 136.026 131.731C136.336 131.524 136.701 131.413 137.074 131.413C137.321 131.412 137.567 131.46 137.796 131.555C138.025 131.649 138.233 131.788 138.408 131.963C138.583 132.139 138.722 132.347 138.816 132.576C138.911 132.805 138.959 133.05 138.958 133.298Z" fill="#263238"/>
<path opacity="0.1" d="M138.958 133.298C138.958 133.671 138.848 134.035 138.641 134.345C138.434 134.655 138.139 134.897 137.795 135.039C137.45 135.182 137.071 135.219 136.706 135.146C136.34 135.074 136.004 134.894 135.741 134.631C135.477 134.367 135.298 134.031 135.225 133.666C135.152 133.3 135.19 132.921 135.332 132.577C135.475 132.232 135.716 131.938 136.026 131.731C136.336 131.524 136.701 131.413 137.074 131.413C137.321 131.412 137.567 131.46 137.796 131.555C138.025 131.649 138.233 131.788 138.408 131.963C138.583 132.139 138.722 132.347 138.816 132.576C138.911 132.805 138.959 133.05 138.958 133.298Z" fill="white"/>
<path d="M160.044 155.338V169.863H152.802C152.852 164.817 153.562 159.799 154.912 154.937C155 154.627 155.186 154.354 155.443 154.159C155.7 153.965 156.013 153.86 156.335 153.86H158.566C158.76 153.86 158.952 153.899 159.132 153.973C159.311 154.047 159.474 154.156 159.611 154.293C159.748 154.43 159.857 154.593 159.931 154.772C160.006 154.952 160.044 155.144 160.044 155.338Z" fill="#263238"/>
<path opacity="0.4" d="M160.044 155.338V169.863H156.396V155.879C156.396 155.345 156.608 154.834 156.985 154.456C157.363 154.079 157.874 153.867 158.408 153.867H158.542C158.738 153.863 158.932 153.899 159.113 153.971C159.295 154.044 159.461 154.152 159.6 154.289C159.74 154.425 159.851 154.589 159.927 154.769C160.003 154.949 160.043 155.142 160.044 155.338Z" fill="black"/>
<path d="M113.836 155.338V169.863H106.594C106.644 164.817 107.354 159.799 108.704 154.937C108.792 154.627 108.978 154.354 109.235 154.159C109.492 153.965 109.805 153.86 110.127 153.86H112.358C112.552 153.86 112.744 153.899 112.924 153.973C113.103 154.047 113.266 154.156 113.403 154.293C113.54 154.43 113.649 154.593 113.723 154.772C113.798 154.952 113.836 155.144 113.836 155.338Z" fill="#263238"/>
<path opacity="0.4" d="M113.836 155.338V169.863H110.188V155.879C110.188 155.345 110.4 154.834 110.777 154.456C111.155 154.079 111.666 153.867 112.2 153.867H112.334C112.53 153.863 112.724 153.899 112.905 153.971C113.087 154.044 113.253 154.152 113.392 154.289C113.532 154.425 113.643 154.589 113.719 154.769C113.795 154.949 113.835 155.142 113.836 155.338Z" fill="black"/>
</svg>
