<svg width="126" height="126" viewBox="0 0 126 126" fill="none" xmlns="http://www.w3.org/2000/svg">
<path d="M63 126C97.7939 126 126 97.7939 126 63C126 28.2061 97.7939 0 63 0C28.2061 0 0 28.2061 0 63C0 97.7939 28.2061 126 63 126Z" fill="#163434"/>
<path d="M58.3039 30C60.6133 26 66.3868 26 68.6962 30L97.708 80.25C100.017 84.25 97.1307 89.25 92.5119 89.25H34.4881C29.8693 89.25 26.9826 84.25 29.292 80.25L58.3039 30Z" fill="#FFC107"/>
<g clip-path="url(#clip0_270_1555)">
<path d="M66.2303 47C68.5593 47 69.7235 48.5071 69.7235 50.2304C69.7235 52.3826 67.7012 54.3735 65.0657 54.3735C62.8591 54.3735 61.5718 53.1354 61.633 51.091C61.633 49.3681 63.1652 47 66.2303 47ZM59.0584 80C57.2195 80 55.871 78.9235 57.1583 74.1871L59.2696 65.7862C59.6372 64.4408 59.6974 63.9029 59.2696 63.9029C58.7172 63.9029 56.3301 64.8322 54.9183 65.7476L54 64.294C58.4741 60.6884 63.6216 58.5738 65.8275 58.5738C67.6657 58.5738 67.9729 60.6729 67.0536 63.9026L64.6365 72.7334C64.2073 74.294 64.392 74.8319 64.8198 74.8319C65.3715 74.8319 67.1805 74.1841 68.9576 72.8383L70 74.1844C65.648 78.383 60.8974 80 59.0584 80Z" fill="#163434"/>
</g>
<defs>
<clipPath id="clip0_270_1555">
<rect width="16" height="33" fill="white" transform="translate(54 47)"/>
</clipPath>
</defs>
</svg>
