<svg width="104" height="104" viewBox="0 0 104 104" fill="none" xmlns="http://www.w3.org/2000/svg">
<path d="M52 104C80.7188 104 104 80.7188 104 52C104 23.2812 80.7188 0 52 0C23.2812 0 0 23.2812 0 52C0 80.7188 23.2812 104 52 104Z" fill="#163434"/>
<path d="M80.2762 72.0744C80.2762 78.9689 62.6463 82.1206 52.2065 82.1206C41.7666 82.1206 24.2354 78.9689 24.2354 72.0744C24.2354 70.991 24.6294 70.0062 25.4173 69.1198C34.9708 49.5205 32.5086 40.3608 37.7287 33.0725C40.0923 29.8223 42.85 27.754 47.282 26.7692C47.4791 24.2084 49.5474 22.2388 52.2066 22.2388C54.7674 22.2388 56.9341 24.2086 57.1312 26.7692C61.5632 27.754 64.3209 29.8223 66.6847 33.0725C71.9048 40.3608 69.4423 49.5205 78.996 69.1198C79.7837 70.0062 80.2762 70.9911 80.2762 72.0744ZM74.4652 70.1048C70.4271 65.279 59.9872 64.294 52.2065 64.294C44.5243 64.294 33.9858 65.2788 29.9479 70.1048C33.986 74.9309 44.5243 76.1125 52.2065 76.0144C59.9872 76.0144 70.4271 75.0291 74.4652 70.1048ZM47.7745 67.7409C47.7745 67.1502 50.8276 67.0517 52.2065 67.0517C55.6536 67.0517 56.6386 67.3472 56.6386 67.7409C56.6386 70.4988 54.6686 72.6657 52.2065 72.6657C49.7443 72.6657 47.7745 70.4988 47.7745 67.7409Z" fill="#FFC107"/>
<circle cx="68.5077" cy="37.9682" r="11.5556" fill="#D63E30"/>
<path d="M75.0381 38.4463C75.0381 39.4365 74.9151 40.3389 74.669 41.1533C74.4229 41.9619 74.0479 42.6592 73.544 43.2451C73.0459 43.8311 72.4131 44.2822 71.6456 44.5986C70.878 44.9092 69.9698 45.0645 68.9209 45.0645C67.8721 45.0645 66.9639 44.9092 66.1963 44.5986C65.4288 44.2822 64.793 43.8311 64.2891 43.2451C63.7911 42.6592 63.419 41.959 63.1729 41.1445C62.9268 40.3301 62.8038 39.4248 62.8038 38.4287C62.8038 37.0986 63.0206 35.9414 63.4541 34.957C63.8936 33.9668 64.5674 33.1992 65.4756 32.6543C66.3838 32.1094 67.5381 31.8369 68.9385 31.8369C70.3331 31.8369 71.4786 32.1094 72.375 32.6543C73.2774 33.1992 73.9454 33.9668 74.379 34.957C74.8184 35.9473 75.0381 37.1104 75.0381 38.4463ZM65.6602 38.4463C65.6602 39.3428 65.7715 40.1162 65.9942 40.7666C66.2227 41.4111 66.5772 41.9092 67.0577 42.2607C67.5381 42.6064 68.1592 42.7793 68.9209 42.7793C69.6944 42.7793 70.3213 42.6064 70.8018 42.2607C71.2823 41.9092 71.6309 41.4111 71.8477 40.7666C72.0704 40.1162 72.1817 39.3428 72.1817 38.4463C72.1817 37.0986 71.9297 36.0381 71.4258 35.2646C70.9219 34.4912 70.0928 34.1045 68.9385 34.1045C68.1709 34.1045 67.544 34.2803 67.0577 34.6318C66.5772 34.9775 66.2227 35.4756 65.9942 36.126C65.7715 36.7705 65.6602 37.5439 65.6602 38.4463Z" fill="white"/>
</svg>
